{
classes = (
{
code = "A Aacute Abreve Acaron Acircumflex Adblgrave Adieresis Adotaccent Agrave Ainvertedbreve Amacron Aogonek Aring Atilde AE AEacute AEmacron B Bdotaccent C Cacute Ccaron Ccedilla Ccircumflex Cdotaccent D Eth Dcaron Dcroat Ddotaccent Dz Dzcaron E Eacute Ebreve Ecaron Ecedilla Ecircumflex Edblgrave Edieresis Edotaccent Egrave Einvertedbreve Emacron Eogonek Etilde F Fdotaccent G Gacute Gbreve Gcaron Gcircumflex Gcommaaccent Gdotaccent H Hbar Hcaron Hcircumflex I IJ Iacute Ibreve Icaron Icircumflex Idblgrave Idieresis Idotaccent Igrave Iinvertedbreve Imacron Iogonek Itilde J Jcircumflex K Kcaron Kcommaaccent L Lacute Lcaron Lcommaaccent Ldot Lj Lslash M Mdotaccent N Nacute Ncaron Ncommaaccent Ngrave Eng Nj Ntilde O Oacute Obreve Ocaron Ocircumflex Odblgrave Odieresis Ograve Ohungarumlaut Oinvertedbreve Omacron Oogonek Oslash Oslashacute Otilde OE P Pdotaccent Thorn Q R Racute Rcaron Rcommaaccent Rdblgrave Rinvertedbreve S Sacute Scaron Scedilla Scircumflex Scommaaccent Sdotaccent Schwa T Tbar Tcaron Tcedilla Tcommaaccent Tdotaccent U Uacute Ubreve Ucaron Ucircumflex Udblgrave Udieresis Ugrave Uhungarumlaut Uinvertedbreve Umacron Uogonek Uring Utilde V W Wacute Wcircumflex Wdieresis Wgrave X Y Yacute Ycircumflex Ydieresis Ygrave Ymacron Ytilde Z Zacute Zcaron Zdotaccent Delta Sigma Omega Odotaccent";
name = Uppercase;
}
);
copyright = "Copyright \U00A9 2014 by Vernon Adams. All rights reserved.";
customParameters = (
{
name = note;
value = "";
},
{
name = openTypeNameDescription;
value = "Copyright (c) 2011-14 by vernon adams. All rights reserved.";
},
{
name = openTypeNameLicense;
value = "Copyright (c) 2010-14\012vernon adams (vern@newtypography.co.uk)\012\012This Font Software is licensed under the SIL Open Font License\012Version 1.1.\012This license is copied below\012and is also available with a FAQ at:\012http://scripts.sil.org/OFL";
},
{
name = openTypeNameLicenseURL;
value = "http://scripts.sil.org/OFL";
},
{
name = openTypeNameUniqueID;

glyphs = (
{
glyphname = A;
lastChange = "2014-01-29 21:29:48 -0800";
layers = (
{
anchors = (
{
name = ogonek;
position = "{1170, 0}";
},
{
name = top;
position = "{831, 1446}";
}
);
layerId = "F85E8FEC-B3CD-4A54-BF30-AB1986ECE904";
name = Regular;
paths = (
{
closed = 1;
nodes = (
"-29 0 LINE",
"180 0 LINE",
"324 282 LINE",
"969 282 LINE",
"1022 0 LINE",
"1227 0 LINE",
"917 1446 LINE",
"740 1446 LINE"
);
},
{
closed = 1;
nodes = (
"395 425 LINE",
"797 1216 LINE",
"946 425 LINE"
);
}
);
width = 1428;
},
{
anchors = (
{
name = ogonek;
position = "{1171, 0}";
},
{
name = top;
position = "{898, 1476}";
}
);
layerId = "C6C96970-2BBD-4A47-8C90-C83F37B7F23D";
name = Bold;
paths = (
{
closed = 1;
nodes = (
"-33 0 LINE",
"274 0 LINE",
"405 281 LINE",
"989 281 LINE",
"1027 0 LINE",
"1339 0 LINE",
"1081 1476 LINE",
"687 1476 LINE"
);
},
{
closed = 1;
nodes = (
"495 479 LINE",
"854 1245 LINE",
"963 479 LINE"
);
}
);
width = 1540;
}
);
unicode = 0041;
},
{
glyphname = AE;
lastChange = "2014-01-29 21:29:48 -0800";
layers = (
{
anchors = (
{
name = top;
position = "{1132, 1446}";
}
);
layerId = "F85E8FEC-B3CD-4A54-BF30-AB1986ECE904";
name = Regular;
paths = (
{
closed = 1;
nodes = (
"-16 3 LINE",
"187 0 LINE",
"305 282 LINE",
"804 282 LINE",
"759 0 LINE",
"1444 0 LINE",
"1468 150 LINE",
"974 150 LINE",
"1056 664 LINE",
"1480 664 LINE",
"1503 814 LINE",
"1079 814 LINE",
"1156 1296 LINE",
"1641 1296 LINE",
"1665 1446 LINE",
"607 1446 LINE"
);
},
{
closed = 1;
nodes = (
"363 417 LINE",
"723 1296 LINE",
"965 1296 LINE",
"826 417 LINE"
);
}
);
width = 1686;
},
{
anchors = (
{
name = top;
position = "{1213, 1476}";
}
);
layerId = "C6C96970-2BBD-4A47-8C90-C83F37B7F23D";
name = Bold;
paths = (
{
closed = 1;
nodes = (
"-34 0 LINE",
"276 0 LINE",
"400 281 LINE",
"821 281 LINE",
"776 0 LINE",
"1593 0 LINE",
"1629 227 LINE",
"1092 227 LINE",
"1158 645 LINE",
"1615 645 LINE",
"1649 858 LINE",
"1192 858 LINE",
"1254 1249 LINE",
"1781 1249 LINE",
"1817 1477 LINE",
"656 1477 LINE"
);
},
{
closed = 1;
nodes = (
"486 477 LINE",
"838 1249 LINE",
"974 1249 LINE",
"852 477 LINE"
);
}
);
width = 1834;
}
);
unicode = 00C6;
},
{
glyphname = B;
lastChange = "2014-01-29 21:29:48 -0800";
layers = (
{
anchors = (
{
name = top;
position = "{811, 1446}";
}
);
layerId = "F85E8FEC-B3CD-4A54-BF30-AB1986ECE904";
name = Regular;
paths = (
{
closed = 1;
nodes = (
"103 0 LINE",
"671 0 LINE SMOOTH",
"1023 0 OFFCURVE",
"1197 124 OFFCURVE",
"1243 411 CURVE SMOOTH",
"1272 595 OFFCURVE",
"1211 735 OFFCURVE",
"1048 773 CURVE",
"1189 819 OFFCURVE",
"1251 922 OFFCURVE",
"1274 1049 CURVE",
"1314 1301 OFFCURVE",
"1258 1446 OFFCURVE",
"857 1446 CURVE SMOOTH",
"333 1446 LINE"
);
},
{
closed = 1;
nodes = (
"329 149 LINE",
"416 696 LINE",
"816 696 LINE SMOOTH",
"1037 696 OFFCURVE",
"1069 565 OFFCURVE",
"1048 433 CURVE SMOOTH",
"1011 197 OFFCURVE",
"904 149 OFFCURVE",
"680 149 CURVE SMOOTH"
);
},
{
closed = 1;
nodes = (
"437 833 LINE",
"511 1295 LINE",
"802 1295 LINE SMOOTH",
"1046 1295 OFFCURVE",
"1105 1256 OFFCURVE",
"1072 1047 CURVE SMOOTH",
"1052 917 OFFCURVE",
"990 833 OFFCURVE",
"808 833 CURVE SMOOTH"
);
}
);
width = 1420;
},
{
anchors = (
{
name = top;
position = "{866, 1476}";
}
);
layerId = "C6C96970-2BBD-4A47-8C90-C83F37B7F23D";
name = Bold;
paths = (
{
closed = 1;
nodes = (
"95 0 LINE",
"735 0 LINE SMOOTH",
"1101 0 OFFCURVE",
"1278 139 OFFCURVE",
"1320 448 CURVE SMOOTH",
"1351 641 OFFCURVE",
"1325 776 OFFCURVE",
"1124 804 CURVE",
"1285 843 OFFCURVE",
"1334 938 OFFCURVE",
"1358 1088 CURVE SMOOTH",
"1400 1353 OFFCURVE",
"1310 1476 OFFCURVE",
"897 1476 CURVE SMOOTH",
"329 1476 LINE"
);
},
{
closed = 1;
nodes = (
"425 208 LINE",
"503 703 LINE",
"821 703 LINE SMOOTH",
"1043 703 OFFCURVE",
"1048 602 OFFCURVE",
"1025 455 CURVE SMOOTH",
"993 250 OFFCURVE",
"944 208 OFFCURVE",
"713 208 CURVE SMOOTH"
);
},
{
closed = 1;
nodes = (
"532 882 LINE",
"594 1273 LINE",
"846 1273 LINE SMOOTH",
"1047 1273 OFFCURVE",
"1080 1240 OFFCURVE",
"1055 1085 CURVE SMOOTH",
"1034 952 OFFCURVE",
"1012 882 OFFCURVE",
"839 882 CURVE SMOOTH"
);
}
);
width = 1492.23;
}
);
unicode = 0042;
},
{
glyphname = C;
lastChange = "2014-01-29 21:29:48 -0800";
layers = (
{
anchors = (
{
name = bot;
position = "{650, 0}";
},
{
name = top;
position = "{880, 1446}";
}
);
layerId = "F85E8FEC-B3CD-4A54-BF30-AB1986ECE904";
name = Regular;
paths = (
{
closed = 1;
nodes = (
"643 -22 CURVE SMOOTH",
"1103 -22 OFFCURVE",
"1207 147 OFFCURVE",
"1255 438 CURVE SMOOTH",
"1255 442 OFFCURVE",
"1256 445 OFFCURVE",
"1256 448 CURVE",
"1065 448 LINE",
"1064 440 OFFCURVE",
"1063 432 OFFCURVE",
"1062 424 CURVE SMOOTH",
"1016 165 OFFCURVE",
"924 140 OFFCURVE",
"673 140 CURVE SMOOTH",
"417 140 OFFCURVE",
"301 199 OFFCURVE",
"342 455 CURVE SMOOTH",
"424 977 LINE SMOOTH",
"465 1234 OFFCURVE",
"597 1306 OFFCURVE",
"851 1306 CURVE SMOOTH",
"1109 1306 OFFCURVE",
"1189 1269 OFFCURVE",
"1154 1007 CURVE SMOOTH",
"1153 998 OFFCURVE",
"1151 989 OFFCURVE",
"1150 980 CURVE",
"1343 997 LINE",
"1344 1001 OFFCURVE",
"1345 1006 OFFCURVE",
"1345 1010 CURVE SMOOTH",
"1390 1308 OFFCURVE",
"1315 1468 OFFCURVE",
"877 1468 CURVE SMOOTH",
"392 1468 OFFCURVE",
"265 1246 OFFCURVE",
"216 940 CURVE SMOOTH",
"144 486 LINE SMOOTH",
"97 185 OFFCURVE",
"160 -22 OFFCURVE"
);
}
);
width = 1456;
},
{
anchors = (
{
name = bot;
position = "{648, 0}";
},
{
name = top;
position = "{905, 1476}";
}
);
layerId = "C6C96970-2BBD-4A47-8C90-C83F37B7F23D";
name = Bold;
paths = (
{
closed = 1;
nodes = (
"667 -26 CURVE SMOOTH",
"1179 -26 OFFCURVE",
"1283 190 OFFCURVE",
"1329 480 CURVE SMOOTH",
"1333 507 LINE",
"1042 507 LINE",
"1035 460 LINE SMOOTH",
"1002 250 OFFCURVE",
"930 207 OFFCURVE",
"705 207 CURVE SMOOTH",
"483 207 OFFCURVE",
"388 252 OFFCURVE",
"420 454 CURVE SMOOTH",
"508 1012 LINE SMOOTH",
"541 1215 OFFCURVE",
"652 1268 OFFCURVE",
"872 1268 CURVE SMOOTH",
"1097 1268 OFFCURVE",
"1154 1213 OFFCURVE",
"1122 1006 CURVE SMOOTH",
"1110 931 LINE",
"1406 965 LINE",
"1409 983 LINE SMOOTH",
"1456 1281 OFFCURVE",
"1413 1501 OFFCURVE",
"909 1501 CURVE SMOOTH",
"380 1501 OFFCURVE",
"253 1275 OFFCURVE",
"206 977 CURVE SMOOTH",
"128 484 LINE SMOOTH",
"82 193 OFFCURVE",
"141 -26 OFFCURVE"
);
}
);
width = 1509;
}
);
unicode = 0043;
},
{
glyphname = D;
lastChange = "2014-01-29 21:29:48 -0800";
layers = (
{
anchors = (
{
name = mid;
position = "{363, 762}";
},
{
name = top;
position = "{831, 1446}";
}
);
layerId = "F85E8FEC-B3CD-4A54-BF30-AB1986ECE904";
name = Regular;
paths = (
{
closed = 1;
nodes = (
"329 150 LINE",
"511 1295 LINE",
"865 1295 LINE SMOOTH",
"1071 1295 OFFCURVE",
"1221 1238 OFFCURVE",
"1178 971 CURVE SMOOTH",
"1098 462 LINE SMOOTH",
"1056 196 OFFCURVE",
"891 150 OFFCURVE",
"683 150 CURVE SMOOTH"
);
},
{
closed = 1;
nodes = (
"103 0 LINE",
"679 0 LINE SMOOTH",
"1046 0 OFFCURVE",
"1252 169 OFFCURVE",
"1302 482 CURVE SMOOTH",
"1377 959 LINE SMOOTH",
"1421 1235 OFFCURVE",
"1308 1446 OFFCURVE",
"907 1446 CURVE SMOOTH",
"333 1446 LINE"
);
}
);
width = 1522;
},
{
anchors = (
{
name = mid;
position = "{382, 781}";
},
{
name = top;
position = "{896, 1476}";
}
);
layerId = "C6C96970-2BBD-4A47-8C90-C83F37B7F23D";
name = Bold;
paths = (
{
closed = 1;
nodes = (
"429 231 LINE",
"589 1245 LINE",
"907 1245 LINE SMOOTH",
"1113 1245 OFFCURVE",
"1166 1160 OFFCURVE",
"1140 1000 CURVE SMOOTH",
"1057 470 LINE SMOOTH",
"1031 306 OFFCURVE",
"956 231 OFFCURVE",
"747 231 CURVE SMOOTH"
);
},
{
closed = 1;
nodes = (
"95 0 LINE",
"736 0 LINE SMOOTH",
"1151 0 OFFCURVE",
"1313 213 OFFCURVE",
"1360 508 CURVE SMOOTH",
"1431 961 LINE SMOOTH",
"1477 1250 OFFCURVE",
"1397 1476 OFFCURVE",
"969 1476 CURVE SMOOTH",
"329 1476 LINE"
);
}
);
width = 1564;
}
);
unicode = 0044;
},
{
glyphname = E;
lastChange = "2014-01-29 21:29:48 -0800";
layers = (
{
anchors = (
{
name = bot;
position = "{513, 0}";
},
{
name = ogonek;
position = "{729, 0}";
},
{
name = top;
position = "{791, 1446}";
}
);
layerId = "F85E8FEC-B3CD-4A54-BF30-AB1986ECE904";
name = Regular;
paths = (
{
closed = 1;
nodes = (
"103 0 LINE",
"1018 0 LINE",
"1042 150 LINE",
"328 150 LINE",
"411 670 LINE",
"1031 670 LINE",
"1054 820 LINE",
"434 820 LINE",
"510 1296 LINE",
"1212 1296 LINE",
"1236 1446 LINE",
"333 1446 LINE"
);
}
);
width = 1255;
},
{
anchors = (
{
name = bot;
position = "{610, 0}";
},
{
name = ogonek;
position = "{775, 0}";
},
{
name = top;
position = "{860, 1476}";
}
);
layerId = "C6C96970-2BBD-4A47-8C90-C83F37B7F23D";
name = Bold;
paths = (
{
closed = 1;
nodes = (
"95 0 LINE",
"1073 0 LINE",
"1109 224 LINE",
"427 224 LINE",
"493 646 LINE",
"1088 646 LINE",
"1122 860 LINE",
"527 860 LINE",
"589 1252 LINE",
"1260 1252 LINE",
"1296 1476 LINE",
"329 1476 LINE"
);
}
);
width = 1316;
}
);
unicode = 0045;
},
{
glyphname = F;
lastChange = "2014-01-29 21:29:48 -0800";
layers = (
{
anchors = (
{
name = top;
position = "{771, 1446}";
}
);
layerId = "F85E8FEC-B3CD-4A54-BF30-AB1986ECE904";
name = Regular;
paths = (
{
closed = 1;
nodes = (
"103 0 LINE",
"304 0 LINE",
"410 664 LINE",
"994 664 LINE",
"1017 814 LINE",
"433 814 LINE",
"510 1296 LINE",
"1130 1296 LINE",
"1154 1446 LINE",
"333 1446 LINE"
);
}
);
width = 1159;
},
{
anchors = (
{
name = top;
position = "{815, 1476}";
}
);
layerId = "C6C96970-2BBD-4A47-8C90-C83F37B7F23D";
name = Bold;
paths = (
{
closed = 1;
nodes = (
"95 0 LINE",
"392 0 LINE",
"493 634 LINE",
"1048 634 LINE",
"1081 847 LINE",
"526 847 LINE",
"590 1249 LINE",
"1186 1249 LINE",
"1222 1476 LINE",
"329 1476 LINE"
);
}
);
width = 1195;
}
);
unicode = 0046;
},
{
glyphname = G;
lastChange = "2014-01-29 21:29:48 -0800";
layers = (
{
anchors = (
{
name = bot;
position = "{663, 0}";
},
{
name = top;
position = "{891, 1446}";
}
);
layerId = "F85E8FEC-B3CD-4A54-BF30-AB1986ECE904";
name = Regular;
paths = (
{
closed = 1;
nodes = (
"670 -22 CURVE SMOOTH",
"956 -22 OFFCURVE",
"1101 89 OFFCURVE",
"1149 246 CURVE",
"1135 0 LINE",
"1245 0 LINE",
"1362 735 LINE",
"817 735 LINE",
"794 588 LINE",
"1137 588 LINE",
"1116 455 LINE SMOOTH",
"1075 199 OFFCURVE",
"954 140 OFFCURVE",
"696 140 CURVE SMOOTH",
"440 140 OFFCURVE",
"305 199 OFFCURVE",
"346 455 CURVE SMOOTH",
"428 977 LINE SMOOTH",
"469 1234 OFFCURVE",
"626 1306 OFFCURVE",
"880 1306 CURVE SMOOTH",
"1148 1306 OFFCURVE",
"1239 1279 OFFCURVE",
"1209 1037 CURVE SMOOTH",
"1208 1026 OFFCURVE",
"1206 1014 OFFCURVE",
"1204 1001 CURVE",
"1390 1016 LINE",
"1392 1025 OFFCURVE",
"1393 1034 OFFCURVE",
"1394 1043 CURVE SMOOTH",
"1429 1298 OFFCURVE",
"1367 1468 OFFCURVE",
"906 1468 CURVE SMOOTH",
"421 1468 OFFCURVE",
"269 1246 OFFCURVE",
"220 940 CURVE SMOOTH",
"148 486 LINE SMOOTH",
"101 185 OFFCURVE",
"187 -22 OFFCURVE"
);
}
);
width = 1556;
},
{
anchors = (
{
name = bot;
position = "{651, 0}";
},
{
name = top;
position = "{940, 1476}";
}
);
layerId = "C6C96970-2BBD-4A47-8C90-C83F37B7F23D";
name = Bold;
paths = (
{
closed = 1;
nodes = (
"700 -26 CURVE SMOOTH",
"1019 -26 OFFCURVE",
"1111 123 OFFCURVE",
"1133 170 CURVE",
"1153 0 LINE",
"1310 0 LINE",
"1430 757 LINE",
"864 757 LINE",
"833 562 LINE",
"1131 562 LINE",
"1114 454 LINE SMOOTH",
"1082 252 OFFCURVE",
"962 207 OFFCURVE",
"737 207 CURVE SMOOTH",
"515 207 OFFCURVE",
"389 252 OFFCURVE",
"421 454 CURVE SMOOTH",
"509 1012 LINE SMOOTH",
"542 1215 OFFCURVE",
"685 1268 OFFCURVE",
"905 1268 CURVE SMOOTH",
"1127 1268 OFFCURVE",
"1210 1219 OFFCURVE",
"1179 1021 CURVE SMOOTH",
"1170 962 LINE",
"1465 984 LINE",
"1469 1007 LINE SMOOTH",
"1514 1290 OFFCURVE",
"1454 1501 OFFCURVE",
"942 1501 CURVE SMOOTH",
"413 1501 OFFCURVE",
"253 1275 OFFCURVE",
"206 977 CURVE SMOOTH",
"128 484 LINE SMOOTH",
"82 193 OFFCURVE",
"174 -26 OFFCURVE"
);
}
);
width = 1623;
}
);
unicode = 0047;
},
{
glyphname = H;
lastChange = "2014-01-29 21:29:48 -0800";
layers = (
{
anchors = (
{
name = center;
position = "{649, 0}";
},
{
name = top;
position = "{869, 1446}";
}
);
layerId = "F85E8FEC-B3CD-4A54-BF30-AB1986ECE904";
name = Regular;
paths = (
{
closed = 1;
nodes = (
"97 0 LINE",
"298 0 LINE",
"403 659 LINE",
"1105 659 LINE",
"1000 0 LINE",
"1201 0 LINE",
"1431 1446 LINE",
"1230 1446 LINE",
"1128 807 LINE",
"426 807 LINE",
"528 1446 LINE",
"327 1446 LINE"
);
}
);
width = 1528;
},
{
anchors = (
{
name = top;
position = "{964, 1476}";
}
);
layerId = "C6C96970-2BBD-4A47-8C90-C83F37B7F23D";
name = Bold;
paths = (
{
closed = 1;
nodes = (
"95 0 LINE",
"393 0 LINE",
"491 615 LINE",
"1139 615 LINE",
"1041 0 LINE",
"1339 0 LINE",
"1573 1476 LINE",
"1275 1476 LINE",
"1175 848 LINE",
"527 848 LINE",
"627 1476 LINE",
"329 1476 LINE"
);
}
);
width = 1668;
}
);
unicode = 0048;
},
{
glyphname = Hbar;
lastChange = "2014-01-29 21:29:48 -0800";
layers = (
{
components = (
{
name = H;
transform = "{1, 0, 0, 1, 0, 0}";
}
);
layerId = "F85E8FEC-B3CD-4A54-BF30-AB1986ECE904";
name = Regular;
paths = (
{
closed = 1;
nodes = (
"197 1060 LINE",
"1445 1060 LINE",
"1465 1184 LINE",
"217 1184 LINE"
);
}
);
width = 1536;
},
{
components = (
{
name = H;
transform = "{1, 0, 0, 1, 0, 0}";
}
);
layerId = "C6C96970-2BBD-4A47-8C90-C83F37B7F23D";
name = Bold;
paths = (
{
closed = 1;
nodes = (
"146 1132 LINE",
"1602 1132 LINE",
"1619 1236 LINE",
"163 1236 LINE"
);
}
);
width = 1624;
}
);
unicode = 0126;
},
{
glyphname = I;
lastChange = "2014-01-29 21:29:48 -0800";
layers = (
{
anchors = (
{
name = ogonek;
position = "{526, 0}";
},
{
name = top;
position = "{683, 1446}";
}
);
layerId = "F85E8FEC-B3CD-4A54-BF30-AB1986ECE904";
name = Regular;
paths = (
{
closed = 1;
nodes = (
"75 0 LINE",
"827 0 LINE",
"851 150 LINE",
"576 150 LINE",
"758 1297 LINE",
"1033 1297 LINE",
"1057 1446 LINE",
"305 1446 LINE",
"281 1297 LINE",
"557 1297 LINE",
"375 150 LINE",
"99 150 LINE"
);
}
);
width = 1132;
},
{
anchors = (
{
name = ogonek;
position = "{466, 0}";
},
{
name = top;
position = "{713, 1476}";
}
);
layerId = "C6C96970-2BBD-4A47-8C90-C83F37B7F23D";
name = Bold;
paths = (
{
closed = 1;
nodes = (
"41 0 LINE",
"873 0 LINE",
"908 222 LINE",
"641 222 LINE",
"805 1255 LINE",
"1072 1255 LINE",
"1107 1476 LINE",
"275 1476 LINE",
"240 1255 LINE",
"509 1255 LINE",
"345 222 LINE",
"76 222 LINE"
);
}
);
width = 1148;
}
);
unicode = 0049;
},
{
glyphname = J;
lastChange = "2014-01-29 21:29:48 -0800";
layers = (
{
anchors = (
{
name = top;
position = "{761, 1446}";
}
);
layerId = "F85E8FEC-B3CD-4A54-BF30-AB1986ECE904";
name = Regular;
paths = (
{
closed = 1;
nodes = (
"406 -17 CURVE SMOOTH",
"731 -17 OFFCURVE",
"900 157 OFFCURVE",
"943 431 CURVE SMOOTH",
"1104 1446 LINE",
"350 1446 LINE",
"324 1281 LINE",
"877 1281 LINE",
"743 435 LINE SMOOTH",
"713 248 OFFCURVE",
"617 148 OFFCURVE",
"426 148 CURVE SMOOTH",
"280 148 OFFCURVE",
"123 203 OFFCURVE",
"79 225 CURVE",
"0 70 LINE",
"60 36 OFFCURVE",
"238 -17 OFFCURVE"
);
}
);
width = 1206;
},
{
anchors = (
{
name = top;
position = "{756, 1476}";
}
);
layerId = "C6C96970-2BBD-4A47-8C90-C83F37B7F23D";
name = Bold;
paths = (
{
closed = 1;
nodes = (
"385 -25 CURVE SMOOTH",
"716 -25 OFFCURVE",
"943 138 OFFCURVE",
"988 422 CURVE SMOOTH",
"1155 1476 LINE",
"350 1476 LINE",
"314 1250 LINE",
"822 1250 LINE",
"694 441 LINE SMOOTH",
"674 313 OFFCURVE",
"589 209 OFFCURVE",
"403 209 CURVE SMOOTH",
"299 209 OFFCURVE",
"159 242 OFFCURVE",
"70 287 CURVE",
"-34 67 LINE",
"86 6 OFFCURVE",
"241 -25 OFFCURVE"
);
}
);
width = 1222;
}
);
unicode = 004A;
},
{
glyphname = K;
lastChange = "2014-01-29 21:29:48 -0800";
layers = (
{
anchors = (
{
name = bot;
position = "{594, 0}";
},
{
name = top;
position = "{848, 1446}";
}
);
layerId = "F85E8FEC-B3CD-4A54-BF30-AB1986ECE904";
name = Regular;
paths = (
{
closed = 1;
nodes = (
"103 0 LINE",
"304 0 LINE",
"379 468 LINE",
"632 690 LINE",
"1012 0 LINE",
"1235 0 LINE",
"790 798 LINE",
"1436 1446 LINE",
"1218 1446 LINE",
"948 1183 OFFCURVE",
"673 927 OFFCURVE",
"409 657 CURVE",
"534 1446 LINE",
"333 1446 LINE"
);
}
);
width = 1418;
},
{
anchors = (
{
name = bot;
position = "{665, 0}";
},
{
name = top;
position = "{873, 1476}";
}
);
layerId = "C6C96970-2BBD-4A47-8C90-C83F37B7F23D";
name = Bold;
paths = (
{
closed = 1;
nodes = (
"95 0 LINE",
"392 0 LINE",
"478 541 LINE",
"639 679 LINE",
"996 0 LINE",
"1331 0 LINE",
"904 804 LINE",
"1528 1476 LINE",
"1200 1476 LINE",
"512 760 LINE",
"626 1476 LINE",
"329 1476 LINE"
);
}
);
width = 1470;
}
);
unicode = 004B;
},
{
glyphname = L;
lastChange = "2014-01-29 21:29:48 -0800";
layers = (
{
anchors = (
{
name = bot;
position = "{508, 0}";
},
{
name = mid;
position = "{307, 725}";
},
{
name = top;
position = "{710, 1446}";
}
);
layerId = "F85E8FEC-B3CD-4A54-BF30-AB1986ECE904";
name = Regular;
paths = (
{
closed = 1;
nodes = (
"103 0 LINE",
"953 0 LINE",
"978 155 LINE",
"329 155 LINE",
"534 1446 LINE",
"333 1446 LINE"
);
}
);
width = 1145;
},
{
anchors = (
{
name = bot;
position = "{540, 0}";
},
{
name = caron.alt;
position = "{562, 1074}";
},
{
name = mid;
position = "{437, 811}";
},
{
name = top;
position = "{561, 1476}";
}
);
layerId = "C6C96970-2BBD-4A47-8C90-C83F37B7F23D";
name = Bold;
paths = (
{
closed = 1;
nodes = (
"95 0 LINE",
"1009 0 LINE",
"1046 232 LINE",
"429 232 LINE",
"626 1476 LINE",
"329 1476 LINE"
);
}
);
width = 1194;
}
);
unicode = 004C;
},
{
glyphname = Lslash;
lastChange = "2014-01-29 21:29:48 -0800";
layers = (
{
components = (
{
name = L;
transform = "{1, 0, 0, 1, 0, 0}";
}
);
layerId = "F85E8FEC-B3CD-4A54-BF30-AB1986ECE904";
name = Regular;
paths = (
{
closed = 1;
nodes = (
"35 616 LINE",
"870 1002 LINE",
"890 1126 LINE",
"55 740 LINE"
);
}
);
width = 1145;
},
{
components = (
{
name = L;
transform = "{1, 0, 0, 1, 0, 0}";
}
);
layerId = "C6C96970-2BBD-4A47-8C90-C83F37B7F23D";
name = Bold;
paths = (
{
closed = 1;
nodes = (
"-4 560 LINE",
"814 871 LINE",
"849 1094 LINE",
"31 783 LINE"
);
}
);
width = 1172;
}
);
unicode = 0141;
},
{
glyphname = M;
lastChange = "2014-01-29 21:29:48 -0800";
layers = (
{
anchors = (
{
name = top;
position = "{1001, 1446}";
}
);
layerId = "F85E8FEC-B3CD-4A54-BF30-AB1986ECE904";
name = Regular;
paths = (
{
closed = 1;
nodes = (
"103 0 LINE",
"295 0 LINE",
"472 1117 LINE",
"774 458 LINE",
"923 458 LINE",
"1433 1121 LINE",
"1255 0 LINE",
"1445 0 LINE",
"1675 1446 LINE",
"1497 1446 LINE",
"877 638 LINE",
"518 1446 LINE",
"333 1446 LINE"
);
}
);
width = 1778;
},
{
anchors = (
{
name = top;
position = "{1101, 1476}";
}
);
layerId = "C6C96970-2BBD-4A47-8C90-C83F37B7F23D";
name = Bold;
paths = (
{
closed = 1;
nodes = (
"95 0 LINE",
"373 0 LINE",
"545 1087 LINE",
"811 429 LINE",
"1010 429 LINE",
"1484 1091 LINE",
"1311 0 LINE",
"1589 0 LINE",
"1823 1476 LINE",
"1490 1476 LINE",
"963 761 LINE",
"656 1476 LINE",
"329 1476 LINE"
);
}
);
width = 1918;
}
);
unicode = 004D;
},
{
glyphname = N;
lastChange = "2014-01-29 21:29:48 -0800";
layers = (
{
anchors = (
{
name = bot;
position = "{682, 0}";
},
{
name = top;
position = "{912, 1446}";
}
);
layerId = "F85E8FEC-B3CD-4A54-BF30-AB1986ECE904";
name = Regular;
paths = (
{
closed = 1;
nodes = (
"103 0 LINE",
"280 0 LINE",
"455 1104 LINE",
"1082 0 LINE",
"1261 0 LINE",
"1491 1446 LINE",
"1314 1446 LINE",
"1130 290 LINE",
"486 1446 LINE",
"333 1446 LINE"
);
}
);
width = 1594;
},
{
anchors = (
{
name = bot;
position = "{785, 0}";
},
{
name = top;
position = "{981, 1476}";
}
);
layerId = "C6C96970-2BBD-4A47-8C90-C83F37B7F23D";
name = Bold;
paths = (
{
closed = 1;
nodes = (
"95 0 LINE",
"362 0 LINE",
"520 996 LINE",
"1126 0 LINE",
"1349 0 LINE",
"1583 1476 LINE",
"1319 1476 LINE",
"1159 464 LINE",
"552 1476 LINE",
"329 1476 LINE"
);
}
);
width = 1678;
}
);
unicode = 004E;
},
{
glyphname = Eng;
lastChange = "2014-01-29 21:29:48 -0800";
layers = (
{
layerId = "F85E8FEC-B3CD-4A54-BF30-AB1986ECE904";
name = Regular;
paths = (
{
closed = 1;
nodes = (
"677 -373 LINE",
"1008 -373 OFFCURVE",
"1244 -259 OFFCURVE",
"1304 122 CURVE SMOOTH",
"1514 1446 LINE",
"1337 1446 LINE",
"1182 470 LINE",
"509 1446 LINE",
"356 1446 LINE",
"127 0 LINE",
"304 0 LINE",
"479 1104 LINE",
"1127 190 LINE",
"1115 115 LINE SMOOTH",
"1066 -197 OFFCURVE",
"919 -210 OFFCURVE",
"671 -232 CURVE"
);
}
);
width = 1582;
},
{
layerId = "C6C96970-2BBD-4A47-8C90-C83F37B7F23D";
name = Bold;
paths = (
{
closed = 1;
nodes = (
"754 -382 LINE",
"1196 -382 OFFCURVE",
"1329 -219 OFFCURVE",
"1389 162 CURVE SMOOTH",
"1597 1477 LINE",
"1330 1477 LINE",
"1185 560 LINE",
"562 1477 LINE",
"337 1477 LINE",
"103 0 LINE",
"371 0 LINE",
"529 996 LINE",
"1115 153 LINE",
"1109 117 LINE SMOOTH",
"1065 -159 OFFCURVE",
"992 -171 OFFCURVE",
"756 -192 CURVE"
);
}
);
width = 1640;
}
);
unicode = 014A;
},
{
glyphname = O;
lastChange = "2014-01-29 21:29:48 -0800";
layers = (
{
anchors = (
{
name = bot;
position = "{667, 0}";
},
{
name = ogonek;
position = "{703, 0}";
},
{
name = top;
position = "{897, 1446}";
}
);
layerId = "F85E8FEC-B3CD-4A54-BF30-AB1986ECE904";
name = Regular;
paths = (
{
closed = 1;
nodes = (
"690 140 CURVE SMOOTH",
"434 140 OFFCURVE",
"305 199 OFFCURVE",
"346 455 CURVE SMOOTH",
"428 978 LINE SMOOTH",
"469 1235 OFFCURVE",
"620 1306 OFFCURVE",
"874 1306 CURVE SMOOTH",
"1130 1306 OFFCURVE",
"1240 1235 OFFCURVE",
"1199 978 CURVE SMOOTH",
"1117 455 LINE SMOOTH",
"1076 199 OFFCURVE",
"948 140 OFFCURVE"
);
},
{
closed = 1;
nodes = (
"664 -22 CURVE SMOOTH",
"1129 -22 OFFCURVE",
"1278 203 OFFCURVE",
"1325 500 CURVE SMOOTH",
"1392 928 LINE SMOOTH",
"1441 1234 OFFCURVE",
"1367 1468 OFFCURVE",
"900 1468 CURVE SMOOTH",
"415 1468 OFFCURVE",
"269 1247 OFFCURVE",
"221 941 CURVE SMOOTH",
"148 486 LINE SMOOTH",
"101 185 OFFCURVE",
"181 -22 OFFCURVE"
);
}
);
width = 1546;
},
{
anchors = (
{
name = ogonek;
position = "{766, 0}";
},
{
name = top;
position = "{939, 1476}";
}
);
layerId = "C6C96970-2BBD-4A47-8C90-C83F37B7F23D";
name = Bold;
paths = (
{
closed = 1;
nodes = (
"738 207 CURVE SMOOTH",
"516 207 OFFCURVE",
"391 265 OFFCURVE",
"423 468 CURVE SMOOTH",
"508 1003 LINE SMOOTH",
"540 1205 OFFCURVE",
"686 1268 OFFCURVE",
"906 1268 CURVE SMOOTH",
"1128 1268 OFFCURVE",
"1229 1201 OFFCURVE",
"1198 1003 CURVE SMOOTH",
"1113 468 LINE SMOOTH",
"1081 266 OFFCURVE",
"962 207 OFFCURVE"
);
},
{
closed = 1;
nodes = (
"701 -26 CURVE SMOOTH",
"1209 -26 OFFCURVE",
"1373 227 OFFCURVE",
"1419 517 CURVE SMOOTH",
"1487 948 LINE SMOOTH",
"1535 1247 OFFCURVE",
"1453 1501 OFFCURVE",
"943 1501 CURVE SMOOTH",
"410 1501 OFFCURVE",
"251 1262 OFFCURVE",
"204 963 CURVE SMOOTH",
"131 501 LINE SMOOTH",
"84 209 OFFCURVE",
"170 -26 OFFCURVE"
);
}
);
width = 1622;
}
);
unicode = 004F;
},
{
glyphname = Oslash;
lastChange = "2014-01-29 21:29:48 -0800";
layers = (
{
anchors = (
{
name = top;
position = "{903, 1446}";
}
);
components = (
{
name = O;
transform = "{1, 0, 0, 1, 0, 0}";
}
);
layerId = "F85E8FEC-B3CD-4A54-BF30-AB1986ECE904";
name = Regular;
paths = (
{
closed = 1;
nodes = (
"331 -195 LINE",
"1300 1638 LINE",
"1202 1676 LINE",
"234 -157 LINE"
);
}
);
width = 1546;
},
{
components = (
{
name = O;
transform = "{1, 0, 0, 1, 0, 0}";
}
);
layerId = "C6C96970-2BBD-4A47-8C90-C83F37B7F23D";
name = Bold;
paths = (
{
closed = 1;
nodes = (
"352 -217 LINE",
"1375 1675 LINE",
"1292 1698 LINE",
"269 -194 LINE"
);
}
);
width = 1606;
}
);
unicode = 00D8;
},
{
glyphname = OE;
lastChange = "2014-01-29 21:29:48 -0800";
layers = (
{
anchors = (
{
name = top;
position = "{664, 0}";
}
);
layerId = "F85E8FEC-B3CD-4A54-BF30-AB1986ECE904";
name = Regular;
paths = (
{
closed = 1;
nodes = (
"660 0 CURVE SMOOTH",
"1284 0 LINE",
"1308 150 LINE",
"885 150 LINE",
"967 664 LINE",
"1320 664 LINE",
"1343 814 LINE",
"990 814 LINE",
"1067 1296 LINE",
"1481 1296 LINE",
"1505 1446 LINE",
"890 1446 LINE SMOOTH",
"405 1446 OFFCURVE",
"262 1224 OFFCURVE",
"214 918 CURVE SMOOTH",
"149 510 LINE SMOOTH",
"102 209 OFFCURVE",
"177 0 OFFCURVE"
);
},
{
closed = 1;
nodes = (
"674 150 LINE SMOOTH",
"425 150 OFFCURVE",
"306 226 OFFCURVE",
"346 479 CURVE SMOOTH",
"422 955 LINE SMOOTH",
"462 1208 OFFCURVE",
"608 1295 OFFCURVE",
"855 1295 CURVE SMOOTH",
"866 1295 LINE",
"684 150 LINE"
);
}
);
width = 1557;
},
{
layerId = "C6C96970-2BBD-4A47-8C90-C83F37B7F23D";
name = Bold;
paths = (
{
closed = 1;
nodes = (
"600 0 CURVE SMOOTH",
"1390 0 LINE",
"1420 190 LINE",
"1069 190 LINE",
"1144 665 LINE",
"1410 665 LINE",
"1441 858 LINE",
"1175 858 LINE",
"1243 1287 LINE",
"1592 1287 LINE",
"1622 1476 LINE",
"834 1476 LINE SMOOTH",
"381 1475 OFFCURVE",
"241 1247 OFFCURVE",
"195 958 CURVE SMOOTH",
"123 506 LINE SMOOTH",
"77 211 OFFCURVE",
"149 0 OFFCURVE"
);
},
{
closed = 1;
nodes = (
"627 191 LINE SMOOTH",
"407 191 OFFCURVE",
"361 302 OFFCURVE",
"383 444 CURVE SMOOTH",
"475 1022 LINE SMOOTH",
"498 1165 OFFCURVE",
"581 1279 OFFCURVE",
"799 1279 CURVE SMOOTH",
"972 1279 LINE",
"799 191 LINE"
);
}
);
width = 1633;
}
);
unicode = 0152;
},
{
glyphname = P;
lastChange = "2014-01-29 21:29:48 -0800";
layers = (
{
anchors = (
{
name = top;
position = "{831, 1446}";
}
);
layerId = "F85E8FEC-B3CD-4A54-BF30-AB1986ECE904";
name = Regular;
paths = (
{
closed = 1;
nodes = (
"103 0 LINE",
"305 0 LINE",
"389 529 LINE",
"762 529 LINE SMOOTH",
"1008 529 OFFCURVE",
"1186 645 OFFCURVE",
"1240 991 CURVE SMOOTH",
"1293 1320 OFFCURVE",
"1154 1446 OFFCURVE",
"911 1446 CURVE SMOOTH",
"333 1446 LINE"
);
},
{
closed = 1;
nodes = (
"414 682 LINE",
"510 1293 LINE",
"892 1293 LINE SMOOTH",
"1073 1293 OFFCURVE",
"1059 1118 OFFCURVE",
"1036 977 CURVE SMOOTH",
"1013 828 OFFCURVE",
"966 682 OFFCURVE",
"791 682 CURVE SMOOTH"
);
}
);
width = 1326;
},
{
anchors = (
{
name = top;
position = "{845, 1476}";
}
);
layerId = "C6C96970-2BBD-4A47-8C90-C83F37B7F23D";
name = Bold;
paths = (
{
closed = 1;
nodes = (
"95 0 LINE",
"392 0 LINE",
"473 509 LINE",
"726 509 LINE SMOOTH",
"1112 509 OFFCURVE",
"1260 663 OFFCURVE",
"1314 1005 CURVE SMOOTH",
"1367 1337 OFFCURVE",
"1234 1476 OFFCURVE",
"908 1476 CURVE SMOOTH",
"329 1476 LINE"
);
},
{
closed = 1;
nodes = (
"507 726 LINE",
"592 1265 LINE",
"902 1265 LINE SMOOTH",
"1042 1265 OFFCURVE",
"1058 1145 OFFCURVE",
"1034 990 CURVE SMOOTH",
"1006 813 OFFCURVE",
"957 726 OFFCURVE",
"807 726 CURVE SMOOTH"
);
}
);
width = 1408;
}
);
unicode = 0050;
},
{
glyphname = Thorn;
lastChange = "2014-01-29 21:29:48 -0800";
layers = (
{
layerId = "F85E8FEC-B3CD-4A54-BF30-AB1986ECE904";
name = Regular;
paths = (
{
closed = 1;
nodes = (
"97 0 LINE",
"299 0 LINE",
"352 331 LINE",
"725 331 LINE SMOOTH",
"971 331 OFFCURVE",
"1145 427 OFFCURVE",
"1200 773 CURVE SMOOTH",
"1252 1102 OFFCURVE",
"1108 1208 OFFCURVE",
"865 1208 CURVE SMOOTH",
"491 1208 LINE",
"529 1446 LINE",
"327 1446 LINE"
);
},
{
closed = 1;
nodes = (
"376 484 LINE",
"467 1055 LINE",
"847 1055 LINE SMOOTH",
"1028 1055 OFFCURVE",
"1018 900 OFFCURVE",
"996 759 CURVE SMOOTH",
"972 610 OFFCURVE",
"928 484 OFFCURVE",
"753 484 CURVE SMOOTH"
);
}
);
width = 1320;
},
{
layerId = "C6C96970-2BBD-4A47-8C90-C83F37B7F23D";
name = Bold;
paths = (
{
closed = 1;
nodes = (
"99 0 LINE",
"396 0 LINE",
"452 356 LINE",
"717 356 LINE SMOOTH",
"1103 356 OFFCURVE",
"1229 469 OFFCURVE",
"1284 811 CURVE SMOOTH",
"1336 1143 OFFCURVE",
"1213 1240 OFFCURVE",
"886 1240 CURVE SMOOTH",
"593 1240 LINE",
"630 1476 LINE",
"333 1476 LINE"
);
},
{
closed = 1;
nodes = (
"486 567 LINE",
"560 1033 LINE",
"881 1033 LINE SMOOTH",
"1021 1033 OFFCURVE",
"1038 951 OFFCURVE",
"1013 797 CURVE SMOOTH",
"985 619 OFFCURVE",
"948 567 OFFCURVE",
"798 567 CURVE SMOOTH"
);
}
);
width = 1362;
}
);
unicode = 00DE;
},
{
glyphname = Q;
lastChange = "2014-01-29 21:29:48 -0800";
layers = (
{
layerId = "F85E8FEC-B3CD-4A54-BF30-AB1986ECE904";
name = Regular;
paths = (
{
closed = 1;
nodes = (
"797 -384 LINE",
"950 -308 LINE",
"807 -17 LINE",
"1183 18 OFFCURVE",
"1310 229 OFFCURVE",
"1353 500 CURVE SMOOTH",
"1421 928 LINE SMOOTH",
"1470 1234 OFFCURVE",
"1396 1468 OFFCURVE",
"929 1468 CURVE SMOOTH",
"444 1468 OFFCURVE",
"298 1247 OFFCURVE",
"249 941 CURVE SMOOTH",
"177 486 LINE SMOOTH",
"132 200 OFFCURVE",
"202 -2 OFFCURVE",
"625 -21 CURVE"
);
},
{
closed = 1;
nodes = (
"718 140 CURVE SMOOTH",
"462 140 OFFCURVE",
"334 199 OFFCURVE",
"374 455 CURVE SMOOTH",
"457 978 LINE SMOOTH",
"498 1235 OFFCURVE",
"649 1306 OFFCURVE",
"903 1306 CURVE SMOOTH",
"1159 1306 OFFCURVE",
"1269 1235 OFFCURVE",
"1228 978 CURVE SMOOTH",
"1145 455 LINE SMOOTH",
"1105 199 OFFCURVE",
"976 140 OFFCURVE"
);
}
);
width = 1542;
},
{
layerId = "C6C96970-2BBD-4A47-8C90-C83F37B7F23D";
name = Bold;
paths = (
{
closed = 1;
nodes = (
"857 -534 LINE",
"1063 -426 LINE",
"882 -19 LINE",
"1280 25 OFFCURVE",
"1418 256 OFFCURVE",
"1459 517 CURVE SMOOTH",
"1528 948 LINE SMOOTH",
"1575 1247 OFFCURVE",
"1493 1501 OFFCURVE",
"983 1501 CURVE SMOOTH",
"450 1501 OFFCURVE",
"291 1262 OFFCURVE",
"244 963 CURVE SMOOTH",
"171 501 LINE SMOOTH",
"128 234 OFFCURVE",
"197 14 OFFCURVE",
"616 -21 CURVE"
);
},
{
closed = 1;
nodes = (
"778 207 CURVE SMOOTH",
"556 207 OFFCURVE",
"431 265 OFFCURVE",
"464 468 CURVE SMOOTH",
"548 1003 LINE SMOOTH",
"580 1205 OFFCURVE",
"726 1268 OFFCURVE",
"946 1268 CURVE SMOOTH",
"1168 1268 OFFCURVE",
"1270 1201 OFFCURVE",
"1238 1003 CURVE SMOOTH",
"1154 468 LINE SMOOTH",
"1122 266 OFFCURVE",
"1002 207 OFFCURVE"
);
}
);
width = 1622;
}
);
unicode = 0051;
},
{
glyphname = R;
lastChange = "2014-01-29 21:29:48 -0800";
layers = (
{
anchors = (
{
name = bot;
position = "{617, 0}";
},
{
name = top;
position = "{831, 1446}";
}
);
layerId = "F85E8FEC-B3CD-4A54-BF30-AB1986ECE904";
name = Regular;
paths = (
{
closed = 1;
nodes = (
"103 0 LINE",
"305 0 LINE",
"400 599 LINE",
"400 599 OFFCURVE",
"846 600 OFFCURVE",
"857 600 CURVE",
"1048 0 LINE",
"1255 0 LINE",
"1049 636 LINE",
"1178 687 OFFCURVE",
"1277 784 OFFCURVE",
"1314 1018 CURVE SMOOTH",
"1365 1341 OFFCURVE",
"1221 1446 OFFCURVE",
"978 1446 CURVE SMOOTH",
"333 1446 LINE"
);
},
{
closed = 1;
nodes = (
"425 752 LINE",
"510 1293 LINE",
"959 1293 LINE SMOOTH",
"1140 1293 OFFCURVE",
"1131 1139 OFFCURVE",
"1109 1000 CURVE SMOOTH",
"1087 861 OFFCURVE",
"1026 752 OFFCURVE",
"851 752 CURVE SMOOTH"
);
}
);
width = 1464;
},
{
anchors = (
{
name = bot;
position = "{686, 0}";
},
{
name = top;
position = "{835, 1476}";
}
);
layerId = "C6C96970-2BBD-4A47-8C90-C83F37B7F23D";
name = Bold;
paths = (
{
closed = 1;
nodes = (
"95 0 LINE",
"392 0 LINE",
"484 583 LINE",
"818 583 LINE",
"985 0 LINE",
"1293 0 LINE",
"1107 626 LINE",
"1299 699 OFFCURVE",
"1360 853 OFFCURVE",
"1389 1035 CURVE SMOOTH",
"1431 1301 OFFCURVE",
"1358 1476 OFFCURVE",
"966 1476 CURVE SMOOTH",
"329 1476 LINE"
);
},
{
closed = 1;
nodes = (
"518 795 LINE",
"592 1265 LINE",
"969 1265 LINE SMOOTH",
"1116 1265 OFFCURVE",
"1122 1142 OFFCURVE",
"1103 1022 CURVE SMOOTH",
"1083 896 OFFCURVE",
"1035 795 OFFCURVE",
"883 795 CURVE SMOOTH"
);
}
);
width = 1524;
}
);
unicode = 0052;
},
{
glyphname = S;
lastChange = "2014-01-29 21:29:48 -0800";
layers = (
{
anchors = (
{
name = bot;
position = "{547, 0}";
},
{
name = top;
position = "{791, 1446}";
}
);
layerId = "F85E8FEC-B3CD-4A54-BF30-AB1986ECE904";
name = Regular;
paths = (
{
closed = 1;
nodes = (
"573 -22 CURVE SMOOTH",
"909 -22 OFFCURVE",
"1072 139 OFFCURVE",
"1114 406 CURVE SMOOTH",
"1149 625 OFFCURVE",
"1075 718 OFFCURVE",
"889 784 CURVE SMOOTH",
"544 907 LINE SMOOTH",
"408 955 OFFCURVE",
"407 1018 OFFCURVE",
"434 1137 CURVE SMOOTH",
"461 1260 OFFCURVE",
"584 1306 OFFCURVE",
"783 1306 CURVE SMOOTH",
"971 1306 OFFCURVE",
"1090 1257 OFFCURVE",
"1169 1210 CURVE",
"1243 1367 LINE",
"1159 1425 OFFCURVE",
"1021 1468 OFFCURVE",
"774 1468 CURVE SMOOTH",
"497 1468 OFFCURVE",
"273 1366 OFFCURVE",
"229 1089 CURVE SMOOTH",
"198 892 OFFCURVE",
"266 802 OFFCURVE",
"455 736 CURVE SMOOTH",
"786 620 LINE",
"925 573 OFFCURVE",
"946 518 OFFCURVE",
"933 437 CURVE SMOOTH",
"900 229 OFFCURVE",
"830 140 OFFCURVE",
"595 140 CURVE SMOOTH",
"418 140 OFFCURVE",
"242 202 OFFCURVE",
"143 267 CURVE",
"47 113 LINE",
"185 25 OFFCURVE",
"358 -22 OFFCURVE"
);
}
);
width = 1304;
},
{
anchors = (
{
name = bot;
position = "{585, 0}";
},
{
name = top;
position = "{787, 1476}";
}
);
layerId = "C6C96970-2BBD-4A47-8C90-C83F37B7F23D";
name = Bold;
paths = (
{
closed = 1;
nodes = (
"567 -26 CURVE SMOOTH",
"904 -26 OFFCURVE",
"1079 172 OFFCURVE",
"1119 422 CURVE SMOOTH",
"1156 654 OFFCURVE",
"1075 777 OFFCURVE",
"886 837 CURVE SMOOTH",
"647 912 LINE SMOOTH",
"497 959 OFFCURVE",
"466 1008 OFFCURVE",
"489 1121 CURVE SMOOTH",
"511 1227 OFFCURVE",
"607 1268 OFFCURVE",
"759 1268 CURVE SMOOTH",
"903 1268 OFFCURVE",
"1027 1229 OFFCURVE",
"1129 1177 CURVE",
"1246 1386 LINE",
"1122 1465 OFFCURVE",
"965 1501 OFFCURVE",
"770 1501 CURVE SMOOTH",
"479 1501 OFFCURVE",
"236 1369 OFFCURVE",
"192 1094 CURVE SMOOTH",
"163 905 OFFCURVE",
"203 752 OFFCURVE",
"433 681 CURVE SMOOTH",
"673 607 LINE SMOOTH",
"857 550 OFFCURVE",
"861 482 OFFCURVE",
"842 390 CURVE SMOOTH",
"820 281 OFFCURVE",
"767 207 OFFCURVE",
"597 207 CURVE SMOOTH",
"414 207 OFFCURVE",
"260 265 OFFCURVE",
"157 325 CURVE",
"20 108 LINE",
"155 25 OFFCURVE",
"366 -26 OFFCURVE"
);
}
);
width = 1281;
}
);
unicode = 0053;
},
{
glyphname = T;
lastChange = "2014-01-29 21:29:47 -0800";
layers = (
{
anchors = (
{
name = bot;
position = "{487, 0}";
},
{
name = center;
position = "{487, 0}";
},
{
name = mid;
position = "{608, 753}";
},
{
name = top;
position = "{729, 1446}";
}
);
layerId = "F85E8FEC-B3CD-4A54-BF30-AB1986ECE904";
name = Regular;
paths = (
{
closed = 1;
nodes = (
"386 0 LINE",
"587 0 LINE",
"790 1281 LINE",
"1208 1281 LINE",
"1235 1446 LINE",
"199 1446 LINE",
"172 1281 LINE",
"589 1281 LINE"
);
}
);
width = 1204;
},
{
anchors = (
{
name = bot;
position = "{458, 0}";
},
{
name = mid;
position = "{607, 762}";
},
{
name = top;
position = "{718, 1476}";
}
);
layerId = "C6C96970-2BBD-4A47-8C90-C83F37B7F23D";
name = Bold;
paths = (
{
closed = 1;
nodes = (
"332 0 LINE",
"628 0 LINE",
"826 1250 LINE",
"1237 1250 LINE",
"1273 1476 LINE",
"155 1476 LINE",
"119 1250 LINE",
"530 1250 LINE"
);
}
);
width = 1194;
}
);
unicode = 0054;
},
{
glyphname = U;
lastChange = "2014-01-29 21:29:48 -0800";
layers = (
{
anchors = (
{
name = ogonek;
position = "{728, 0}";
},
{
name = top;
position = "{895, 1446}";
}
);
layerId = "F85E8FEC-B3CD-4A54-BF30-AB1986ECE904";
name = Regular;
paths = (
{
closed = 1;
nodes = (
"663 -22 CURVE SMOOTH",
"1116 -22 OFFCURVE",
"1258 205 OFFCURVE",
"1300 473 CURVE SMOOTH",
"1454 1446 LINE",
"1252 1446 LINE",
"1095 452 LINE SMOOTH",
"1053 186 OFFCURVE",
"891 140 OFFCURVE",
"688 140 CURVE SMOOTH",
"487 140 OFFCURVE",
"319 186 OFFCURVE",
"361 452 CURVE SMOOTH",
"518 1446 LINE",
"316 1446 LINE",
"162 473 LINE SMOOTH",
"119 202 OFFCURVE",
"190 -22 OFFCURVE"
);
}
);
width = 1538;
},
{
anchors = (
{
name = ogonek;
position = "{774, 0}";
},
{
name = top;
position = "{944, 1476}";
}
);
layerId = "C6C96970-2BBD-4A47-8C90-C83F37B7F23D";
name = Bold;
paths = (
{
closed = 1;
nodes = (
"693 -26 CURVE SMOOTH",
"1191 -26 OFFCURVE",
"1331 199 OFFCURVE",
"1375 480 CURVE SMOOTH",
"1533 1477 LINE",
"1236 1477 LINE",
"1074 455 LINE SMOOTH",
"1044 263 OFFCURVE",
"938 207 OFFCURVE",
"730 207 CURVE SMOOTH",
"525 207 OFFCURVE",
"415 260 OFFCURVE",
"446 455 CURVE SMOOTH",
"608 1477 LINE",
"311 1477 LINE",
"151 468 LINE SMOOTH",
"107 186 OFFCURVE",
"188 -26 OFFCURVE"
);
}
);
width = 1606;
}
);
unicode = 0055;
},
{
glyphname = V;
lastChange = "2014-01-29 21:29:48 -0800";
layers = (
{
layerId = "F85E8FEC-B3CD-4A54-BF30-AB1986ECE904";
name = Regular;
paths = (
{
closed = 1;
nodes = (
"487 0 LINE",
"664 0 LINE",
"1415 1446 LINE",
"1206 1446 LINE",
"624 294 LINE",
"408 1446 LINE",
"201 1446 LINE"
);
}
);
width = 1386;
},
{
layerId = "C6C96970-2BBD-4A47-8C90-C83F37B7F23D";
name = Bold;
paths = (
{
closed = 1;
nodes = (
"447 0 LINE",
"807 0 LINE",
"1561 1476 LINE",
"1246 1476 LINE",
"677 287 LINE",
"471 1476 LINE",
"157 1476 LINE"
);
}
);
width = 1484;
}
);
unicode = 0056;
},
{
glyphname = W;
lastChange = "2014-01-29 21:29:48 -0800";
layers = (
{
anchors = (
{
name = top;
position = "{1152, 1446}";
}
);
layerId = "F85E8FEC-B3CD-4A54-BF30-AB1986ECE904";
name = Regular;
paths = (
{
closed = 1;
nodes = (
"407 0 LINE",
"559 0 LINE",
"1118 1232 LINE",
"1275 0 LINE",
"1427 0 LINE",
"2051 1446 LINE",
"1868 1446 LINE",
"1402 346 LINE",
"1248 1446 LINE",
"1033 1446 LINE",
"543 346 LINE",
"411 1446 LINE",
"227 1446 LINE"
);
}
);
width = 2048;
},
{
anchors = (
{
name = top;
position = "{1113, 1476}";
}
);
layerId = "C6C96970-2BBD-4A47-8C90-C83F37B7F23D";
name = Bold;
paths = (
{
closed = 1;
nodes = (
"330 0 LINE",
"596 0 LINE",
"1053 1053 LINE",
"1202 0 LINE",
"1451 0 LINE",
"2061 1476 LINE",
"1779 1476 LINE",
"1391 466 LINE",
"1238 1476 LINE",
"989 1476 LINE",
"555 455 LINE",
"468 1476 LINE",
"187 1476 LINE"
);
}
);
width = 2014;
}
);
unicode = 0057;
},
{
glyphname = X;
lastChange = "2014-01-29 21:29:48 -0800";
layers = (
{
layerId = "F85E8FEC-B3CD-4A54-BF30-AB1986ECE904";
name = Regular;
paths = (
{
closed = 1;
nodes = (
"-21 0 LINE",
"191 0 LINE",
"642 568 LINE",
"909 0 LINE",
"1127 0 LINE",
"775 734 LINE",
"1342 1446 LINE",
"1125 1446 LINE",
"697 898 LINE",
"434 1446 LINE",
"231 1446 LINE",
"566 731 LINE"
);
}
);
width = 1336;
},
{
layerId = "C6C96970-2BBD-4A47-8C90-C83F37B7F23D";
name = Bold;
paths = (
{
closed = 1;
nodes = (
"-79 0 LINE",
"231 0 LINE",
"631 501 LINE",
"870 0 LINE",
"1197 0 LINE",
"832 749 LINE",
"1414 1476 LINE",
"1086 1476 LINE",
"710 997 LINE",
"476 1476 LINE",
"167 1476 LINE",
"515 748 LINE"
);
}
);
width = 1352;
}
);
unicode = 0058;
},
{
glyphname = Y;
lastChange = "2014-01-29 21:29:48 -0800";
layers = (
{
anchors = (
{
name = top;
position = "{794, 1446}";
}
);
layerId = "F85E8FEC-B3CD-4A54-BF30-AB1986ECE904";
name = Regular;
paths = (
{
closed = 1;
nodes = (
"445 0 LINE",
"646 0 LINE",
"736 568 LINE",
"1385 1446 LINE",
"1178 1446 LINE",
"664 744 LINE",
"376 1446 LINE",
"163 1446 LINE",
"535 568 LINE"
);
}
);
width = 1318;
},
{
anchors = (
{
name = top;
position = "{811, 1476}";
}
);
layerId = "C6C96970-2BBD-4A47-8C90-C83F37B7F23D";
name = Bold;
paths = (
{
closed = 1;
nodes = (
"410 0 LINE",
"706 0 LINE",
"796 567 LINE",
"1439 1476 LINE",
"1139 1476 LINE",
"696 859 LINE",
"448 1476 LINE",
"135 1476 LINE",
"500 567 LINE"
);
}
);
width = 1340;
}
);
unicode = 0059;
},
{
glyphname = Z;
lastChange = "2014-01-29 21:29:48 -0800";
layers = (
{
anchors = (
{
name = top;
position = "{778, 1446}";
}
);
layerId = "F85E8FEC-B3CD-4A54-BF30-AB1986ECE904";
name = Regular;
paths = (
{
closed = 1;
nodes = (
"65 0 LINE",
"981 0 LINE",
"1008 165 LINE",
"314 165 LINE",
"1174 1295 LINE",
"1198 1446 LINE",
"326 1446 LINE",
"299 1281 LINE",
"950 1281 LINE",
"89 150 LINE"
);
}
);
width = 1242;
},
{
anchors = (
{
name = top;
position = "{811, 1476}";
}
);
layerId = "C6C96970-2BBD-4A47-8C90-C83F37B7F23D";
name = Bold;
paths = (
{
closed = 1;
nodes = (
"5 0 LINE",
"1023 0 LINE",
"1056 210 LINE",
"384 210 LINE",
"1217 1297 LINE",
"1245 1476 LINE",
"264 1476 LINE",
"229 1258 LINE",
"866 1258 LINE",
"33 177 LINE"
);
}
);
width = 1222;
}
);
unicode = 005A;
},
{
glyphname = a;
lastChange = "2014-01-29 21:29:48 -0800";
layers = (
{
anchors = (
{
name = ogonek;
position = "{973, 10}";
},
{
name = top;
position = "{668, 1060}";
}
);
layerId = "F85E8FEC-B3CD-4A54-BF30-AB1986ECE904";
name = Regular;
paths = (
{
closed = 1;
nodes = (
"364 -22 CURVE SMOOTH",
"559 -22 OFFCURVE",
"678 78 OFFCURVE",
"736 150 CURVE",
"752 50 OFFCURVE",
"794 -8 OFFCURVE",
"935 -8 CURVE SMOOTH",
"973 -8 LINE",
"1018 136 LINE",
"927 136 OFFCURVE",
"910 156 OFFCURVE",
"928 268 CURVE SMOOTH",
"999 720 LINE SMOOTH",
"1034 938 OFFCURVE",
"959 1080 OFFCURVE",
"679 1080 CURVE SMOOTH",
"401 1080 OFFCURVE",
"247 988 OFFCURVE",
"214 779 CURVE SMOOTH",
"206 731 LINE",
"387 731 LINE",
"394 778 LINE SMOOTH",
"408 863 OFFCURVE",
"437 936 OFFCURVE",
"650 936 CURVE SMOOTH",
"819 936 OFFCURVE",
"834 864 OFFCURVE",
"820 778 CURVE SMOOTH",
"809 707 OFFCURVE",
"793 682 OFFCURVE",
"749 667 CURVE SMOOTH",
"515 586 LINE SMOOTH",
"206 479 OFFCURVE",
"119 407 OFFCURVE",
"100 253 CURVE SMOOTH",
"80 90 OFFCURVE",
"145 -22 OFFCURVE"
);
},
{
closed = 1;
nodes = (
"422 118 CURVE SMOOTH",
"292 118 OFFCURVE",
"270 155 OFFCURVE",
"281 262 CURVE SMOOTH",
"291 357 OFFCURVE",
"358 403 OFFCURVE",
"532 466 CURVE SMOOTH",
"785 557 LINE",
"744 297 LINE",
"699 199 OFFCURVE",
"535 118 OFFCURVE"
);
}
);
width = 1172;
},
{
anchors = (
{
name = ogonek;
position = "{922, 0}";
},
{
name = top;
position = "{679, 1074}";
}
);
layerId = "C6C96970-2BBD-4A47-8C90-C83F37B7F23D";
name = Bold;
paths = (
{
closed = 1;
nodes = (
"335 -23 CURVE SMOOTH",
"492 -23 OFFCURVE",
"613 35 OFFCURVE",
"693 130 CURVE",
"711 43 OFFCURVE",
"768 -8 OFFCURVE",
"927 -8 CURVE SMOOTH",
"1019 -8 LINE",
"1061 190 LINE",
"963 190 OFFCURVE",
"952 210 OFFCURVE",
"967 308 CURVE SMOOTH",
"1034 733 LINE SMOOTH",
"1070 955 OFFCURVE",
"982 1097 OFFCURVE",
"661 1097 CURVE SMOOTH",
"367 1097 OFFCURVE",
"212 963 OFFCURVE",
"179 755 CURVE SMOOTH",
"174 723 LINE",
"429 723 LINE",
"435 765 LINE SMOOTH",
"449 848 OFFCURVE",
"489 907 OFFCURVE",
"625 907 CURVE SMOOTH",
"747 907 OFFCURVE",
"789 876 OFFCURVE",
"775 790 CURVE",
"762 707 OFFCURVE",
"730 693 OFFCURVE",
"672 673 CURVE SMOOTH",
"462 602 LINE SMOOTH",
"196 512 OFFCURVE",
"93 415 OFFCURVE",
"71 278 CURVE SMOOTH",
"42 94 OFFCURVE",
"147 -23 OFFCURVE"
);
},
{
closed = 1;
nodes = (
"434 161 CURVE SMOOTH",
"370 161 OFFCURVE",
"325 190 OFFCURVE",
"332 278 CURVE SMOOTH",
"338 347 OFFCURVE",
"386 405 OFFCURVE",
"506 449 CURVE SMOOTH",
"734 533 LINE",
"696 289 LINE",
"630 207 OFFCURVE",
"498 161 OFFCURVE"
);
}
);
width = 1174.37;
}
);
unicode = 0061;
userData = {
com.typemytype.robofont.layerData = {
};
};
},
{
glyphname = ae;
lastChange = "2014-01-29 21:29:48 -0800";
layers = (
{
anchors = (
{
name = top;
position = "{980, 1060}";
}
);
layerId = "F85E8FEC-B3CD-4A54-BF30-AB1986ECE904";
name = Regular;
paths = (
{
closed = 1;
nodes = (
"382 -22 CURVE SMOOTH",
"619 -22 OFFCURVE",
"734 68 OFFCURVE",
"802 178 CURVE",
"828 75 OFFCURVE",
"909 -22 OFFCURVE",
"1102 -22 CURVE SMOOTH",
"1392 -22 OFFCURVE",
"1508 60 OFFCURVE",
"1570 318 CURVE",
"1400 318 LINE",
"1358 135 OFFCURVE",
"1290 121 OFFCURVE",
"1124 121 CURVE SMOOTH",
"977 121 OFFCURVE",
"915 186 OFFCURVE",
"937 328 CURVE SMOOTH",
"966 511 LINE",
"1606 511 LINE",
"1645 758 LINE SMOOTH",
"1677 959 OFFCURVE",
"1560 1080 OFFCURVE",
"1284 1080 CURVE SMOOTH",
"1139 1080 OFFCURVE",
"1029 1037 OFFCURVE",
"952 939 CURVE",
"930 1035 OFFCURVE",
"815 1080 OFFCURVE",
"677 1080 CURVE SMOOTH",
"399 1080 OFFCURVE",
"245 989 OFFCURVE",
"208 759 CURVE SMOOTH",
"204 731 LINE",
"385 731 LINE",
"389 758 LINE SMOOTH",
"405 857 OFFCURVE",
"430 936 OFFCURVE",
"643 936 CURVE SMOOTH",
"835 936 OFFCURVE",
"833 850 OFFCURVE",
"821 773 CURVE SMOOTH",
"804 667 OFFCURVE",
"769 626 OFFCURVE",
"536 575 CURVE SMOOTH",
"202 502 OFFCURVE",
"114 423 OFFCURVE",
"92 283 CURVE SMOOTH",
"66 120 OFFCURVE",
"157 -22 OFFCURVE"
);
},
{
closed = 1;
nodes = (
"437 120 CURVE SMOOTH",
"327 120 OFFCURVE",
"254 165 OFFCURVE",
"273 284 CURVE SMOOTH",
"288 378 OFFCURVE",
"391 407 OFFCURVE",
"549 449 CURVE SMOOTH",
"712 492 OFFCURVE",
"783 544 OFFCURVE",
"787 564 CURVE",
"741 279 LINE",
"696 181 OFFCURVE",
"550 120 OFFCURVE"
);
},
{
closed = 1;
nodes = (
"985 633 LINE",
"1006 760 LINE SMOOTH",
"1026 891 OFFCURVE",
"1111 938 OFFCURVE",
"1261 938 CURVE SMOOTH",
"1406 938 OFFCURVE",
"1497 906 OFFCURVE",
"1476 778 CURVE SMOOTH",
"1453 633 LINE"
);
}
);
width = 1741;
},
{
anchors = (
{
name = top;
position = "{975, 1074}";
}
);
layerId = "C6C96970-2BBD-4A47-8C90-C83F37B7F23D";
name = Bold;
paths = (
{
closed = 1;
nodes = (
"331 -23 CURVE SMOOTH",
"532 -23 OFFCURVE",
"654 31 OFFCURVE",
"783 130 CURVE",
"821 29 OFFCURVE",
"928 -23 OFFCURVE",
"1097 -23 CURVE SMOOTH",
"1387 -23 OFFCURVE",
"1537 41 OFFCURVE",
"1593 353 CURVE",
"1341 353 LINE",
"1310 184 OFFCURVE",
"1254 166 OFFCURVE",
"1131 166 CURVE SMOOTH",
"1018 166 OFFCURVE",
"959 203 OFFCURVE",
"978 321 CURVE SMOOTH",
"1008 514 LINE",
"1620 514 LINE",
"1657 745 LINE SMOOTH",
"1691 961 OFFCURVE",
"1602 1097 OFFCURVE",
"1276 1097 CURVE SMOOTH",
"1145 1097 OFFCURVE",
"1032 1055 OFFCURVE",
"946 967 CURVE",
"913 1056 OFFCURVE",
"796 1097 OFFCURVE",
"662 1097 CURVE SMOOTH",
"367 1097 OFFCURVE",
"210 953 OFFCURVE",
"177 745 CURVE SMOOTH",
"173 719 LINE",
"429 719 LINE",
"435 755 LINE SMOOTH",
"448 838 OFFCURVE",
"489 908 OFFCURVE",
"626 908 CURVE SMOOTH",
"754 908 OFFCURVE",
"789 852 OFFCURVE",
"776 770 CURVE SMOOTH",
"754 631 OFFCURVE",
"673 640 OFFCURVE",
"456 586 CURVE SMOOTH",
"136 508 OFFCURVE",
"88 420 OFFCURVE",
"69 268 CURVE SMOOTH",
"46 90 OFFCURVE",
"147 -23 OFFCURVE"
);
},
{
closed = 1;
nodes = (
"455 157 CURVE SMOOTH",
"365 157 OFFCURVE",
"323 206 OFFCURVE",
"334 290 CURVE SMOOTH",
"343 351 OFFCURVE",
"377 418 OFFCURVE",
"513 447 CURVE SMOOTH",
"615 470 OFFCURVE",
"708 499 OFFCURVE",
"736 520 CURVE",
"695 259 LINE",
"633 183 OFFCURVE",
"521 157 OFFCURVE"
);
},
{
closed = 1;
nodes = (
"1031 655 LINE",
"1047 760 LINE SMOOTH",
"1065 874 OFFCURVE",
"1143 907 OFFCURVE",
"1252 907 CURVE SMOOTH",
"1361 907 OFFCURVE",
"1426 884 OFFCURVE",
"1407 765 CURVE SMOOTH",
"1390 655 LINE"
);
}
);
width = 1734;
}
);
unicode = 00E6;
},
{
glyphname = b;
lastChange = "2014-01-29 21:29:48 -0800";
layers = (
{
anchors = (
{
name = top;
position = "{714, 1060}";
}
);
layerId = "F85E8FEC-B3CD-4A54-BF30-AB1986ECE904";
name = Regular;
paths = (
{
closed = 1;
nodes = (
"505 -22 CURVE SMOOTH",
"781 -22 OFFCURVE",
"960 139 OFFCURVE",
"994 352 CURVE SMOOTH",
"1055 736 LINE SMOOTH",
"1087 940 OFFCURVE",
"975 1080 OFFCURVE",
"704 1080 CURVE SMOOTH",
"605 1080 OFFCURVE",
"491 1049 OFFCURVE",
"416 1010 CURVE",
"495 1506 LINE",
"307 1506 LINE",
"68 0 LINE",
"207 0 LINE",
"243 71 LINE",
"293 36 OFFCURVE",
"379 -22 OFFCURVE"
);
},
{
closed = 1;
nodes = (
"500 126 CURVE SMOOTH",
"411 126 OFFCURVE",
"336 157 OFFCURVE",
"286 188 CURVE",
"394 870 LINE",
"469 902 OFFCURVE",
"584 936 OFFCURVE",
"672 936 CURVE SMOOTH",
"810 936 OFFCURVE",
"889 877 OFFCURVE",
"869 750 CURVE SMOOTH",
"803 332 LINE SMOOTH",
"782 202 OFFCURVE",
"648 126 OFFCURVE"
);
}
);
width = 1204;
},
{
anchors = (
{
name = top;
position = "{754, 1074}";
}
);
layerId = "C6C96970-2BBD-4A47-8C90-C83F37B7F23D";
name = Bold;
paths = (
{
closed = 1;
nodes = (
"543 -23 CURVE SMOOTH",
"804 -23 OFFCURVE",
"993 120 OFFCURVE",
"1026 329 CURVE SMOOTH",
"1093 753 LINE SMOOTH",
"1122 934 OFFCURVE",
"1040 1097 OFFCURVE",
"738 1097 CURVE SMOOTH",
"648 1097 OFFCURVE",
"559 1074 OFFCURVE",
"488 1040 CURVE",
"564 1516 LINE",
"292 1516 LINE",
"52 0 LINE",
"239 0 LINE",
"276 65 LINE",
"338 19 OFFCURVE",
"426 -23 OFFCURVE"
);
},
{
closed = 1;
nodes = (
"528 168 CURVE SMOOTH",
"455 168 OFFCURVE",
"394 185 OFFCURVE",
"358 216 CURVE",
"460 857 LINE",
"482 867 OFFCURVE",
"560 907 OFFCURVE",
"658 907 CURVE SMOOTH",
"779 907 OFFCURVE",
"839 865 OFFCURVE",
"822 758 CURVE SMOOTH",
"753 323 LINE SMOOTH",
"736 215 OFFCURVE",
"645 168 OFFCURVE"
);
}
);
width = 1232;
}
);
unicode = 0062;
},
{
glyphname = c;
lastChange = "2014-01-29 21:29:48 -0800";
layers = (
{
anchors = (
{
name = bot;
position = "{475, 0}";
},
{
name = top;
position = "{678, 1060}";
}
);
layerId = "F85E8FEC-B3CD-4A54-BF30-AB1986ECE904";
name = Regular;
paths = (
{
closed = 1;
nodes = (
"492 -22 CURVE SMOOTH",
"780 -22 OFFCURVE",
"896 66 OFFCURVE",
"955 310 CURVE",
"781 310 LINE",
"742 150 OFFCURVE",
"701 122 OFFCURVE",
"515 122 CURVE SMOOTH",
"363 122 OFFCURVE",
"280 176 OFFCURVE",
"304 328 CURVE SMOOTH",
"370 743 LINE SMOOTH",
"392 884 OFFCURVE",
"481 936 OFFCURVE",
"643 936 CURVE SMOOTH",
"819 936 OFFCURVE",
"871 901 OFFCURVE",
"841 707 CURVE",
"1023 724 LINE",
"1068 1009 OFFCURVE",
"915 1080 OFFCURVE",
"661 1080 CURVE SMOOTH",
"398 1080 OFFCURVE",
"214 948 OFFCURVE",
"183 748 CURVE SMOOTH",
"119 344 LINE SMOOTH",
"88 148 OFFCURVE",
"176 -22 OFFCURVE"
);
}
);
width = 1106;
},
{
anchors = (
{
name = bot;
position = "{506, 0}";
},
{
name = top;
position = "{697, 1074}";
}
);
layerId = "C6C96970-2BBD-4A47-8C90-C83F37B7F23D";
name = Bold;
paths = (
{
closed = 1;
nodes = (
"500 -23 CURVE SMOOTH",
"845 -23 OFFCURVE",
"948 77 OFFCURVE",
"1002 380 CURVE",
"748 380 LINE",
"719 197 OFFCURVE",
"682 168 OFFCURVE",
"537 168 CURVE SMOOTH",
"413 168 OFFCURVE",
"360 207 OFFCURVE",
"378 322 CURVE SMOOTH",
"447 756 LINE SMOOTH",
"464 867 OFFCURVE",
"538 907 OFFCURVE",
"654 907 CURVE SMOOTH",
"797 907 OFFCURVE",
"824 874 OFFCURVE",
"794 679 CURVE",
"1054 699 LINE",
"1102 1007 OFFCURVE",
"966 1097 OFFCURVE",
"674 1097 CURVE SMOOTH",
"393 1097 OFFCURVE",
"209 972 OFFCURVE",
"175 757 CURVE SMOOTH",
"107 327 LINE SMOOTH",
"77 140 OFFCURVE",
"133 -23 OFFCURVE"
);
}
);
width = 1158;
}
);
unicode = 0063;
},
{
glyphname = d;
lastChange = "2014-01-29 21:29:48 -0800";
layers = (
{
anchors = (
{
name = caron.alt;
position = "{876, 1060}";
},
{
name = mid;
position = "{1001, 1275}";
},
{
name = top;
position = "{634, 1060}";
}
);
layerId = "F85E8FEC-B3CD-4A54-BF30-AB1986ECE904";
name = Regular;
paths = (
{
closed = 1;
nodes = (
"447 -22 CURVE SMOOTH",
"556 -22 OFFCURVE",
"679 22 OFFCURVE",
"749 70 CURVE",
"768 0 LINE",
"896 0 LINE",
"1135 1506 LINE",
"947 1506 LINE",
"873 1040 LINE",
"811 1064 OFFCURVE",
"712 1080 OFFCURVE",
"645 1080 CURVE SMOOTH",
"337 1080 OFFCURVE",
"181 948 OFFCURVE",
"147 735 CURVE SMOOTH",
"84 335 LINE SMOOTH",
"51 131 OFFCURVE",
"142 -22 OFFCURVE"
);
},
{
closed = 1;
nodes = (
"482 126 CURVE SMOOTH",
"344 126 OFFCURVE",
"248 189 OFFCURVE",
"269 321 CURVE SMOOTH",
"338 756 LINE SMOOTH",
"359 886 OFFCURVE",
"476 936 OFFCURVE",
"624 936 CURVE SMOOTH",
"712 936 OFFCURVE",
"798 919 OFFCURVE",
"850 892 CURVE",
"738 189 LINE",
"691 163 OFFCURVE",
"589 126 OFFCURVE"
);
}
);
width = 1200;
},
{
anchors = (
{
name = caron.alt;
position = "{1011, 1074}";
},
{
name = mid;
position = "{1016, 1313}";
},
{
name = top;
position = "{600, 1074}";
}
);
layerId = "C6C96970-2BBD-4A47-8C90-C83F37B7F23D";
name = Bold;
paths = (
{
closed = 1;
nodes = (
"445 -23 CURVE SMOOTH",
"555 -23 OFFCURVE",
"659 14 OFFCURVE",
"737 63 CURVE",
"756 0 LINE",
"940 0 LINE",
"1180 1516 LINE",
"908 1516 LINE",
"835 1059 LINE",
"776 1082 OFFCURVE",
"703 1097 OFFCURVE",
"642 1097 CURVE SMOOTH",
"329 1097 OFFCURVE",
"172 951 OFFCURVE",
"141 753 CURVE SMOOTH",
"73 324 LINE SMOOTH",
"39 108 OFFCURVE",
"154 -23 OFFCURVE"
);
},
{
closed = 1;
nodes = (
"507 168 CURVE SMOOTH",
"387 168 OFFCURVE",
"327 211 OFFCURVE",
"344 320 CURVE SMOOTH",
"414 759 LINE SMOOTH",
"431 868 OFFCURVE",
"510 907 OFFCURVE",
"634 907 CURVE SMOOTH",
"710 907 OFFCURVE",
"772 887 OFFCURVE",
"806 870 CURVE",
"701 211 LINE",
"655 186 OFFCURVE",
"582 168 OFFCURVE"
);
}
);
width = 1228;
}
);
unicode = 0064;
},
{
glyphname = eth;
lastChange = "2014-01-29 21:29:48 -0800";
layers = (
{
layerId = "F85E8FEC-B3CD-4A54-BF30-AB1986ECE904";
name = Regular;
paths = (
{
closed = 1;
nodes = (
"457 -20 CURVE SMOOTH",
"840 -20 OFFCURVE",
"910 170 OFFCURVE",
"941 365 CURVE SMOOTH",
"1000 736 LINE SMOOTH",
"1051 1058 OFFCURVE",
"1005 1312 OFFCURVE",
"793 1427 CURVE",
"913 1565 LINE",
"827 1617 LINE",
"702 1470 LINE",
"548 1508 OFFCURVE",
"409 1488 OFFCURVE",
"345 1477 CURVE",
"297 1349 LINE",
"365 1355 OFFCURVE",
"477 1363 OFFCURVE",
"592 1341 CURVE",
"432 1152 LINE",
"519 1100 LINE",
"692 1304 LINE",
"804 1238 OFFCURVE",
"872 1112 OFFCURVE",
"840 911 CURVE",
"816 934 OFFCURVE",
"721 975 OFFCURVE",
"605 975 CURVE SMOOTH",
"342 975 OFFCURVE",
"158 846 OFFCURVE",
"126 646 CURVE SMOOTH",
"73 314 LINE SMOOTH",
"42 118 OFFCURVE",
"141 -20 OFFCURVE"
);
},
{
closed = 1;
nodes = (
"480 121 CURVE SMOOTH",
"333 121 OFFCURVE",
"237 166 OFFCURVE",
"259 308 CURVE SMOOTH",
"314 652 LINE SMOOTH",
"335 783 OFFCURVE",
"446 833 OFFCURVE",
"592 833 CURVE SMOOTH",
"652 833 OFFCURVE",
"780 813 OFFCURVE",
"823 783 CURVE",
"755 359 LINE",
"738 229 OFFCURVE",
"713 121 OFFCURVE"
);
}
);
width = 1158;
},
{
layerId = "C6C96970-2BBD-4A47-8C90-C83F37B7F23D";
name = Bold;
paths = (
{
closed = 1;
nodes = (
"544 -23 CURVE SMOOTH",
"927 -23 OFFCURVE",
"1082 195 OFFCURVE",
"1124 460 CURVE SMOOTH",
"1136 536 LINE SMOOTH",
"1231 1137 OFFCURVE",
"1022 1376 OFFCURVE",
"784 1448 CURVE",
"882 1598 LINE",
"771 1655 LINE",
"659 1485 LINE",
"548 1509 OFFCURVE",
"440 1507 OFFCURVE",
"366 1502 CURVE",
"315 1335 LINE",
"384 1334 OFFCURVE",
"468 1333 OFFCURVE",
"551 1318 CURVE",
"450 1167 LINE",
"560 1110 LINE",
"676 1284 LINE",
"789 1250 OFFCURVE",
"892 1138 OFFCURVE",
"881 921 CURVE",
"857 944 OFFCURVE",
"712 975 OFFCURVE",
"646 975 CURVE SMOOTH",
"383 975 OFFCURVE",
"171 846 OFFCURVE",
"135 618 CURVE SMOOTH",
"91 342 LINE SMOOTH",
"55 118 OFFCURVE",
"193 -23 OFFCURVE"
);
},
{
closed = 1;
nodes = (
"576 178 CURVE SMOOTH",
"409 178 OFFCURVE",
"350 221 OFFCURVE",
"368 333 CURVE SMOOTH",
"412 612 LINE SMOOTH",
"432 743 OFFCURVE",
"527 793 OFFCURVE",
"673 793 CURVE SMOOTH",
"733 793 OFFCURVE",
"836 766 OFFCURVE",
"874 736 CURVE",
"876 654 OFFCURVE",
"859 497 OFFCURVE",
"849 428 CURVE SMOOTH",
"822 258 OFFCURVE",
"789 178 OFFCURVE"
);
}
);
width = 1312;
}
);
unicode = 00F0;
},
{
glyphname = e;
lastChange = "2014-01-29 21:29:47 -0800";
layers = (
{
anchors = (
{
name = bot;
position = "{505, 0}";
},
{
name = ogonek;
position = "{613, 0}";
},
{
name = top;
position = "{668, 1060}";
}
);
layerId = "F85E8FEC-B3CD-4A54-BF30-AB1986ECE904";
name = Regular;
paths = (
{
closed = 1;
nodes = (
"502 -22 CURVE SMOOTH",
"796 -22 OFFCURVE",
"899 32 OFFCURVE",
"965 282 CURVE",
"799 282 LINE",
"758 122 OFFCURVE",
"702 122 OFFCURVE",
"525 122 CURVE SMOOTH",
"325 122 OFFCURVE",
"282 185 OFFCURVE",
"309 357 CURVE SMOOTH",
"332 506 LINE",
"1002 506 LINE",
"1042 758 LINE SMOOTH",
"1074 959 OFFCURVE",
"960 1080 OFFCURVE",
"669 1080 CURVE SMOOTH",
"365 1080 OFFCURVE",
"214 943 OFFCURVE",
"182 743 CURVE SMOOTH",
"123 374 LINE SMOOTH",
"82 110 OFFCURVE",
"186 -22 OFFCURVE"
);
},
{
closed = 1;
nodes = (
"352 633 LINE",
"373 760 LINE SMOOTH",
"393 891 OFFCURVE",
"496 936 OFFCURVE",
"646 936 CURVE SMOOTH",
"791 936 OFFCURVE",
"884 906 OFFCURVE",
"863 778 CURVE SMOOTH",
"840 633 LINE"
);
}
);
width = 1138;
},
{
anchors = (
{
name = bot;
position = "{517, 0}";
},
{
name = ogonek;
position = "{619, 0}";
},
{
name = top;
position = "{703, 1074}";
}
);
layerId = "C6C96970-2BBD-4A47-8C90-C83F37B7F23D";
name = Bold;
paths = (
{
closed = 1;
nodes = (
"513 -23 CURVE SMOOTH",
"793 -23 OFFCURVE",
"966 32 OFFCURVE",
"1021 330 CURVE",
"769 330 LINE",
"739 168 OFFCURVE",
"673 166 OFFCURVE",
"548 166 CURVE SMOOTH",
"418 166 OFFCURVE",
"356 183 OFFCURVE",
"376 310 CURVE SMOOTH",
"404 485 LINE",
"1047 485 LINE",
"1088 745 LINE SMOOTH",
"1122 961 OFFCURVE",
"1018 1097 OFFCURVE",
"687 1097 CURVE SMOOTH",
"408 1097 OFFCURVE",
"209 974 OFFCURVE",
"175 755 CURVE SMOOTH",
"108 336 LINE SMOOTH",
"64 60 OFFCURVE",
"250 -23 OFFCURVE"
);
},
{
closed = 1;
nodes = (
"430 651 LINE",
"449 772 LINE SMOOTH",
"467 886 OFFCURVE",
"555 907 OFFCURVE",
"664 907 CURVE SMOOTH",
"773 907 OFFCURVE",
"855 896 OFFCURVE",
"836 777 CURVE SMOOTH",
"816 651 LINE"
);
}
);
width = 1181;
}
);
unicode = 0065;
},
{
glyphname = f;
lastChange = "2014-01-29 21:29:48 -0800";
layers = (
{
anchors = (
{
name = top;
position = "{498, 1446}";
}
);
layerId = "F85E8FEC-B3CD-4A54-BF30-AB1986ECE904";
name = Regular;
paths = (
{
closed = 1;
nodes = (
"160 0 LINE",
"348 0 LINE",
"493 918 LINE",
"750 918 LINE",
"773 1060 LINE",
"516 1060 LINE",
"544 1239 LINE SMOOTH",
"556 1315 OFFCURVE",
"603 1372 OFFCURVE",
"718 1372 CURVE SMOOTH",
"834 1372 LINE",
"843 1505 LINE",
"724 1505 LINE SMOOTH",
"506 1505 OFFCURVE",
"385 1419 OFFCURVE",
"353 1221 CURVE SMOOTH",
"328 1060 LINE",
"151 1060 LINE",
"128 918 LINE",
"305 918 LINE"
);
}
);
width = 782;
},
{
anchors = (
{
name = top;
position = "{536, 1476}";
}
);
layerId = "C6C96970-2BBD-4A47-8C90-C83F37B7F23D";
name = Bold;
paths = (
{
closed = 1;
nodes = (
"109 0 LINE",
"381 0 LINE",
"524 901 LINE",
"738 901 LINE",
"765 1074 LINE",
"551 1074 LINE",
"569 1186 LINE SMOOTH",
"580 1258 OFFCURVE",
"612 1327 OFFCURVE",
"730 1327 CURVE SMOOTH",
"814 1327 LINE",
"837 1516 LINE",
"711 1516 LINE SMOOTH",
"456 1516 OFFCURVE",
"328 1380 OFFCURVE",
"287 1125 CURVE SMOOTH",
"279 1074 LINE",
"136 1074 LINE",
"109 901 LINE",
"252 901 LINE"
);
}
);
width = 778;
}
);
unicode = 0066;
},
{
glyphname = g;
lastChange = "2014-01-29 21:29:48 -0800";
layers = (
{
anchors = (
{
name = top;
position = "{680, 1060}";
}
);
layerId = "F85E8FEC-B3CD-4A54-BF30-AB1986ECE904";
name = Regular;
paths = (
{
closed = 1;
nodes = (
"485 -408 CURVE SMOOTH",
"765 -408 OFFCURVE",
"921 -223 OFFCURVE",
"961 25 CURVE SMOOTH",
"1125 1060 LINE",
"937 1060 LINE",
"923 975 LINE",
"901 1025 OFFCURVE",
"776 1080 OFFCURVE",
"668 1080 CURVE SMOOTH",
"392 1080 OFFCURVE",
"244 941 OFFCURVE",
"210 728 CURVE SMOOTH",
"155 379 LINE SMOOTH",
"120 159 OFFCURVE",
"232 40 OFFCURVE",
"503 40 CURVE SMOOTH",
"576 40 OFFCURVE",
"718 60 OFFCURVE",
"787 116 CURVE",
"764 -31 LINE SMOOTH",
"739 -188 OFFCURVE",
"654 -265 OFFCURVE",
"469 -265 CURVE SMOOTH",
"369 -265 OFFCURVE",
"260 -248 OFFCURVE",
"206 -227 CURVE",
"141 -368 LINE",
"215 -397 OFFCURVE",
"342 -408 OFFCURVE"
);
},
{
closed = 1;
nodes = (
"555 184 CURVE SMOOTH",
"417 184 OFFCURVE",
"318 223 OFFCURVE",
"338 350 CURVE SMOOTH",
"401 748 LINE SMOOTH",
"422 878 OFFCURVE",
"525 936 OFFCURVE",
"673 936 CURVE SMOOTH",
"840 936 OFFCURVE",
"908 882 OFFCURVE",
"894 790 CURVE SMOOTH",
"811 264 LINE",
"777 240 OFFCURVE",
"695 184 OFFCURVE"
);
}
);
width = 1182;
},
{
anchors = (
{
name = top;
position = "{696, 1074}";
}
);
layerId = "C6C96970-2BBD-4A47-8C90-C83F37B7F23D";
name = Bold;
paths = (
{
closed = 1;
nodes = (
"468 -441 CURVE SMOOTH",
"813 -441 OFFCURVE",
"979 -277 OFFCURVE",
"1021 -12 CURVE SMOOTH",
"1193 1075 LINE",
"991 1075 LINE",
"956 997 LINE",
"898 1052 OFFCURVE",
"789 1097 OFFCURVE",
"671 1097 CURVE SMOOTH",
"368 1097 OFFCURVE",
"236 935 OFFCURVE",
"207 751 CURVE SMOOTH",
"146 366 LINE SMOOTH",
"113 155 OFFCURVE",
"253 32 OFFCURVE",
"512 32 CURVE SMOOTH",
"594 32 OFFCURVE",
"695 50 OFFCURVE",
"765 88 CURVE",
"746 -30 LINE SMOOTH",
"723 -178 OFFCURVE",
"646 -242 OFFCURVE",
"490 -242 CURVE SMOOTH",
"407 -242 OFFCURVE",
"304 -228 OFFCURVE",
"207 -200 CURVE",
"122 -385 LINE",
"191 -421 OFFCURVE",
"335 -441 OFFCURVE"
);
},
{
closed = 1;
nodes = (
"586 213 CURVE SMOOTH",
"473 213 OFFCURVE",
"399 248 OFFCURVE",
"416 356 CURVE SMOOTH",
"480 757 LINE SMOOTH",
"497 865 OFFCURVE",
"572 907 OFFCURVE",
"696 907 CURVE SMOOTH",
"819 907 OFFCURVE",
"887 860 OFFCURVE",
"883 832 CURVE SMOOTH",
"792 261 LINE",
"751 234 OFFCURVE",
"678 213 OFFCURVE"
);
}
);
width = 1243;
}
);
unicode = 0067;
},
{
glyphname = h;
lastChange = "2014-01-29 21:29:48 -0800";
layers = (
{
anchors = (
{
name = mid;
position = "{368, 1276}";
},
{
name = top;
position = "{736, 1060}";
}
);
layerId = "F85E8FEC-B3CD-4A54-BF30-AB1986ECE904";
name = Regular;
paths = (
{
closed = 1;
nodes = (
"67 0 LINE",
"255 0 LINE",
"375 758 LINE SMOOTH",
"391 860 OFFCURVE",
"487 936 OFFCURVE",
"671 936 CURVE SMOOTH",
"802 936 OFFCURVE",
"883 888 OFFCURVE",
"867 783 CURVE SMOOTH",
"743 0 LINE",
"931 0 LINE",
"1053 773 LINE SMOOTH",
"1080 941 OFFCURVE",
"1003 1080 OFFCURVE",
"742 1080 CURVE SMOOTH",
"588 1080 OFFCURVE",
"480 1032 OFFCURVE",
"407 960 CURVE",
"493 1505 LINE",
"305 1505 LINE"
);
}
);
width = 1224;
},
{
anchors = (
{
name = top;
position = "{906, 1305}";
}
);
layerId = "C6C96970-2BBD-4A47-8C90-C83F37B7F23D";
name = Bold;
paths = (
{
closed = 1;
nodes = (
"50 0 LINE",
"322 0 LINE",
"439 738 LINE SMOOTH",
"455 842 OFFCURVE",
"579 894 OFFCURVE",
"677 894 CURVE SMOOTH",
"762 894 OFFCURVE",
"856 869 OFFCURVE",
"838 756 CURVE SMOOTH",
"718 0 LINE",
"990 0 LINE",
"1116 795 LINE SMOOTH",
"1145 976 OFFCURVE",
"1038 1097 OFFCURVE",
"832 1097 CURVE SMOOTH",
"683 1097 OFFCURVE",
"534 1045 OFFCURVE",
"476 970 CURVE",
"562 1515 LINE",
"290 1515 LINE"
);
}
);
width = 1272;
}
);
unicode = 0068;
},
{
glyphname = hbar;
lastChange = "2014-01-29 21:29:48 -0800";
layers = (
{
components = (
{
name = h;
transform = "{1, 0, 0, 1, 0, 0}";
}
);
layerId = "F85E8FEC-B3CD-4A54-BF30-AB1986ECE904";
name = Regular;
paths = (
{
closed = 1;
nodes = (
"108 1249 LINE",
"923 1249 LINE",
"942 1373 LINE",
"127 1373 LINE"
);
}
);
width = 1224;
},
{
components = (
{
name = h;
transform = "{1, 0, 0, 1, 0, 0}";
}
);
layerId = "C6C96970-2BBD-4A47-8C90-C83F37B7F23D";
name = Bold;
paths = (
{
closed = 1;
nodes = (
"78 1221 LINE",
"808 1221 LINE",
"831 1364 LINE",
"101 1364 LINE"
);
}
);
width = 1254;
}
);
unicode = 0127;
},
{
glyphname = dotlessi;
lastChange = "2014-01-29 21:29:48 -0800";
layers = (
{
anchors = (
{
name = ogonek;
position = "{220, 0}";
},
{
name = top;
position = "{379, 1060}";
}
);
layerId = "F85E8FEC-B3CD-4A54-BF30-AB1986ECE904";
name = Regular;
paths = (
{
closed = 1;
nodes = (
"108 0 LINE",
"296 0 LINE",
"464 1060 LINE",
"276 1060 LINE"
);
}
);
width = 556;
},
{
anchors = (
{
name = ogonek;
position = "{224, 0}";
},
{
name = top;
position = "{388, 1074}";
}
);
layerId = "C6C96970-2BBD-4A47-8C90-C83F37B7F23D";
name = Bold;
paths = (
{
closed = 1;
nodes = (
"85 0 LINE",
"336 0 LINE",
"506 1074 LINE",
"255 1074 LINE"
);
}
);
width = 570;
}
);
unicode = 0131;
},
{
glyphname = dotlessj;
lastChange = "2014-01-29 21:29:48 -0800";
layers = (
{
anchors = (
{
name = top;
position = "{443, 1060}";
}
);
layerId = "F85E8FEC-B3CD-4A54-BF30-AB1986ECE904";
name = Regular;
paths = (
{
closed = 1;
nodes = (
"-85 -353 LINE",
"-19 -353 LINE SMOOTH",
"187 -353 OFFCURVE",
"311 -305 OFFCURVE",
"360 7 CURVE SMOOTH",
"527 1060 LINE",
"339 1060 LINE",
"170 -4 LINE SMOOTH",
"143 -174 OFFCURVE",
"83 -197 OFFCURVE",
"-50 -197 CURVE SMOOTH",
"-79 -197 LINE"
);
}
);
width = 595;
},
{
anchors = (
{
name = top;
position = "{480, 1074}";
}
);
layerId = "C6C96970-2BBD-4A47-8C90-C83F37B7F23D";
name = Bold;
paths = (
{
closed = 1;
nodes = (
"-95 -329 LINE",
"14 -329 LINE SMOOTH",
"281 -329 OFFCURVE",
"411 -183 OFFCURVE",
"445 30 CURVE SMOOTH",
"610 1074 LINE",
"337 1074 LINE",
"174 43 LINE SMOOTH",
"161 -39 OFFCURVE",
"115 -135 OFFCURVE",
"-25 -135 CURVE SMOOTH",
"-70 -135 LINE"
);
}
);
width = 673;
}
);
unicode = 0237;
},
{
glyphname = k;
lastChange = "2014-01-29 21:29:48 -0800";
layers = (
{
anchors = (
{
name = bot;
position = "{507, 0}";
},
{
name = top;
position = "{663, 1060}";
}
);
layerId = "F85E8FEC-B3CD-4A54-BF30-AB1986ECE904";
name = Regular;
paths = (
{
closed = 1;
nodes = (
"67 0 LINE",
"255 0 LINE",
"308 334 LINE",
"492 492 LINE",
"794 0 LINE",
"1011 0 LINE",
"631 594 LINE",
"1136 1060 LINE",
"930 1060 LINE",
"338 524 LINE",
"493 1506 LINE",
"305 1506 LINE"
);
}
);
width = 1145;
},
{
anchors = (
{
name = bot;
position = "{544, 0}";
},
{
name = top;
position = "{876, 1305}";
}
);
layerId = "C6C96970-2BBD-4A47-8C90-C83F37B7F23D";
name = Bold;
paths = (
{
closed = 1;
nodes = (
"50 0 LINE",
"322 0 LINE",
"381 374 LINE",
"521 497 LINE",
"778 0 LINE",
"1075 0 LINE",
"750 611 LINE",
"1227 1074 LINE",
"917 1074 LINE",
"417 602 LINE",
"562 1516 LINE",
"290 1516 LINE"
);
}
);
width = 1211;
}
);
unicode = 006B;
},
{
glyphname = kgreenlandic;
lastChange = "2014-01-29 21:29:48 -0800";
layers = (
{
layerId = "F85E8FEC-B3CD-4A54-BF30-AB1986ECE904";
name = Regular;
paths = (
{
closed = 1;
nodes = (
"102 0 LINE",
"290 0 LINE",
"346 354 LINE",
"516 498 LINE",
"821 0 LINE",
"1038 0 LINE",
"673 583 LINE",
"1163 1060 LINE",
"955 1060 LINE",
"757 877 OFFCURVE",
"570 692 OFFCURVE",
"371 510 CURVE",
"458 1060 LINE",
"270 1060 LINE"
);
}
);
width = 1148;
},
{
layerId = "C6C96970-2BBD-4A47-8C90-C83F37B7F23D";
name = Bold;
paths = (
{
closed = 1;
nodes = (
"86 0 LINE",
"359 0 LINE",
"420 385 LINE",
"531 483 LINE",
"779 0 LINE",
"1105 0 LINE",
"782 605 LINE",
"1254 1074 LINE",
"930 1074 LINE",
"869 1018 OFFCURVE",
"515 657 OFFCURVE",
"454 602 CURVE",
"529 1074 LINE",
"256 1074 LINE"
);
}
);
width = 1213;
}
);
unicode = 0138;
},
{
glyphname = l;
lastChange = "2014-01-29 21:29:48 -0800";
layers = (
{
anchors = (
{
name = bot;
position = "{261, 0}";
},
{
name = caron.alt;
position = "{283, 1060}";
},
{
name = top;
position = "{421, 1506}";
}
);
layerId = "F85E8FEC-B3CD-4A54-BF30-AB1986ECE904";
name = Regular;
paths = (
{
closed = 1;
nodes = (
"410 -8 CURVE SMOOTH",
"464 -8 LINE",
"511 150 LINE",
"478 150 LINE SMOOTH",
"321 150 OFFCURVE",
"288 183 OFFCURVE",
"316 356 CURVE SMOOTH",
"498 1505 LINE",
"310 1505 LINE",
"128 358 LINE SMOOTH",
"79 49 OFFCURVE",
"178 -8 OFFCURVE"
);
}
);
width = 692;
},
{
anchors = (
{
name = bot;
position = "{353, 0}";
},
{
name = caron.alt;
position = "{376, 1074}";
},
{
name = mid;
position = "{340, 941}";
},
{
name = top;
position = "{456, 1513}";
}
);
layerId = "C6C96970-2BBD-4A47-8C90-C83F37B7F23D";
name = Bold;
paths = (
{
closed = 1;
nodes = (
"412 -12 CURVE SMOOTH",
"526 -12 LINE",
"579 190 LINE",
"545 190 LINE SMOOTH",
"399 190 OFFCURVE",
"361 239 OFFCURVE",
"380 357 CURVE SMOOTH",
"563 1515 LINE",
"291 1515 LINE",
"107 353 LINE SMOOTH",
"64 83 OFFCURVE",
"173 -12 OFFCURVE"
);
}
);
width = 734;
}
);
unicode = 006C;
},
{
glyphname = lslash;
lastChange = "2014-01-29 21:29:48 -0800";
layers = (
{
components = (
{
name = l;
transform = "{1, 0, 0, 1, 0, 0}";
}
);
layerId = "F85E8FEC-B3CD-4A54-BF30-AB1986ECE904";
name = Regular;
paths = (
{
closed = 1;
nodes = (
"31 616 LINE",
"626 887 LINE",
"646 1011 LINE",
"51 740 LINE"
);
}
);
width = 708;
},
{
components = (
{
name = l;
transform = "{1, 0, 0, 1, 0, 0}";
}
);
layerId = "C6C96970-2BBD-4A47-8C90-C83F37B7F23D";
name = Bold;
paths = (
{
closed = 1;
nodes = (
"14 680 LINE",
"625 915 LINE",
"648 1059 LINE",
"36 823 LINE"
);
}
);
width = 708;
}
);
unicode = 0142;
},
{
glyphname = m;
lastChange = "2014-01-29 21:29:48 -0800";
layers = (
{
anchors = (
{
name = top;
position = "{1076, 1060}";
}
);
layerId = "F85E8FEC-B3CD-4A54-BF30-AB1986ECE904";
name = Regular;
paths = (
{
closed = 1;
nodes = (
"100 0 LINE",
"288 0 LINE",
"408 755 LINE SMOOTH",
"424 857 OFFCURVE",
"509 936 OFFCURVE",
"693 936 CURVE SMOOTH",
"824 936 OFFCURVE",
"899 886 OFFCURVE",
"882 781 CURVE SMOOTH",
"758 0 LINE",
"946 0 LINE",
"1066 755 LINE SMOOTH",
"1082 857 OFFCURVE",
"1167 936 OFFCURVE",
"1351 936 CURVE SMOOTH",
"1482 936 OFFCURVE",
"1551 886 OFFCURVE",
"1534 781 CURVE SMOOTH",
"1410 0 LINE",
"1598 0 LINE",
"1720 770 LINE SMOOTH",
"1747 938 OFFCURVE",
"1683 1080 OFFCURVE",
"1422 1080 CURVE SMOOTH",
"1268 1080 OFFCURVE",
"1160 1031 OFFCURVE",
"1053 941 CURVE",
"1016 1024 OFFCURVE",
"928 1080 OFFCURVE",
"764 1080 CURVE SMOOTH",
"610 1080 OFFCURVE",
"513 1029 OFFCURVE",
"440 957 CURVE",
"456 1060 LINE",
"268 1060 LINE"
);
}
);
width = 1860;
},
{
anchors = (
{
name = top;
position = "{1145, 1074}";
}
);
layerId = "C6C96970-2BBD-4A47-8C90-C83F37B7F23D";
name = Bold;
paths = (
{
closed = 1;
nodes = (
"81 0 LINE",
"353 0 LINE",
"470 739 LINE SMOOTH",
"487 844 OFFCURVE",
"622 897 OFFCURVE",
"720 897 CURVE SMOOTH",
"805 897 OFFCURVE",
"877 875 OFFCURVE",
"859 762 CURVE SMOOTH",
"738 0 LINE",
"1010 0 LINE",
"1129 750 LINE",
"1152 846 OFFCURVE",
"1283 897 OFFCURVE",
"1380 897 CURVE SMOOTH",
"1464 897 OFFCURVE",
"1530 875 OFFCURVE",
"1512 762 CURVE SMOOTH",
"1391 0 LINE",
"1663 0 LINE",
"1789 794 LINE SMOOTH",
"1818 975 OFFCURVE",
"1702 1097 OFFCURVE",
"1496 1097 CURVE SMOOTH",
"1326 1097 OFFCURVE",
"1208 1042 OFFCURVE",
"1118 964 CURVE",
"1077 1056 OFFCURVE",
"982 1097 OFFCURVE",
"844 1097 CURVE SMOOTH",
"665 1097 OFFCURVE",
"544 1011 OFFCURVE",
"508 978 CURVE",
"523 1074 LINE",
"251 1074 LINE"
);
}
);
width = 1912;
}
);
unicode = 006D;
},
{
glyphname = n;
lastChange = "2014-01-29 21:29:48 -0800";
layers = (
{
anchors = (
{
name = bot;
position = "{527, 0}";
},
{
name = top;
position = "{766, 1060}";
}
);
layerId = "F85E8FEC-B3CD-4A54-BF30-AB1986ECE904";
name = Regular;
paths = (
{
closed = 1;
nodes = (
"100 0 LINE",
"288 0 LINE",
"408 755 LINE SMOOTH",
"424 857 OFFCURVE",
"519 936 OFFCURVE",
"703 936 CURVE SMOOTH",
"834 936 OFFCURVE",
"917 886 OFFCURVE",
"900 781 CURVE SMOOTH",
"776 0 LINE",
"964 0 LINE",
"1086 770 LINE SMOOTH",
"1113 938 OFFCURVE",
"1035 1080 OFFCURVE",
"774 1080 CURVE SMOOTH",
"620 1080 OFFCURVE",
"513 1029 OFFCURVE",
"440 957 CURVE",
"456 1060 LINE",
"268 1060 LINE"
);
}
);
width = 1224;
},
{
anchors = (
{
name = bot;
position = "{577, 0}";
},
{
name = top;
position = "{762, 1074}";
}
);
layerId = "C6C96970-2BBD-4A47-8C90-C83F37B7F23D";
name = Bold;
paths = (
{
closed = 1;
nodes = (
"81 0 LINE",
"353 0 LINE",
"469 735 LINE SMOOTH",
"486 840 OFFCURVE",
"606 894 OFFCURVE",
"704 894 CURVE SMOOTH",
"789 894 OFFCURVE",
"888 868 OFFCURVE",
"871 755 CURVE SMOOTH",
"751 0 LINE",
"1023 0 LINE",
"1145 770 LINE SMOOTH",
"1174 951 OFFCURVE",
"1091 1090 OFFCURVE",
"886 1098 CURVE SMOOTH",
"668 1107 OFFCURVE",
"534 999 OFFCURVE",
"508 979 CURVE",
"523 1074 LINE",
"251 1074 LINE"
);
}
);
width = 1272;
}
);
unicode = 006E;
},
{
glyphname = eng;
lastChange = "2014-01-29 21:29:48 -0800";
layers = (
{
layerId = "F85E8FEC-B3CD-4A54-BF30-AB1986ECE904";
name = Regular;
paths = (
{
closed = 1;
nodes = (
"530 -316 LINE",
"876 -316 OFFCURVE",
"964 -162 OFFCURVE",
"1024 219 CURVE SMOOTH",
"1111 770 LINE SMOOTH",
"1138 938 OFFCURVE",
"1060 1080 OFFCURVE",
"799 1080 CURVE SMOOTH",
"645 1080 OFFCURVE",
"538 1029 OFFCURVE",
"465 957 CURVE",
"481 1060 LINE",
"293 1060 LINE",
"125 0 LINE",
"313 0 LINE",
"433 755 LINE SMOOTH",
"449 857 OFFCURVE",
"544 936 OFFCURVE",
"728 936 CURVE SMOOTH",
"859 936 OFFCURVE",
"942 886 OFFCURVE",
"925 781 CURVE SMOOTH",
"835 212 LINE SMOOTH",
"786 -100 OFFCURVE",
"773 -175 OFFCURVE",
"525 -175 CURVE"
);
}
);
width = 1226;
},
{
layerId = "C6C96970-2BBD-4A47-8C90-C83F37B7F23D";
name = Bold;
paths = (
{
closed = 1;
nodes = (
"437 -365 LINE",
"879 -365 OFFCURVE",
"1012 -202 OFFCURVE",
"1072 179 CURVE SMOOTH",
"1170 794 LINE SMOOTH",
"1198 975 OFFCURVE",
"1078 1097 OFFCURVE",
"872 1097 CURVE SMOOTH",
"723 1097 OFFCURVE",
"584 1030 OFFCURVE",
"525 948 CURVE",
"545 1074 LINE",
"272 1074 LINE",
"102 0 LINE",
"375 0 LINE",
"495 758 LINE SMOOTH",
"512 863 OFFCURVE",
"629 907 OFFCURVE",
"728 907 CURVE SMOOTH",
"812 907 OFFCURVE",
"911 881 OFFCURVE",
"893 768 CURVE SMOOTH",
"798 172 LINE SMOOTH",
"749 -140 OFFCURVE",
"687 -153 OFFCURVE",
"439 -175 CURVE"
);
}
);
width = 1254;
}
);
unicode = 014B;
},
{
glyphname = o;
lastChange = "2014-01-29 21:29:48 -0800";
layers = (
{
anchors = (
{
name = bot;
position = "{510, 0}";
},
{
name = ogonek;
position = "{551, 0}";
},
{
name = top;
position = "{669, 1060}";
}
);
layerId = "F85E8FEC-B3CD-4A54-BF30-AB1986ECE904";
name = Regular;
paths = (
{
closed = 1;
nodes = (
"523 122 CURVE SMOOTH",
"373 122 OFFCURVE",
"279 168 OFFCURVE",
"300 299 CURVE SMOOTH",
"372 758 LINE SMOOTH",
"393 889 OFFCURVE",
"501 936 OFFCURVE",
"651 936 CURVE SMOOTH",
"798 936 OFFCURVE",
"895 889 OFFCURVE",
"874 758 CURVE SMOOTH",
"802 299 LINE SMOOTH",
"781 168 OFFCURVE",
"670 122 OFFCURVE"
);
},
{
closed = 1;
nodes = (
"500 -22 CURVE SMOOTH",
"816 -22 OFFCURVE",
"961 119 OFFCURVE",
"992 315 CURVE SMOOTH",
"1060 742 LINE SMOOTH",
"1091 938 OFFCURVE",
"990 1080 OFFCURVE",
"674 1080 CURVE SMOOTH",
"355 1080 OFFCURVE",
"213 938 OFFCURVE",
"182 742 CURVE SMOOTH",
"114 315 LINE SMOOTH",
"83 119 OFFCURVE",
"181 -22 OFFCURVE"
);
}
);
width = 1174;
},
{
anchors = (
{
name = bot;
position = "{523, 0}";
},
{
name = ogonek;
position = "{588, 0}";
},
{
name = top;
position = "{693, 1074}";
}
);
layerId = "C6C96970-2BBD-4A47-8C90-C83F37B7F23D";
name = Bold;
paths = (
{
closed = 1;
nodes = (
"547 166 CURVE SMOOTH",
"422 166 OFFCURVE",
"359 204 OFFCURVE",
"377 313 CURVE SMOOTH",
"447 760 LINE SMOOTH",
"465 869 OFFCURVE",
"547 907 OFFCURVE",
"665 907 CURVE SMOOTH",
"788 907 OFFCURVE",
"853 869 OFFCURVE",
"835 760 CURVE SMOOTH",
"765 313 LINE SMOOTH",
"747 204 OFFCURVE",
"663 166 OFFCURVE"
);
},
{
closed = 1;
nodes = (
"517 -23 CURVE SMOOTH",
"866 -23 OFFCURVE",
"1005 112 OFFCURVE",
"1038 325 CURVE SMOOTH",
"1105 748 LINE SMOOTH",
"1140 967 OFFCURVE",
"988 1097 OFFCURVE",
"695 1097 CURVE SMOOTH",
"400 1097 OFFCURVE",
"208 967 OFFCURVE",
"173 748 CURVE SMOOTH",
"106 325 LINE SMOOTH",
"73 111 OFFCURVE",
"178 -23 OFFCURVE"
);
}
);
width = 1212;
}
);
unicode = 006F;
},
{
glyphname = oslash;
lastChange = "2014-01-29 21:29:48 -0800";
layers = (
{
anchors = (
{
name = top;
position = "{674, 1060}";
}
);
components = (
{
name = o;
transform = "{1, 0, 0, 1, 0, 0}";
}
);
layerId = "F85E8FEC-B3CD-4A54-BF30-AB1986ECE904";
name = Regular;
paths = (
{
closed = 1;
nodes = (
"246 -226 LINE",
"1013 1220 LINE",
"928 1251 LINE",
"159 -195 LINE"
);
}
);
width = 1174;
},
{
anchors = (
{
name = top;
position = "{686, 1074}";
}
);
components = (
{
name = o;
transform = "{1, 0, 0, 1, 0, 0}";
}
);
layerId = "C6C96970-2BBD-4A47-8C90-C83F37B7F23D";
name = Bold;
paths = (
{
closed = 1;
nodes = (
"249 -214 LINE",
"1011 1260 LINE",
"942 1281 LINE",
"180 -194 LINE"
);
}
);
width = 1180;
}
);
unicode = 00F8;
},
{
glyphname = oe;
lastChange = "2014-01-29 21:29:48 -0800";
layers = (
{
anchors = (
{
name = top;
position = "{783, 0}";
}
);
layerId = "F85E8FEC-B3CD-4A54-BF30-AB1986ECE904";
name = Regular;
paths = (
{
closed = 1;
nodes = (
"482 -20 CURVE SMOOTH",
"643 -20 OFFCURVE",
"743 34 OFFCURVE",
"818 122 CURVE",
"869 35 OFFCURVE",
"967 -20 OFFCURVE",
"1111 -20 CURVE SMOOTH",
"1401 -20 OFFCURVE",
"1510 73 OFFCURVE",
"1571 331 CURVE",
"1401 331 LINE",
"1359 148 OFFCURVE",
"1299 121 OFFCURVE",
"1133 121 CURVE SMOOTH",
"986 121 OFFCURVE",
"925 186 OFFCURVE",
"947 328 CURVE SMOOTH",
"975 506 LINE",
"1600 506 LINE",
"1640 758 LINE SMOOTH",
"1672 959 OFFCURVE",
"1561 1080 OFFCURVE",
"1285 1080 CURVE SMOOTH",
"1140 1080 OFFCURVE",
"1030 1043 OFFCURVE",
"950 950 CURVE",
"894 1043 OFFCURVE",
"794 1080 OFFCURVE",
"656 1080 CURVE SMOOTH",
"393 1080 OFFCURVE",
"216 947 OFFCURVE",
"184 747 CURVE SMOOTH",
"116 317 LINE SMOOTH",
"85 121 OFFCURVE",
"166 -20 OFFCURVE"
);
},
{
closed = 1;
nodes = (
"504 121 CURVE SMOOTH",
"357 121 OFFCURVE",
"281 170 OFFCURVE",
"302 301 CURVE SMOOTH",
"375 763 LINE SMOOTH",
"396 894 OFFCURVE",
"495 938 OFFCURVE",
"634 938 CURVE SMOOTH",
"779 938 OFFCURVE",
"848 888 OFFCURVE",
"828 763 CURVE SMOOTH",
"755 301 LINE SMOOTH",
"734 171 OFFCURVE",
"643 121 OFFCURVE"
);
},
{
closed = 1;
nodes = (
"995 633 LINE",
"1015 760 LINE SMOOTH",
"1036 891 OFFCURVE",
"1113 938 OFFCURVE",
"1263 938 CURVE SMOOTH",
"1408 938 OFFCURVE",
"1482 906 OFFCURVE",
"1461 778 CURVE SMOOTH",
"1438 633 LINE"
);
}
);
width = 1734;
},
{
layerId = "C6C96970-2BBD-4A47-8C90-C83F37B7F23D";
name = Bold;
paths = (
{
closed = 1;
nodes = (
"495 -23 CURVE SMOOTH",
"645 -23 OFFCURVE",
"753 22 OFFCURVE",
"834 90 CURVE",
"903 18 OFFCURVE",
"1008 -23 OFFCURVE",
"1133 -23 CURVE SMOOTH",
"1423 -23 OFFCURVE",
"1585 45 OFFCURVE",
"1641 357 CURVE",
"1387 357 LINE",
"1357 188 OFFCURVE",
"1290 166 OFFCURVE",
"1168 166 CURVE SMOOTH",
"1054 166 OFFCURVE",
"989 203 OFFCURVE",
"1008 321 CURVE SMOOTH",
"1038 512 LINE",
"1666 512 LINE",
"1703 745 LINE SMOOTH",
"1737 961 OFFCURVE",
"1635 1097 OFFCURVE",
"1309 1097 CURVE SMOOTH",
"1178 1097 OFFCURVE",
"1064 1061 OFFCURVE",
"973 977 CURVE",
"908 1060 OFFCURVE",
"805 1097 OFFCURVE",
"673 1097 CURVE SMOOTH",
"396 1097 OFFCURVE",
"193 970 OFFCURVE",
"158 749 CURVE SMOOTH",
"91 326 LINE SMOOTH",
"57 112 OFFCURVE",
"157 -23 OFFCURVE"
);
},
{
closed = 1;
nodes = (
"525 166 CURVE SMOOTH",
"402 166 OFFCURVE",
"344 205 OFFCURVE",
"362 314 CURVE SMOOTH",
"433 762 LINE SMOOTH",
"450 870 OFFCURVE",
"529 907 OFFCURVE",
"643 907 CURVE SMOOTH",
"766 907 OFFCURVE",
"822 869 OFFCURVE",
"805 762 CURVE SMOOTH",
"734 314 LINE SMOOTH",
"716 205 OFFCURVE",
"639 166 OFFCURVE"
);
},
{
closed = 1;
nodes = (
"1061 655 LINE",
"1077 760 LINE SMOOTH",
"1095 874 OFFCURVE",
"1177 907 OFFCURVE",
"1286 907 CURVE SMOOTH",
"1395 907 OFFCURVE",
"1468 884 OFFCURVE",
"1449 765 CURVE SMOOTH",
"1432 655 LINE"
);
}
);
width = 1780;
}
);
unicode = 0153;
},
{
glyphname = p;
lastChange = "2014-01-29 21:29:48 -0800";
layers = (
{
anchors = (
{
name = top;
position = "{763, 1060}";
}
);
layerId = "F85E8FEC-B3CD-4A54-BF30-AB1986ECE904";
name = Regular;
paths = (
{
closed = 1;
nodes = (
"68 -408 LINE",
"256 -408 LINE",
"326 34 LINE",
"373 8 OFFCURVE",
"448 -22 OFFCURVE",
"567 -22 CURVE SMOOTH",
"843 -22 OFFCURVE",
"1018 131 OFFCURVE",
"1051 344 CURVE SMOOTH",
"1112 729 LINE SMOOTH",
"1145 933 OFFCURVE",
"1037 1080 OFFCURVE",
"766 1080 CURVE SMOOTH",
"645 1080 OFFCURVE",
"522 1030 OFFCURVE",
"458 980 CURVE",
"449 1060 LINE",
"301 1060 LINE"
);
},
{
closed = 1;
nodes = (
"578 122 CURVE SMOOTH",
"469 122 OFFCURVE",
"393 152 OFFCURVE",
"349 179 CURVE",
"451 824 LINE",
"472 850 OFFCURVE",
"581 936 OFFCURVE",
"714 936 CURVE SMOOTH",
"852 936 OFFCURVE",
"947 871 OFFCURVE",
"927 744 CURVE SMOOTH",
"860 324 LINE SMOOTH",
"840 194 OFFCURVE",
"726 122 OFFCURVE"
);
}
);
width = 1198;
},
{
anchors = (
{
name = top;
position = "{816, 1074}";
}
);
layerId = "C6C96970-2BBD-4A47-8C90-C83F37B7F23D";
name = Bold;
paths = (
{
closed = 1;
nodes = (
"49 -410 LINE",
"321 -410 LINE",
"388 17 LINE",
"437 -6 OFFCURVE",
"502 -23 OFFCURVE",
"587 -23 CURVE SMOOTH",
"890 -23 OFFCURVE",
"1054 142 OFFCURVE",
"1083 326 CURVE SMOOTH",
"1151 751 LINE SMOOTH",
"1183 957 OFFCURVE",
"1056 1097 OFFCURVE",
"796 1097 CURVE SMOOTH",
"679 1097 OFFCURVE",
"569 1056 OFFCURVE",
"490 1004 CURVE",
"474 1074 LINE",
"284 1074 LINE"
);
},
{
closed = 1;
nodes = (
"594 166 CURVE SMOOTH",
"489 166 OFFCURVE",
"433 205 OFFCURVE",
"419 213 CURVE",
"519 841 LINE",
"555 872 OFFCURVE",
"633 907 OFFCURVE",
"720 907 CURVE SMOOTH",
"834 907 OFFCURVE",
"896 863 OFFCURVE",
"879 755 CURVE SMOOTH",
"810 320 LINE SMOOTH",
"793 211 OFFCURVE",
"718 166 OFFCURVE"
);
}
);
width = 1210;
}
);
unicode = 0070;
},
{
glyphname = thorn;
lastChange = "2014-01-29 21:29:48 -0800";
layers = (
{
layerId = "F85E8FEC-B3CD-4A54-BF30-AB1986ECE904";
name = Regular;
paths = (
{
closed = 1;
nodes = (
"25 -408 LINE",
"213 -408 LINE",
"283 34 LINE",
"330 8 OFFCURVE",
"405 -24 OFFCURVE",
"524 -24 CURVE SMOOTH",
"800 -24 OFFCURVE",
"978 131 OFFCURVE",
"1012 344 CURVE SMOOTH",
"1073 729 LINE SMOOTH",
"1105 933 OFFCURVE",
"993 1076 OFFCURVE",
"722 1076 CURVE SMOOTH",
"613 1076 OFFCURVE",
"503 1039 OFFCURVE",
"435 994 CURVE",
"517 1506 LINE",
"331 1506 LINE"
);
},
{
closed = 1;
nodes = (
"535 117 CURVE SMOOTH",
"426 117 OFFCURVE",
"350 152 OFFCURVE",
"306 179 CURVE",
"409 824 LINE",
"430 850 OFFCURVE",
"538 934 OFFCURVE",
"671 934 CURVE SMOOTH",
"809 934 OFFCURVE",
"907 869 OFFCURVE",
"887 742 CURVE SMOOTH",
"820 324 LINE SMOOTH",
"800 194 OFFCURVE",
"683 117 OFFCURVE"
);
}
);
width = 1194;
},
{
layerId = "C6C96970-2BBD-4A47-8C90-C83F37B7F23D";
name = Bold;
paths = (
{
closed = 1;
nodes = (
"5 -410 LINE",
"278 -410 LINE",
"346 17 LINE",
"395 -6 OFFCURVE",
"460 -24 OFFCURVE",
"545 -24 CURVE SMOOTH",
"848 -24 OFFCURVE",
"1015 142 OFFCURVE",
"1044 326 CURVE SMOOTH",
"1111 751 LINE SMOOTH",
"1144 957 OFFCURVE",
"1014 1095 OFFCURVE",
"754 1095 CURVE SMOOTH",
"663 1095 OFFCURVE",
"576 1071 OFFCURVE",
"507 1036 CURVE",
"584 1516 LINE",
"311 1516 LINE"
);
},
{
closed = 1;
nodes = (
"553 165 CURVE SMOOTH",
"448 165 OFFCURVE",
"391 205 OFFCURVE",
"377 213 CURVE",
"477 841 LINE",
"514 872 OFFCURVE",
"591 906 OFFCURVE",
"679 906 CURVE SMOOTH",
"792 906 OFFCURVE",
"856 862 OFFCURVE",
"839 755 CURVE SMOOTH",
"770 320 LINE SMOOTH",
"753 211 OFFCURVE",
"676 165 OFFCURVE"
);
}
);
width = 1212;
}
);
unicode = 00FE;
},
{
glyphname = q;
lastChange = "2014-01-29 21:29:48 -0800";
layers = (
{
layerId = "F85E8FEC-B3CD-4A54-BF30-AB1986ECE904";
name = Regular;
paths = (
{
closed = 1;
nodes = (
"708 -408 LINE",
"896 -408 LINE",
"1129 1060 LINE",
"941 1060 LINE",
"927 975 LINE",
"905 1025 OFFCURVE",
"786 1080 OFFCURVE",
"678 1080 CURVE SMOOTH",
"402 1080 OFFCURVE",
"244 941 OFFCURVE",
"210 728 CURVE SMOOTH",
"145 314 LINE SMOOTH",
"112 110 OFFCURVE",
"245 -22 OFFCURVE",
"516 -22 CURVE SMOOTH",
"589 -22 OFFCURVE",
"707 -3 OFFCURVE",
"780 47 CURVE"
);
},
{
closed = 1;
nodes = (
"551 122 CURVE SMOOTH",
"413 122 OFFCURVE",
"308 157 OFFCURVE",
"328 284 CURVE SMOOTH",
"401 748 LINE SMOOTH",
"422 878 OFFCURVE",
"535 936 OFFCURVE",
"683 936 CURVE SMOOTH",
"850 936 OFFCURVE",
"910 869 OFFCURVE",
"901 810 CURVE SMOOTH",
"805 201 LINE",
"791 180 OFFCURVE",
"691 122 OFFCURVE"
);
}
);
width = 1200;
},
{
layerId = "C6C96970-2BBD-4A47-8C90-C83F37B7F23D";
name = Bold;
paths = (
{
closed = 1;
nodes = (
"651 -410 LINE",
"923 -410 LINE",
"1158 1074 LINE",
"955 1074 LINE",
"925 1005 LINE",
"872 1056 OFFCURVE",
"774 1097 OFFCURVE",
"662 1097 CURVE SMOOTH",
"401 1097 OFFCURVE",
"222 960 OFFCURVE",
"188 750 CURVE SMOOTH",
"120 317 LINE SMOOTH",
"91 136 OFFCURVE",
"177 -23 OFFCURVE",
"479 -23 CURVE SMOOTH",
"561 -23 OFFCURVE",
"650 -4 OFFCURVE",
"721 33 CURVE"
);
},
{
closed = 1;
nodes = (
"560 166 CURVE SMOOTH",
"439 166 OFFCURVE",
"373 200 OFFCURVE",
"390 308 CURVE SMOOTH",
"461 756 LINE SMOOTH",
"479 865 OFFCURVE",
"561 907 OFFCURVE",
"677 907 CURVE SMOOTH",
"774 907 OFFCURVE",
"830 878 OFFCURVE",
"848 839 CURVE",
"750 220 LINE",
"746 213 OFFCURVE",
"674 166 OFFCURVE"
);
}
);
width = 1210;
}
);
unicode = 0071;
},
{
glyphname = r;
lastChange = "2014-01-29 21:29:48 -0800";
layers = (
{
anchors = (
{
name = bot;
position = "{201, 0}";
},
{
name = top;
position = "{560, 1060}";
}
);
layerId = "F85E8FEC-B3CD-4A54-BF30-AB1986ECE904";
name = Regular;
paths = (
{
closed = 1;
nodes = (
"101 0 LINE",
"289 0 LINE",
"403 722 LINE SMOOTH",
"420 828 OFFCURVE",
"615 914 OFFCURVE",
"796 914 CURVE",
"827 1075 LINE",
"687 1075 OFFCURVE",
"503 1027 OFFCURVE",
"430 890 CURVE",
"457 1060 LINE",
"269 1060 LINE"
);
}
);
width = 798;
},
{
anchors = (
{
name = bot;
position = "{215, 0}";
},
{
name = top;
position = "{626, 1074}";
}
);
layerId = "C6C96970-2BBD-4A47-8C90-C83F37B7F23D";
name = Bold;
paths = (
{
closed = 1;
nodes = (
"74 0 LINE",
"346 0 LINE",
"460 720 LINE",
"494 806 OFFCURVE",
"716 852 OFFCURVE",
"855 859 CURVE",
"897 1090 LINE",
"809 1100 OFFCURVE",
"562 1045 OFFCURVE",
"495 946 CURVE",
"516 1074 LINE",
"244 1074 LINE"
);
}
);
width = 855;
}
);
unicode = 0072;
},
{
glyphname = s;
lastChange = "2014-01-29 21:29:48 -0800";
layers = (
{
anchors = (
{
name = bot;
position = "{431, 0}";
},
{
name = top;
position = "{604, 1060}";
}
);
layerId = "F85E8FEC-B3CD-4A54-BF30-AB1986ECE904";
name = Regular;
paths = (
{
closed = 1;
nodes = (
"437 -22 CURVE SMOOTH",
"689 -22 OFFCURVE",
"807 116 OFFCURVE",
"833 283 CURVE SMOOTH",
"859 448 OFFCURVE",
"836 515 OFFCURVE",
"669 585 CURVE SMOOTH",
"435 683 LINE",
"367 709 OFFCURVE",
"352 733 OFFCURVE",
"363 799 CURVE SMOOTH",
"378 895 OFFCURVE",
"416 936 OFFCURVE",
"588 936 CURVE SMOOTH",
"677 936 OFFCURVE",
"801 903 OFFCURVE",
"858 878 CURVE",
"924 1022 LINE",
"851 1053 OFFCURVE",
"725 1080 OFFCURVE",
"576 1080 CURVE SMOOTH",
"314 1080 OFFCURVE",
"215 969 OFFCURVE",
"186 790 CURVE SMOOTH",
"165 658 OFFCURVE",
"207 590 OFFCURVE",
"353 536 CURVE",
"590 443 LINE SMOOTH",
"685 406 OFFCURVE",
"686 363 OFFCURVE",
"673 281 CURVE SMOOTH",
"659 192 OFFCURVE",
"602 122 OFFCURVE",
"435 122 CURVE SMOOTH",
"291 122 OFFCURVE",
"175 176 OFFCURVE",
"132 202 CURVE",
"64 64 LINE",
"108 37 OFFCURVE",
"239 -22 OFFCURVE"
);
}
);
width = 982;
},
{
anchors = (
{
name = bot;
position = "{449, 0}";
},
{
name = top;
position = "{659, 1074}";
}
);
layerId = "C6C96970-2BBD-4A47-8C90-C83F37B7F23D";
name = Bold;
paths = (
{
closed = 1;
nodes = (
"328 -20 OFFCURVE",
"456 -20 CURVE SMOOTH",
"678 -20 OFFCURVE",
"866 71 OFFCURVE",
"903 303 CURVE SMOOTH",
"930 471 OFFCURVE",
"884 569 OFFCURVE",
"712 626 CURVE SMOOTH",
"501 696 LINE SMOOTH",
"454 711 OFFCURVE",
"435 744 OFFCURVE",
"442 792 CURVE SMOOTH",
"453 861 OFFCURVE",
"488 907 OFFCURVE",
"612 907 CURVE SMOOTH",
"714 907 OFFCURVE",
"842 870 OFFCURVE",
"900 837 CURVE",
"990 1006 LINE",
"891 1060 OFFCURVE",
"754 1094 OFFCURVE",
"621 1094 CURVE SMOOTH",
"415 1094 OFFCURVE",
"219 1013 OFFCURVE",
"183 796 CURVE SMOOTH",
"157 652 OFFCURVE",
"196 542 OFFCURVE",
"356 489 CURVE SMOOTH",
"581 415 LINE SMOOTH",
"646 393 OFFCURVE",
"662 354 OFFCURVE",
"655 307 CURVE SMOOTH",
"646 252 OFFCURVE",
"614 166 OFFCURVE",
"486 166 CURVE SMOOTH",
"380 166 OFFCURVE",
"252 197 OFFCURVE",
"145 246 CURVE",
"61 61 LINE",
"189 11 OFFCURVE"
);
}
);
width = 1048;
}
);
unicode = 0073;
userData = {
com.typemytype.robofont.layerData = {
};
};
},
{
glyphname = germandbls;
lastChange = "2014-01-29 21:29:48 -0800";
layers = (
{
layerId = "F85E8FEC-B3CD-4A54-BF30-AB1986ECE904";
name = Regular;
paths = (
{
closed = 1;
nodes = (
"73 0 LINE",
"261 0 LINE",
"440 1131 LINE SMOOTH",
"467 1305 OFFCURVE",
"591 1332 OFFCURVE",
"737 1332 CURVE SMOOTH",
"875 1332 OFFCURVE",
"957 1296 OFFCURVE",
"929 1119 CURVE SMOOTH",
"908 989 OFFCURVE",
"845 912 OFFCURVE",
"627 912 CURVE",
"605 770 LINE",
"843 770 OFFCURVE",
"991 743 OFFCURVE",
"950 485 CURVE SMOOTH",
"902 182 OFFCURVE",
"695 168 OFFCURVE",
"424 148 CURVE",
"419 0 LINE",
"825 0 OFFCURVE",
"1067 119 OFFCURVE",
"1126 488 CURVE SMOOTH",
"1173 786 OFFCURVE",
"1033 829 OFFCURVE",
"924 878 CURVE",
"1036 908 OFFCURVE",
"1095 979 OFFCURVE",
"1119 1135 CURVE SMOOTH",
"1153 1347 OFFCURVE",
"1050 1483 OFFCURVE",
"769 1483 CURVE SMOOTH",
"513 1483 OFFCURVE",
"294 1401 OFFCURVE",
"247 1103 CURVE SMOOTH"
);
}
);
width = 1281;
},
{
layerId = "C6C96970-2BBD-4A47-8C90-C83F37B7F23D";
name = Bold;
paths = (
{
closed = 1;
nodes = (
"22 0 LINE",
"332 0 LINE",
"511 1129 LINE SMOOTH",
"529 1244 OFFCURVE",
"579 1318 OFFCURVE",
"724 1318 CURVE SMOOTH",
"904 1318 OFFCURVE",
"909 1207 OFFCURVE",
"894 1110 CURVE SMOOTH",
"877 1001 OFFCURVE",
"824 893 OFFCURVE",
"642 893 CURVE",
"612 703 LINE",
"812 683 OFFCURVE",
"908 649 OFFCURVE",
"872 422 CURVE SMOOTH",
"847 264 OFFCURVE",
"763 169 OFFCURVE",
"513 169 CURVE",
"501 -20 LINE",
"930 -20 OFFCURVE",
"1119 156 OFFCURVE",
"1158 400 CURVE SMOOTH",
"1181 547 OFFCURVE",
"1168 759 OFFCURVE",
"891 819 CURVE",
"1062 864 OFFCURVE",
"1154 990 OFFCURVE",
"1175 1122 CURVE SMOOTH",
"1209 1336 OFFCURVE",
"1107 1507 OFFCURVE",
"734 1507 CURVE SMOOTH",
"415 1507 OFFCURVE",
"236 1350 OFFCURVE",
"199 1118 CURVE SMOOTH"
);
}
);
width = 1286;
}
);
unicode = 00DF;
},
{
glyphname = t;
lastChange = "2014-01-29 21:29:48 -0800";
layers = (
{
anchors = (
{
name = bot;
position = "{349, 32}";
},
{
name = caron.alt;
position = "{307, 1060}";
},
{
name = mid;
position = "{363, 597}";
},
{
name = top;
position = "{539, 1280}";
}
);
layerId = "F85E8FEC-B3CD-4A54-BF30-AB1986ECE904";
name = Regular;
paths = (
{
closed = 1;
nodes = (
"565 -8 CURVE SMOOTH",
"593 -8 LINE",
"638 150 LINE",
"617 150 LINE SMOOTH",
"438 150 OFFCURVE",
"363 175 OFFCURVE",
"386 315 CURVE SMOOTH",
"481 918 LINE",
"747 918 LINE",
"770 1060 LINE",
"504 1060 LINE",
"556 1388 LINE",
"398 1388 LINE",
"323 1060 LINE",
"139 1060 LINE",
"116 918 LINE",
"293 918 LINE",
"196 303 LINE SMOOTH",
"159 70 OFFCURVE",
"275 -8 OFFCURVE"
);
}
);
width = 832;
},
{
anchors = (
{
name = bot;
position = "{363, 24}";
},
{
name = caron.alt;
position = "{461, 1074}";
},
{
name = mid;
position = "{365, 620}";
},
{
name = top;
position = "{510, 1408}";
}
);
layerId = "C6C96970-2BBD-4A47-8C90-C83F37B7F23D";
name = Bold;
paths = (
{
closed = 1;
nodes = (
"534 -12 CURVE SMOOTH",
"631 -12 LINE",
"673 190 LINE",
"611 190 LINE SMOOTH",
"431 190 OFFCURVE",
"417 227 OFFCURVE",
"438 360 CURVE SMOOTH",
"523 901 LINE",
"778 901 LINE",
"806 1074 LINE",
"551 1074 LINE",
"605 1419 LINE",
"366 1419 LINE",
"287 1074 LINE",
"109 1074 LINE",
"81 901 LINE",
"251 901 LINE",
"163 341 LINE SMOOTH",
"119 65 OFFCURVE",
"210 -12 OFFCURVE"
);
}
);
width = 860;
}
);
unicode = 0074;
},
{
glyphname = u;
lastChange = "2014-01-29 21:29:48 -0800";
layers = (
{
anchors = (
{
name = ogonek;
position = "{875, 0}";
},
{
name = top;
position = "{708, 1060}";
}
);
layerId = "F85E8FEC-B3CD-4A54-BF30-AB1986ECE904";
name = Regular;
paths = (
{
closed = 1;
nodes = (
"453 -22 CURVE SMOOTH",
"607 -22 OFFCURVE",
"718 38 OFFCURVE",
"787 133 CURVE",
"786 0 LINE",
"954 0 LINE",
"1122 1060 LINE",
"934 1060 LINE",
"815 309 LINE SMOOTH",
"801 220 OFFCURVE",
"697 122 OFFCURVE",
"513 122 CURVE SMOOTH",
"382 122 OFFCURVE",
"309 184 OFFCURVE",
"326 289 CURVE SMOOTH",
"448 1060 LINE",
"260 1060 LINE",
"138 290 LINE SMOOTH",
"111 122 OFFCURVE",
"192 -22 OFFCURVE"
);
}
);
width = 1222;
},
{
anchors = (
{
name = ogonek;
position = "{887, 0}";
},
{
name = top;
position = "{730, 1074}";
}
);
layerId = "C6C96970-2BBD-4A47-8C90-C83F37B7F23D";
name = Bold;
paths = (
{
closed = 1;
nodes = (
"408 -23 CURVE SMOOTH",
"556 -30 OFFCURVE",
"715 29 OFFCURVE",
"773 118 CURVE",
"762 0 LINE",
"1018 0 LINE",
"1188 1074 LINE",
"916 1074 LINE",
"801 350 LINE SMOOTH",
"782 230 OFFCURVE",
"661 182 OFFCURVE",
"562 182 CURVE SMOOTH",
"478 182 OFFCURVE",
"386 223 OFFCURVE",
"404 335 CURVE SMOOTH",
"521 1074 LINE",
"249 1074 LINE",
"125 291 LINE SMOOTH",
"96 110 OFFCURVE",
"204 -13 OFFCURVE"
);
}
);
width = 1269;
}
);
unicode = 0075;
},
{
glyphname = v;
lastChange = "2014-01-29 21:29:48 -0800";
layers = (
{
layerId = "F85E8FEC-B3CD-4A54-BF30-AB1986ECE904";
name = Regular;
paths = (
{
closed = 1;
nodes = (
"391 0 LINE",
"581 0 LINE",
"1124 1060 LINE",
"940 1060 LINE",
"520 200 LINE",
"337 1060 LINE",
"148 1060 LINE"
);
}
);
width = 1104;
},
{
layerId = "C6C96970-2BBD-4A47-8C90-C83F37B7F23D";
name = Bold;
paths = (
{
closed = 1;
nodes = (
"365 0 LINE",
"654 0 LINE",
"1188 1074 LINE",
"931 1074 LINE",
"552 266 LINE",
"424 1074 LINE",
"153 1074 LINE"
);
}
);
width = 1171;
}
);
unicode = 0076;
},
{
glyphname = w;
lastChange = "2014-01-29 21:29:48 -0800";
layers = (
{
anchors = (
{
name = top;
position = "{896, 1060}";
}
);
layerId = "F85E8FEC-B3CD-4A54-BF30-AB1986ECE904";
name = Regular;
paths = (
{
closed = 1;
nodes = (
"273 0 LINE",
"451 0 LINE",
"856 845 LINE",
"993 0 LINE",
"1168 0 LINE",
"1646 1060 LINE",
"1472 1060 LINE",
"1113 228 LINE",
"979 1060 LINE",
"798 1060 LINE",
"411 228 LINE",
"308 1060 LINE",
"136 1060 LINE"
);
}
);
width = 1614;
},
{
anchors = (
{
name = top;
position = "{941, 1074}";
}
);
layerId = "C6C96970-2BBD-4A47-8C90-C83F37B7F23D";
name = Bold;
paths = (
{
closed = 1;
nodes = (
"280 0 LINE",
"538 0 LINE",
"884 741 LINE",
"987 0 LINE",
"1253 0 LINE",
"1709 1074 LINE",
"1456 1074 LINE",
"1154 295 LINE",
"1045 1074 LINE",
"824 1074 LINE",
"477 304 LINE",
"407 1074 LINE",
"153 1074 LINE"
);
}
);
width = 1692;
}
);
unicode = 0077;
},
{
glyphname = x;
lastChange = "2014-01-29 21:29:48 -0800";
layers = (
{
layerId = "F85E8FEC-B3CD-4A54-BF30-AB1986ECE904";
name = Regular;
paths = (
{
closed = 1;
nodes = (
"-20 0 LINE",
"167 0 LINE",
"514 403 LINE",
"733 0 LINE",
"916 0 LINE",
"627 535 LINE",
"1079 1060 LINE",
"898 1060 LINE",
"557 666 LINE",
"343 1060 LINE",
"154 1060 LINE",
"441 533 LINE"
);
}
);
width = 1056;
},
{
layerId = "C6C96970-2BBD-4A47-8C90-C83F37B7F23D";
name = Bold;
paths = (
{
closed = 1;
nodes = (
"-31 0 LINE",
"258 0 LINE",
"535 338 LINE",
"708 0 LINE",
"979 0 LINE",
"702 536 LINE",
"1147 1074 LINE",
"870 1074 LINE",
"594 738 LINE",
"424 1074 LINE",
"140 1074 LINE",
"424 540 LINE"
);
}
);
width = 1118;
}
);
unicode = 0078;
},
{
glyphname = y;
lastChange = "2014-01-29 21:29:48 -0800";
layers = (
{
anchors = (
{
name = top;
position = "{701, 1060}";
}
);
layerId = "F85E8FEC-B3CD-4A54-BF30-AB1986ECE904";
name = Regular;
paths = (
{
closed = 1;
nodes = (
"82 -406 LINE",
"394 -406 OFFCURVE",
"505 -280 OFFCURVE",
"667 45 CURVE SMOOTH",
"1176 1060 LINE",
"986 1060 LINE",
"581 216 LINE",
"391 1060 LINE",
"192 1060 LINE",
"462 4 LINE",
"379 -189 OFFCURVE",
"265 -259 OFFCURVE",
"105 -259 CURVE"
);
}
);
width = 1118;
},
{
anchors = (
{
name = top;
position = "{701, 1074}";
}
);
layerId = "C6C96970-2BBD-4A47-8C90-C83F37B7F23D";
name = Bold;
paths = (
{
closed = 1;
nodes = (
"47 -465 LINE",
"392 -435 OFFCURVE",
"481 -355 OFFCURVE",
"732 140 CURVE SMOOTH",
"1206 1074 LINE",
"936 1074 LINE",
"599 353 LINE",
"434 1074 LINE",
"172 1074 LINE",
"411 36 LINE",
"312 -198 OFFCURVE",
"259 -239 OFFCURVE",
"60 -260 CURVE"
);
}
);
width = 1120;
}
);
unicode = 0079;
},
{
glyphname = z;
lastChange = "2014-01-29 21:29:48 -0800";
layers = (
{
anchors = (
{
name = bot;
position = "{435, 0}";
},
{
name = top;
position = "{594, 1060}";
}
);
layerId = "F85E8FEC-B3CD-4A54-BF30-AB1986ECE904";
name = Regular;
paths = (
{
closed = 1;
nodes = (
"52 0 LINE",
"766 0 LINE",
"787 132 LINE",
"271 132 LINE",
"905 935 LINE",
"925 1060 LINE",
"238 1060 LINE",
"216 924 LINE",
"699 924 LINE",
"72 126 LINE"
);
}
);
width = 951;
},
{
anchors = (
{
name = bot;
position = "{408, 0}";
},
{
name = top;
position = "{614, 1074}";
}
);
layerId = "C6C96970-2BBD-4A47-8C90-C83F37B7F23D";
name = Bold;
paths = (
{
closed = 1;
nodes = (
"36 0 LINE",
"795 0 LINE",
"825 190 LINE",
"361 190 LINE",
"929 910 LINE",
"955 1074 LINE",
"209 1074 LINE",
"180 888 LINE",
"627 888 LINE",
"62 167 LINE"
);
}
);
width = 995;
}
);
unicode = 007A;
},
{
glyphname = ordfeminine;
lastChange = "2014-01-29 21:29:48 -0800";
layers = (
{
components = (
{
name = a;
transform = "{0.810, 0, 0, 0.860, 0, 0}";
}
);
layerId = "F85E8FEC-B3CD-4A54-BF30-AB1986ECE904";
name = Regular;
width = 1172;
},
{
layerId = "C6C96970-2BBD-4A47-8C90-C83F37B7F23D";
name = Bold;
paths = (
{
closed = 1;
nodes = (
"310 517 LINE",
"437 517 OFFCURVE",
"542 591 OFFCURVE",
"599 656 CURVE",
"618 582 OFFCURVE",
"643 531 OFFCURVE",
"763 531 CURVE SMOOTH",
"848 531 LINE",
"893 701 LINE",
"823 701 OFFCURVE",
"811 728 OFFCURVE",
"825 812 CURVE SMOOTH",
"881 1166 LINE SMOOTH",
"911 1356 OFFCURVE",
"841 1478 OFFCURVE",
"582 1478 CURVE SMOOTH",
"345 1478 OFFCURVE",
"219 1363 OFFCURVE",
"191 1185 CURVE SMOOTH",
"186 1158 LINE",
"391 1158 LINE",
"397 1194 LINE SMOOTH",
"408 1265 OFFCURVE",
"441 1316 OFFCURVE",
"551 1316 CURVE SMOOTH",
"649 1316 OFFCURVE",
"678 1278 OFFCURVE",
"667 1204 CURVE",
"647 1088 OFFCURVE",
"579 1087 OFFCURVE",
"415 1037 CURVE SMOOTH",
"158 959 OFFCURVE",
"114 897 OFFCURVE",
"97 767 CURVE SMOOTH",
"77 615 OFFCURVE",
"160 518 OFFCURVE",
"308 518 CURVE"
);
},
{
closed = 1;
nodes = (
"408 684 LINE SMOOTH",
"335 684 OFFCURVE",
"303 724 OFFCURVE",
"312 796 CURVE SMOOTH",
"318 848 OFFCURVE",
"354 896 OFFCURVE",
"451 924 CURVE SMOOTH",
"528 946 OFFCURVE",
"603 976 OFFCURVE",
"634 1002 CURVE",
"597 770 LINE",
"547 706 OFFCURVE",
"462 684 OFFCURVE",
"409 684 CURVE SMOOTH"
);
}
);
width = 1024;
}
);
unicode = 00AA;
userData = {
com.typemytype.robofont.layerData = {
};
};
},
{
glyphname = ordmasculine;
lastChange = "2014-01-29 21:29:48 -0800";
layers = (
{
components = (
{
name = o;
transform = "{0.810, 0, 0, 0.860, 0, 0}";
}
);
layerId = "F85E8FEC-B3CD-4A54-BF30-AB1986ECE904";
name = Regular;
width = 1174;
},
{
layerId = "C6C96970-2BBD-4A47-8C90-C83F37B7F23D";
name = Bold;
paths = (
{
closed = 1;
nodes = (
"459 675 LINE SMOOTH",
"358 675 OFFCURVE",
"307 708 OFFCURVE",
"322 802 CURVE SMOOTH",
"383 1187 LINE SMOOTH",
"398 1281 OFFCURVE",
"465 1314 OFFCURVE",
"561 1314 CURVE SMOOTH",
"661 1314 OFFCURVE",
"713 1281 OFFCURVE",
"698 1187 CURVE SMOOTH",
"637 802 LINE SMOOTH",
"622 708 OFFCURVE",
"555 675 OFFCURVE",
"461 675 CURVE SMOOTH"
);
},
{
closed = 1;
nodes = (
"437 512 CURVE SMOOTH",
"718 513 OFFCURVE",
"830 628 OFFCURVE",
"859 811 CURVE SMOOTH",
"917 1175 LINE SMOOTH",
"947 1363 OFFCURVE",
"825 1475 OFFCURVE",
"588 1475 CURVE SMOOTH",
"349 1475 OFFCURVE",
"195 1363 OFFCURVE",
"165 1175 CURVE SMOOTH",
"107 811 LINE SMOOTH",
"78 627 OFFCURVE",
"162 512 OFFCURVE"
);
}
);
width = 1024;
}
);
unicode = 00BA;
},
{
glyphname = Delta;
lastChange = "2014-01-29 21:29:48 -0800";
layers = (
{
layerId = "F85E8FEC-B3CD-4A54-BF30-AB1986ECE904";
name = Regular;
paths = (
{
closed = 1;
nodes = (
"46 0 LINE",
"1145 0 LINE",
"917 1446 LINE",
"740 1446 LINE"
);
},
{
closed = 1;
nodes = (
"300 143 LINE",
"794 1196 LINE",
"944 143 LINE"
);
}
);
width = 1428;
},
{
layerId = "C6C96970-2BBD-4A47-8C90-C83F37B7F23D";
name = Bold;
paths = (
{
closed = 1;
nodes = (
"-9 0 LINE",
"1192 0 LINE",
"948 1476 LINE",
"731 1476 LINE"
);
},
{
closed = 1;
nodes = (
"293 198 LINE",
"752 1141 LINE",
"879 198 LINE"
);
}
);
width = 1419;
}
);
unicode = 0394;
},
{
glyphname = Sigma;
lastChange = "2014-01-29 21:29:48 -0800";
layers = (
{
layerId = "F85E8FEC-B3CD-4A54-BF30-AB1986ECE904";
name = Regular;
paths = (
{
closed = 1;
nodes = (
"961 0 LINE",
"987 162 LINE",
"232 162 LINE",
"779 738 LINE",
"790 807 LINE",
"406 1286 LINE",
"1165 1286 LINE",
"1191 1446 LINE",
"227 1446 LINE",
"203 1298 LINE",
"603 762 LINE",
"22 155 LINE",
"-3 0 LINE"
);
}
);
width = 1156;
},
{
layerId = "C6C96970-2BBD-4A47-8C90-C83F37B7F23D";
name = Bold;
paths = (
{
closed = 1;
nodes = (
"973 0 LINE",
"1009 226 LINE",
"365 226 LINE",
"872 734 LINE",
"885 812 LINE",
"530 1252 LINE",
"1171 1252 LINE",
"1207 1476 LINE",
"209 1476 LINE",
"180 1291 LINE",
"577 761 LINE",
"5 191 LINE",
"-25 0 LINE"
);
}
);
width = 1196;
}
);
unicode = 03A3;
},
{
glyphname = mu;
lastChange = "2014-01-29 21:29:48 -0800";
layers = (
{
anchors = (
{
name = ogonek;
position = "{903, 0}";
},
{
name = top;
position = "{736, 1060}";
}
);
layerId = "F85E8FEC-B3CD-4A54-BF30-AB1986ECE904";
name = Regular;
paths = (
{
closed = 1;
nodes = (
"962 1060 LINE",
"843 309 LINE SMOOTH",
"829 220 OFFCURVE",
"726 122 OFFCURVE",
"542 122 CURVE SMOOTH",
"411 122 OFFCURVE",
"338 184 OFFCURVE",
"354 289 CURVE SMOOTH",
"476 1060 LINE",
"288 1060 LINE",
"60 -383 LINE",
"248 -383 LINE",
"309 7 LINE",
"355 -12 OFFCURVE",
"412 -22 OFFCURVE",
"482 -22 CURVE SMOOTH",
"636 -22 OFFCURVE",
"746 38 OFFCURVE",
"815 133 CURVE",
"814 0 LINE",
"982 0 LINE",
"1150 1060 LINE"
);
}
);
width = 1224;
},
{
layerId = "C6C96970-2BBD-4A47-8C90-C83F37B7F23D";
name = Bold;
paths = (
{
closed = 1;
nodes = (
"919 1074 LINE",
"799 317 LINE SMOOTH",
"783 217 OFFCURVE",
"661 166 OFFCURVE",
"562 166 CURVE SMOOTH",
"478 166 OFFCURVE",
"385 196 OFFCURVE",
"402 308 CURVE SMOOTH",
"524 1074 LINE",
"252 1074 LINE",
"44 -236 LINE",
"296 -236 LINE",
"334 2 LINE",
"388 -12 OFFCURVE",
"438 -19 OFFCURVE",
"483 -19 CURVE SMOOTH",
"619 -19 OFFCURVE",
"717 41 OFFCURVE",
"770 135 CURVE",
"755 0 LINE",
"1022 0 LINE",
"1192 1074 LINE"
);
}
);
width = 1246;
}
);
unicode = 03BC;
},
{
glyphname = pi;
lastChange = "2014-01-29 21:29:48 -0800";
layers = (
{
layerId = "F85E8FEC-B3CD-4A54-BF30-AB1986ECE904";
name = Regular;
paths = (
{
closed = 1;
nodes = (
"87 875 LINE",
"87 875 OFFCURVE",
"204 935 OFFCURVE",
"317 935 CURVE",
"169 0 LINE",
"357 0 LINE",
"505 935 LINE",
"811 935 LINE",
"705 267 LINE SMOOTH",
"668 31 OFFCURVE",
"753 -21 OFFCURVE",
"958 -22 CURVE",
"1029 124 LINE",
"898 154 OFFCURVE",
"877 167 OFFCURVE",
"904 333 CURVE SMOOTH",
"999 935 LINE",
"1181 935 LINE",
"1201 1060 LINE",
"304 1060 LINE SMOOTH",
"183 1060 OFFCURVE",
"107 1000 OFFCURVE",
"107 1000 CURVE"
);
}
);
width = 1180;
},
{
layerId = "C6C96970-2BBD-4A47-8C90-C83F37B7F23D";
name = Bold;
paths = (
{
closed = 1;
nodes = (
"79 801 LINE",
"145 845 OFFCURVE",
"187 881 OFFCURVE",
"296 891 CURVE",
"155 0 LINE",
"407 0 LINE",
"548 893 LINE",
"813 893 LINE",
"719 297 LINE",
"677 32 OFFCURVE",
"789 -23 OFFCURVE",
"1023 -20 CURVE",
"1096 156 LINE",
"972 181 OFFCURVE",
"953 184 OFFCURVE",
"978 343 CURVE",
"1065 893 LINE",
"1247 893 LINE",
"1276 1074 LINE",
"324 1074 LINE",
"221 1074 OFFCURVE",
"155 1032 OFFCURVE",
"109 986 CURVE"
);
}
);
width = 1257;
}
);
unicode = 03C0;
},
{
glyphname = zero;
lastChange = "2014-01-29 21:29:48 -0800";
layers = (
{
layerId = "F85E8FEC-B3CD-4A54-BF30-AB1986ECE904";
name = Regular;
paths = (
{
closed = 1;
nodes = (
"542 140 CURVE SMOOTH",
"256 140 OFFCURVE",
"277 363 OFFCURVE",
"318 619 CURVE SMOOTH",
"349 816 LINE SMOOTH",
"389 1073 OFFCURVE",
"442 1306 OFFCURVE",
"726 1306 CURVE SMOOTH",
"1010 1306 OFFCURVE",
"989 1073 OFFCURVE",
"949 816 CURVE SMOOTH",
"918 619 LINE SMOOTH",
"877 363 OFFCURVE",
"828 140 OFFCURVE"
);
},
{
closed = 1;
nodes = (
"516 -22 CURVE SMOOTH",
"999 -22 OFFCURVE",
"1075 335 OFFCURVE",
"1122 636 CURVE SMOOTH",
"1147 790 LINE SMOOTH",
"1195 1096 OFFCURVE",
"1237 1468 OFFCURVE",
"752 1468 CURVE SMOOTH",
"267 1468 OFFCURVE",
"191 1096 OFFCURVE",
"143 790 CURVE SMOOTH",
"118 636 LINE SMOOTH",
"71 335 OFFCURVE",
"33 -22 OFFCURVE"
);
}
);
width = 1250;
},
{
layerId = "C6C96970-2BBD-4A47-8C90-C83F37B7F23D";
name = Bold;
paths = (
{
closed = 1;
nodes = (
"635 205 CURVE SMOOTH",
"424 205 OFFCURVE",
"392 371 OFFCURVE",
"412 500 CURVE SMOOTH",
"487 972 LINE SMOOTH",
"508 1102 OFFCURVE",
"583 1270 OFFCURVE",
"803 1270 CURVE SMOOTH",
"1021 1270 OFFCURVE",
"1040 1102 OFFCURVE",
"1019 972 CURVE SMOOTH",
"944 500 LINE SMOOTH",
"924 371 OFFCURVE",
"847 205 OFFCURVE"
);
},
{
closed = 1;
nodes = (
"599 -20 CURVE SMOOTH",
"991 -20 OFFCURVE",
"1192 245 OFFCURVE",
"1234 509 CURVE SMOOTH",
"1305 960 LINE SMOOTH",
"1348 1232 OFFCURVE",
"1239 1496 OFFCURVE",
"839 1496 CURVE SMOOTH",
"432 1496 OFFCURVE",
"229 1236 OFFCURVE",
"186 964 CURVE SMOOTH",
"113 505 LINE SMOOTH",
"71 238 OFFCURVE",
"198 -20 OFFCURVE"
);
}
);
width = 1420;
}
);
unicode = 0030;
},
{
glyphname = one;
lastChange = "2014-01-29 21:29:48 -0800";
layers = (
{
layerId = "F85E8FEC-B3CD-4A54-BF30-AB1986ECE904";
name = Regular;
paths = (
{
closed = 1;
nodes = (
"91 0 LINE",
"1047 0 LINE",
"1072 155 LINE",
"718 155 LINE",
"923 1446 LINE",
"759 1446 LINE",
"322 1396 LINE",
"314 1237 LINE",
"695 1277 LINE",
"517 155 LINE",
"116 155 LINE"
);
}
);
width = 1250;
},
{
layerId = "C6C96970-2BBD-4A47-8C90-C83F37B7F23D";
name = Bold;
paths = (
{
closed = 1;
nodes = (
"132 0 LINE",
"1116 0 LINE",
"1149 209 LINE",
"823 209 LINE",
"1024 1476 LINE",
"819 1476 LINE",
"350 1404 LINE",
"342 1187 LINE",
"690 1241 LINE",
"526 209 LINE",
"165 209 LINE"
);
}
);
width = 1379;
}
);
unicode = 0031;
},
{
glyphname = two;
lastChange = "2014-01-29 21:29:48 -0800";
layers = (
{
layerId = "F85E8FEC-B3CD-4A54-BF30-AB1986ECE904";
name = Regular;
paths = (
{
closed = 1;
nodes = (
"115 0 LINE",
"971 0 LINE",
"995 156 LINE",
"349 156 LINE",
"818 581 LINE SMOOTH",
"988 735 OFFCURVE",
"1111 834 OFFCURVE",
"1146 1059 CURVE SMOOTH",
"1183 1289 OFFCURVE",
"1066 1468 OFFCURVE",
"755 1468 CURVE SMOOTH",
"463 1468 OFFCURVE",
"260 1342 OFFCURVE",
"210 1024 CURVE",
"411 1024 LINE",
"448 1259 OFFCURVE",
"534 1306 OFFCURVE",
"745 1306 CURVE SMOOTH",
"922 1306 OFFCURVE",
"985 1242 OFFCURVE",
"956 1057 CURVE SMOOTH",
"933 912 OFFCURVE",
"863 847 OFFCURVE",
"693 689 CURVE SMOOTH",
"121 158 LINE"
);
}
);
width = 1250;
},
{
layerId = "C6C96970-2BBD-4A47-8C90-C83F37B7F23D";
name = Bold;
paths = (
{
closed = 1;
nodes = (
"159 0 LINE",
"1047 0 LINE",
"1084 235 LINE",
"523 235 LINE",
"877 526 LINE SMOOTH",
"1088 700 OFFCURVE",
"1194 843 OFFCURVE",
"1228 1060 CURVE SMOOTH",
"1268 1313 OFFCURVE",
"1155 1496 OFFCURVE",
"827 1496 CURVE SMOOTH",
"436 1496 OFFCURVE",
"295 1337 OFFCURVE",
"241 992 CURVE",
"541 992 LINE",
"574 1200 OFFCURVE",
"641 1267 OFFCURVE",
"799 1267 CURVE SMOOTH",
"906 1267 OFFCURVE",
"963 1195 OFFCURVE",
"941 1058 CURVE SMOOTH",
"924 947 OFFCURVE",
"880 864 OFFCURVE",
"736 737 CURVE SMOOTH",
"158 226 LINE"
);
}
);
width = 1379;
}
);
unicode = 0032;
},
{
glyphname = three;
lastChange = "2014-01-29 21:29:48 -0800";
layers = (
{
layerId = "F85E8FEC-B3CD-4A54-BF30-AB1986ECE904";
name = Regular;
paths = (
{
closed = 1;
nodes = (
"561 -22 CURVE SMOOTH",
"845 -22 OFFCURVE",
"1031 122 OFFCURVE",
"1075 398 CURVE SMOOTH",
"1113 642 OFFCURVE",
"1032 734 OFFCURVE",
"872 768 CURVE",
"1044 795 OFFCURVE",
"1125 901 OFFCURVE",
"1155 1091 CURVE SMOOTH",
"1197 1354 OFFCURVE",
"1042 1468 OFFCURVE",
"793 1468 CURVE SMOOTH",
"536 1468 OFFCURVE",
"324 1393 OFFCURVE",
"266 1025 CURVE",
"458 1025 LINE",
"497 1273 OFFCURVE",
"590 1306 OFFCURVE",
"768 1306 CURVE SMOOTH",
"940 1306 OFFCURVE",
"988 1224 OFFCURVE",
"967 1088 CURVE SMOOTH",
"941 924 OFFCURVE",
"915 840 OFFCURVE",
"606 840 CURVE",
"582 691 LINE",
"882 691 OFFCURVE",
"919 622 OFFCURVE",
"884 399 CURVE SMOOTH",
"857 230 OFFCURVE",
"771 140 OFFCURVE",
"598 140 CURVE SMOOTH",
"399 140 OFFCURVE",
"331 189 OFFCURVE",
"354 431 CURVE",
"162 431 LINE",
"142 91 OFFCURVE",
"239 -22 OFFCURVE"
);
}
);
width = 1250;
},
{
layerId = "C6C96970-2BBD-4A47-8C90-C83F37B7F23D";
name = Bold;
paths = (
{
closed = 1;
nodes = (
"585 -20 CURVE SMOOTH",
"913 -20 OFFCURVE",
"1121 139 OFFCURVE",
"1167 426 CURVE SMOOTH",
"1196 611 OFFCURVE",
"1132 737 OFFCURVE",
"988 780 CURVE",
"1136 811 OFFCURVE",
"1233 926 OFFCURVE",
"1260 1101 CURVE SMOOTH",
"1301 1355 OFFCURVE",
"1146 1496 OFFCURVE",
"827 1496 CURVE SMOOTH",
"517 1496 OFFCURVE",
"317 1331 OFFCURVE",
"268 1033 CURVE",
"547 1033 LINE",
"570 1187 OFFCURVE",
"659 1272 OFFCURVE",
"796 1272 CURVE SMOOTH",
"928 1272 OFFCURVE",
"990 1206 OFFCURVE",
"971 1087 CURVE SMOOTH",
"950 952 OFFCURVE",
"878 877 OFFCURVE",
"659 877 CURVE",
"627 678 LINE",
"851 678 OFFCURVE",
"900 593 OFFCURVE",
"876 439 CURVE SMOOTH",
"850 276 OFFCURVE",
"761 201 OFFCURVE",
"623 201 CURVE SMOOTH",
"477 201 OFFCURVE",
"424 285 OFFCURVE",
"446 436 CURVE",
"167 436 LINE",
"128 143 OFFCURVE",
"267 -20 OFFCURVE"
);
}
);
width = 1379;
}
);
unicode = 0033;
},
{
glyphname = four;
lastChange = "2014-01-29 21:29:47 -0800";
layers = (
{
layerId = "F85E8FEC-B3CD-4A54-BF30-AB1986ECE904";
name = Regular;
paths = (
{
closed = 1;
nodes = (
"668 0 LINE",
"835 0 LINE",
"891 351 LINE",
"1103 351 LINE",
"1128 506 LINE",
"916 506 LINE",
"968 837 LINE",
"801 837 LINE",
"749 506 LINE",
"333 506 LINE",
"996 1446 LINE",
"787 1446 LINE",
"109 508 LINE",
"84 351 LINE",
"724 351 LINE"
);
}
);
width = 1250;
},
{
layerId = "C6C96970-2BBD-4A47-8C90-C83F37B7F23D";
name = Bold;
paths = (
{
closed = 1;
nodes = (
"722 0 LINE",
"959 0 LINE",
"1004 282 LINE",
"1224 282 LINE",
"1263 528 LINE",
"1043 528 LINE",
"1096 862 LINE",
"859 862 LINE",
"806 528 LINE",
"461 528 LINE",
"1041 1476 LINE",
"736 1476 LINE",
"137 531 LINE",
"98 282 LINE",
"767 282 LINE"
);
}
);
width = 1379;
}
);
unicode = 0034;
},
{
glyphname = five;
lastChange = "2014-01-29 21:29:48 -0800";
layers = (
{
layerId = "F85E8FEC-B3CD-4A54-BF30-AB1986ECE904";
name = Regular;
paths = (
{
closed = 1;
nodes = (
"516 -22 CURVE SMOOTH",
"808 -22 OFFCURVE",
"1031 169 OFFCURVE",
"1075 449 CURVE SMOOTH",
"1120 734 OFFCURVE",
"1000 911 OFFCURVE",
"701 911 CURVE SMOOTH",
"600 911 OFFCURVE",
"495 877 OFFCURVE",
"423 819 CURVE",
"538 1281 LINE",
"1114 1281 LINE",
"1140 1446 LINE",
"403 1446 LINE",
"236 712 LINE",
"372 652 LINE",
"487 727 OFFCURVE",
"554 762 OFFCURVE",
"653 762 CURVE SMOOTH",
"853 762 OFFCURVE",
"916 633 OFFCURVE",
"885 439 CURVE SMOOTH",
"854 246 OFFCURVE",
"722 140 OFFCURVE",
"533 140 CURVE SMOOTH",
"329 140 OFFCURVE",
"247 191 OFFCURVE",
"154 260 CURVE",
"77 107 LINE",
"172 46 OFFCURVE",
"292 -22 OFFCURVE"
);
}
);
width = 1250;
},
{
layerId = "C6C96970-2BBD-4A47-8C90-C83F37B7F23D";
name = Bold;
paths = (
{
closed = 1;
nodes = (
"599 -20 CURVE SMOOTH",
"942 -20 OFFCURVE",
"1187 179 OFFCURVE",
"1234 474 CURVE SMOOTH",
"1276 743 OFFCURVE",
"1129 957 OFFCURVE",
"831 957 CURVE SMOOTH",
"732 957 OFFCURVE",
"600 935 OFFCURVE",
"524 867 CURVE",
"623 1230 LINE",
"1241 1230 LINE",
"1279 1476 LINE",
"437 1476 LINE",
"235 711 LINE",
"432 604 LINE",
"539 692 OFFCURVE",
"659 707 OFFCURVE",
"739 707 CURVE SMOOTH",
"876 707 OFFCURVE",
"967 618 OFFCURVE",
"944 473 CURVE SMOOTH",
"912 274 OFFCURVE",
"782 203 OFFCURVE",
"618 203 CURVE SMOOTH",
"507 203 OFFCURVE",
"350 227 OFFCURVE",
"201 325 CURVE",
"91 126 LINE",
"166 64 OFFCURVE",
"372 -20 OFFCURVE"
);
}
);
width = 1379;
}
);
unicode = 0035;
},
{
glyphname = six;
lastChange = "2014-01-29 21:29:48 -0800";
layers = (
{
layerId = "F85E8FEC-B3CD-4A54-BF30-AB1986ECE904";
name = Regular;
paths = (
{
closed = 1;
nodes = (
"531 -22 CURVE SMOOTH",
"807 -22 OFFCURVE",
"1036 104 OFFCURVE",
"1086 422 CURVE SMOOTH",
"1138 752 OFFCURVE",
"976 878 OFFCURVE",
"680 878 CURVE SMOOTH",
"620 878 OFFCURVE",
"542 860 OFFCURVE",
"496 841 CURVE",
"949 1446 LINE",
"749 1446 LINE",
"348 897 LINE",
"228 728 OFFCURVE",
"155 568 OFFCURVE",
"133 426 CURVE SMOOTH",
"82 106 OFFCURVE",
"255 -22 OFFCURVE"
);
},
{
closed = 1;
nodes = (
"559 140 CURVE SMOOTH",
"378 140 OFFCURVE",
"283 197 OFFCURVE",
"320 425 CURVE SMOOTH",
"355 646 OFFCURVE",
"469 715 OFFCURVE",
"650 715 CURVE SMOOTH",
"829 715 OFFCURVE",
"938 668 OFFCURVE",
"899 422 CURVE SMOOTH",
"863 197 OFFCURVE",
"739 140 OFFCURVE"
);
}
);
width = 1250;
},
{
layerId = "C6C96970-2BBD-4A47-8C90-C83F37B7F23D";
name = Bold;
paths = (
{
closed = 1;
nodes = (
"592 -20 CURVE SMOOTH",
"924 -20 OFFCURVE",
"1162 158 OFFCURVE",
"1207 446 CURVE SMOOTH",
"1264 804 OFFCURVE",
"1113 930 OFFCURVE",
"799 930 CURVE SMOOTH",
"769 930 OFFCURVE",
"677 915 OFFCURVE",
"639 904 CURVE",
"1052 1477 LINE",
"732 1477 LINE",
"360 965 LINE SMOOTH",
"259 816 OFFCURVE",
"176 650 OFFCURVE",
"145 459 CURVE SMOOTH",
"98 163 OFFCURVE",
"271 -20 OFFCURVE"
);
},
{
closed = 1;
nodes = (
"641 199 CURVE SMOOTH",
"486 199 OFFCURVE",
"404 299 OFFCURVE",
"429 458 CURVE SMOOTH",
"456 629 OFFCURVE",
"546 726 OFFCURVE",
"721 726 CURVE SMOOTH",
"913 726 OFFCURVE",
"962 623 OFFCURVE",
"936 460 CURVE SMOOTH",
"911 300 OFFCURVE",
"797 199 OFFCURVE"
);
}
);
width = 1379;
}
);
unicode = 0036;
},
{
glyphname = seven;
lastChange = "2014-01-29 21:29:48 -0800";
layers = (
{
layerId = "F85E8FEC-B3CD-4A54-BF30-AB1986ECE904";
name = Regular;
paths = (
{
closed = 1;
nodes = (
"254 0 LINE",
"465 0 LINE",
"1160 1289 LINE",
"1185 1446 LINE",
"304 1446 LINE",
"279 1291 LINE",
"959 1291 LINE"
);
}
);
width = 1250;
},
{
layerId = "C6C96970-2BBD-4A47-8C90-C83F37B7F23D";
name = Bold;
paths = (
{
closed = 1;
nodes = (
"237 0 LINE",
"551 0 LINE",
"1306 1270 LINE",
"1339 1476 LINE",
"341 1476 LINE",
"304 1244 LINE",
"978 1244 LINE"
);
}
);
width = 1379;
}
);
unicode = 0037;
},
{
glyphname = eight;
lastChange = "2014-01-29 21:29:48 -0800";
layers = (
{
layerId = "F85E8FEC-B3CD-4A54-BF30-AB1986ECE904";
name = Regular;
paths = (
{
closed = 1;
nodes = (
"503 -22 CURVE SMOOTH",
"803 -22 OFFCURVE",
"1020 103 OFFCURVE",
"1062 367 CURVE SMOOTH",
"1095 580 OFFCURVE",
"966 703 OFFCURVE",
"819 773 CURVE",
"981 842 OFFCURVE",
"1122 922 OFFCURVE",
"1151 1108 CURVE SMOOTH",
"1193 1375 OFFCURVE",
"996 1468 OFFCURVE",
"744 1468 CURVE SMOOTH",
"489 1468 OFFCURVE",
"263 1375 OFFCURVE",
"221 1108 CURVE SMOOTH",
"192 922 OFFCURVE",
"306 842 OFFCURVE",
"446 773 CURVE",
"277 703 OFFCURVE",
"109 580 OFFCURVE",
"76 367 CURVE SMOOTH",
"34 103 OFFCURVE",
"209 -22 OFFCURVE"
);
},
{
closed = 1;
nodes = (
"534 140 CURVE SMOOTH",
"343 140 OFFCURVE",
"240 199 OFFCURVE",
"267 372 CURVE SMOOTH",
"292 529 OFFCURVE",
"444 610 OFFCURVE",
"620 689 CURVE",
"769 610 OFFCURVE",
"896 529 OFFCURVE",
"871 372 CURVE SMOOTH",
"844 199 OFFCURVE",
"722 140 OFFCURVE"
);
},
{
closed = 1;
nodes = (
"644 846 CURVE",
"510 916 OFFCURVE",
"395 977 OFFCURVE",
"416 1107 CURVE SMOOTH",
"435 1230 OFFCURVE",
"517 1306 OFFCURVE",
"718 1306 CURVE SMOOTH",
"917 1306 OFFCURVE",
"975 1230 OFFCURVE",
"956 1107 CURVE SMOOTH",
"935 977 OFFCURVE",
"802 917 OFFCURVE"
);
}
);
width = 1250;
},
{
layerId = "C6C96970-2BBD-4A47-8C90-C83F37B7F23D";
name = Bold;
paths = (
{
closed = 1;
nodes = (
"567 -20 CURVE SMOOTH",
"920 -20 OFFCURVE",
"1138 119 OFFCURVE",
"1178 374 CURVE SMOOTH",
"1206 551 OFFCURVE",
"1134 697 OFFCURVE",
"911 783 CURVE",
"1127 848 OFFCURVE",
"1238 982 OFFCURVE",
"1261 1128 CURVE SMOOTH",
"1293 1333 OFFCURVE",
"1181 1496 OFFCURVE",
"809 1496 CURVE SMOOTH",
"440 1496 OFFCURVE",
"266 1335 OFFCURVE",
"234 1134 CURVE SMOOTH",
"209 975 OFFCURVE",
"276 847 OFFCURVE",
"464 783 CURVE",
"255 697 OFFCURVE",
"118 571 OFFCURVE",
"86 372 CURVE SMOOTH",
"47 126 OFFCURVE",
"225 -20 OFFCURVE"
);
},
{
closed = 1;
nodes = (
"603 193 CURVE SMOOTH",
"396 193 OFFCURVE",
"345 282 OFFCURVE",
"362 391 CURVE SMOOTH",
"380 502 OFFCURVE",
"481 592 OFFCURVE",
"678 672 CURVE",
"850 592 OFFCURVE",
"922 502 OFFCURVE",
"904 391 CURVE SMOOTH",
"887 283 OFFCURVE",
"809 193 OFFCURVE"
);
},
{
closed = 1;
nodes = (
"709 869 CURVE",
"553 950 OFFCURVE",
"494 1010 OFFCURVE",
"511 1119 CURVE SMOOTH",
"527 1217 OFFCURVE",
"592 1289 OFFCURVE",
"776 1289 CURVE SMOOTH",
"961 1289 OFFCURVE",
"999 1213 OFFCURVE",
"984 1119 CURVE SMOOTH",
"968 1015 OFFCURVE",
"884 950 OFFCURVE"
);
}
);
width = 1379;
}
);
unicode = 0038;
},
{
glyphname = nine;
lastChange = "2014-01-29 21:29:48 -0800";
layers = (
{
layerId = "F85E8FEC-B3CD-4A54-BF30-AB1986ECE904";
name = Regular;
paths = (
{
closed = 1;
nodes = (
"335 0 LINE",
"535 0 LINE",
"936 549 LINE",
"1056 718 OFFCURVE",
"1129 878 OFFCURVE",
"1151 1020 CURVE SMOOTH",
"1202 1340 OFFCURVE",
"1029 1468 OFFCURVE",
"753 1468 CURVE SMOOTH",
"477 1468 OFFCURVE",
"247 1342 OFFCURVE",
"197 1024 CURVE SMOOTH",
"145 694 OFFCURVE",
"308 568 OFFCURVE",
"604 568 CURVE SMOOTH",
"664 568 OFFCURVE",
"742 586 OFFCURVE",
"788 605 CURVE"
);
},
{
closed = 1;
nodes = (
"634 731 CURVE SMOOTH",
"455 731 OFFCURVE",
"345 778 OFFCURVE",
"384 1024 CURVE SMOOTH",
"420 1249 OFFCURVE",
"545 1306 OFFCURVE",
"725 1306 CURVE SMOOTH",
"906 1306 OFFCURVE",
"1001 1249 OFFCURVE",
"964 1021 CURVE SMOOTH",
"929 800 OFFCURVE",
"815 731 OFFCURVE"
);
}
);
width = 1250;
},
{
layerId = "C6C96970-2BBD-4A47-8C90-C83F37B7F23D";
name = Bold;
paths = (
{
closed = 1;
nodes = (
"368 0 LINE",
"688 0 LINE",
"1061 528 LINE SMOOTH",
"1163 677 OFFCURVE",
"1244 833 OFFCURVE",
"1275 1024 CURVE SMOOTH",
"1323 1327 OFFCURVE",
"1162 1496 OFFCURVE",
"826 1496 CURVE SMOOTH",
"478 1496 OFFCURVE",
"259 1332 OFFCURVE",
"213 1037 CURVE SMOOTH",
"156 679 OFFCURVE",
"314 569 OFFCURVE",
"628 569 CURVE SMOOTH",
"658 569 OFFCURVE",
"745 578 OFFCURVE",
"783 589 CURVE"
);
},
{
closed = 1;
nodes = (
"712 782 CURVE SMOOTH",
"520 782 OFFCURVE",
"467 844 OFFCURVE",
"498 1037 CURVE SMOOTH",
"523 1194 OFFCURVE",
"627 1282 OFFCURVE",
"789 1282 CURVE SMOOTH",
"940 1282 OFFCURVE",
"1010 1195 OFFCURVE",
"985 1039 CURVE SMOOTH",
"955 848 OFFCURVE",
"887 782 OFFCURVE"
);
}
);
width = 1379;
}
);
unicode = 0039;
},
{
glyphname = fraction;
lastChange = "2014-01-29 21:29:48 -0800";
layers = (
{
layerId = "F85E8FEC-B3CD-4A54-BF30-AB1986ECE904";
name = Regular;
paths = (
{
closed = 1;
nodes = (
"-103 0 LINE",
"84 0 LINE",
"871 1506 LINE",
"688 1506 LINE"
);
}
);
width = 768;
},
{
layerId = "C6C96970-2BBD-4A47-8C90-C83F37B7F23D";
name = Bold;
paths = (
{
closed = 1;
nodes = (
"-65 0 LINE",
"178 0 LINE",
"985 1516 LINE",
"742 1516 LINE"
);
}
);
width = 919;
}
);
unicode = 2044;
},
{
glyphname = onehalf;
lastChange = "2014-01-29 21:29:48 -0800";
layers = (
{
layerId = "F85E8FEC-B3CD-4A54-BF30-AB1986ECE904";
name = Regular;
paths = (
{
closed = 1;
nodes = (
"1252 2 LINE",
"1764 2 LINE",
"1780 101 LINE",
"1409 101 LINE",
"1660 339 LINE SMOOTH",
"1756 431 OFFCURVE",
"1838 495 OFFCURVE",
"1859 625 CURVE SMOOTH",
"1880 758 OFFCURVE",
"1813 867 OFFCURVE",
"1632 867 CURVE SMOOTH",
"1463 867 OFFCURVE",
"1338 789 OFFCURVE",
"1309 605 CURVE",
"1426 605 LINE",
"1447 741 OFFCURVE",
"1496 765 OFFCURVE",
"1618 765 CURVE SMOOTH",
"1721 765 OFFCURVE",
"1757 719 OFFCURVE",
"1742 624 CURVE SMOOTH",
"1729 542 OFFCURVE",
"1687 503 OFFCURVE",
"1589 413 CURVE",
"1256 94 LINE"
);
},
{
closed = 1;
nodes = (
"148 654 LINE",
"784 654 LINE",
"800 755 LINE",
"569 755 LINE",
"688 1505 LINE",
"581 1505 LINE",
"284 1472 LINE",
"279 1368 LINE",
"540 1394 LINE",
"438 755 LINE",
"164 755 LINE"
);
},
{
closed = 1;
nodes = (
"568 0 LINE",
"700 0 LINE",
"1607 1446 LINE",
"1481 1446 LINE"
);
}
);
width = 2047;
},
{
layerId = "C6C96970-2BBD-4A47-8C90-C83F37B7F23D";
name = Bold;
paths = (
{
closed = 1;
nodes = (
"1604 -2 LINE",
"2251 -2 LINE",
"2276 160 LINE",
"1839 160 LINE",
"2108 386 LINE SMOOTH",
"2244 501 OFFCURVE",
"2359 612 OFFCURVE",
"2383 767 CURVE SMOOTH",
"2411 940 OFFCURVE",
"2346 1071 OFFCURVE",
"2076 1071 CURVE SMOOTH",
"1791 1071 OFFCURVE",
"1685 958 OFFCURVE",
"1645 706 CURVE",
"1863 706 LINE",
"1887 860 OFFCURVE",
"1917 911 OFFCURVE",
"2052 911 CURVE SMOOTH",
"2156 911 OFFCURVE",
"2186 863 OFFCURVE",
"2169 765 CURVE",
"2155 675 OFFCURVE",
"2097 606 OFFCURVE",
"1996 518 CURVE SMOOTH",
"1584 159 LINE"
);
},
{
closed = 1;
nodes = (
"79 422 LINE",
"804 422 LINE",
"827 569 LINE",
"581 569 LINE",
"725 1477 LINE",
"579 1477 LINE",
"235 1424 LINE",
"230 1279 LINE",
"488 1318 LINE",
"369 569 LINE",
"101 569 LINE"
);
},
{
closed = 1;
nodes = (
"760 0 LINE",
"934 0 LINE",
"1813 1505 LINE",
"1639 1505 LINE"
);
}
);
width = 2579;
}
);
unicode = 00BD;
},
{
glyphname = onequarter;
lastChange = "2014-01-29 21:29:48 -0800";
layers = (
{
layerId = "F85E8FEC-B3CD-4A54-BF30-AB1986ECE904";
name = Regular;
paths = (
{
closed = 1;
nodes = (
"1536 0 LINE",
"1649 0 LINE",
"1682 207 LINE",
"1826 207 LINE",
"1840 298 LINE",
"1696 298 LINE",
"1733 533 LINE",
"1620 533 LINE",
"1583 298 LINE",
"1301 298 LINE",
"1743 892 LINE",
"1602 892 LINE",
"1149 299 LINE",
"1135 207 LINE",
"1569 207 LINE"
);
},
{
closed = 1;
nodes = (
"148 654 LINE",
"784 654 LINE",
"800 755 LINE",
"569 755 LINE",
"688 1505 LINE",
"581 1505 LINE",
"284 1472 LINE",
"279 1368 LINE",
"540 1394 LINE",
"438 755 LINE",
"164 755 LINE"
);
},
{
closed = 1;
nodes = (
"568 0 LINE",
"700 0 LINE",
"1607 1446 LINE",
"1481 1446 LINE"
);
}
);
width = 2047;
},
{
layerId = "C6C96970-2BBD-4A47-8C90-C83F37B7F23D";
name = Bold;
paths = (
{
closed = 1;
nodes = (
"1859 0 LINE",
"2018 0 LINE",
"2051 210 LINE",
"2219 210 LINE",
"2245 373 LINE",
"2077 373 LINE",
"2115 615 LINE",
"1956 615 LINE",
"1918 373 LINE",
"1619 373 LINE",
"1999 1074 LINE",
"1808 1074 LINE",
"1416 369 LINE",
"1391 210 LINE",
"1892 210 LINE"
);
},
{
closed = 1;
nodes = (
"79 422 LINE",
"804 422 LINE",
"827 569 LINE",
"581 569 LINE",
"725 1477 LINE",
"579 1477 LINE",
"234 1424 LINE",
"229 1279 LINE",
"488 1318 LINE",
"369 569 LINE",
"101 569 LINE"
);
},
{
closed = 1;
nodes = (
"730 0 LINE",
"904 0 LINE",
"1783 1505 LINE",
"1609 1505 LINE"
);
}
);
width = 2433.36;
}
);
unicode = 00BC;
},
{
glyphname = threequarters;
lastChange = "2014-01-29 21:29:48 -0800";
layers = (
{
layerId = "F85E8FEC-B3CD-4A54-BF30-AB1986ECE904";
name = Regular;
paths = (
{
closed = 1;
nodes = (
"523 653 CURVE SMOOTH",
"722 653 OFFCURVE",
"844 736 OFFCURVE",
"869 896 CURVE SMOOTH",
"891 1037 OFFCURVE",
"833 1090 OFFCURVE",
"720 1110 CURVE",
"840 1126 OFFCURVE",
"895 1187 OFFCURVE",
"912 1297 CURVE SMOOTH",
"937 1449 OFFCURVE",
"826 1515 OFFCURVE",
"652 1515 CURVE SMOOTH",
"471 1515 OFFCURVE",
"331 1477 OFFCURVE",
"290 1253 CURVE",
"425 1253 LINE",
"449 1408 OFFCURVE",
"513 1421 OFFCURVE",
"638 1421 CURVE SMOOTH",
"759 1421 OFFCURVE",
"793 1374 OFFCURVE",
"780 1295 CURVE SMOOTH",
"765 1200 OFFCURVE",
"747 1151 OFFCURVE",
"531 1151 CURVE",
"518 1066 LINE",
"728 1066 OFFCURVE",
"755 1025 OFFCURVE",
"735 897 CURVE SMOOTH",
"720 799 OFFCURVE",
"667 746 OFFCURVE",
"545 746 CURVE SMOOTH",
"406 746 OFFCURVE",
"345 774 OFFCURVE",
"362 932 CURVE",
"227 932 LINE",
"211 719 OFFCURVE",
"297 653 OFFCURVE"
);
},
{
closed = 1;
nodes = (
"1535 0 LINE",
"1648 0 LINE",
"1681 207 LINE",
"1825 207 LINE",
"1839 298 LINE",
"1695 298 LINE",
"1732 533 LINE",
"1619 533 LINE",
"1582 298 LINE",
"1300 298 LINE",
"1742 892 LINE",
"1601 892 LINE",
"1148 299 LINE",
"1134 207 LINE",
"1568 207 LINE"
);
},
{
closed = 1;
nodes = (
"567 0 LINE",
"699 0 LINE",
"1606 1446 LINE",
"1480 1446 LINE"
);
}
);
width = 2047;
},
{
layerId = "C6C96970-2BBD-4A47-8C90-C83F37B7F23D";
name = Bold;
paths = (
{
closed = 1;
nodes = (
"563 437 CURVE SMOOTH",
"839 437 OFFCURVE",
"940 582 OFFCURVE",
"966 744 CURVE SMOOTH",
"985 863 OFFCURVE",
"963 956 OFFCURVE",
"841 990 CURVE",
"980 1018 OFFCURVE",
"1016 1120 OFFCURVE",
"1032 1219 CURVE SMOOTH",
"1059 1392 OFFCURVE",
"962 1496 OFFCURVE",
"737 1496 CURVE SMOOTH",
"508 1496 OFFCURVE",
"356 1423 OFFCURVE",
"313 1156 CURVE",
"498 1156 LINE",
"521 1310 OFFCURVE",
"562 1344 OFFCURVE",
"705 1344 CURVE SMOOTH",
"829 1344 OFFCURVE",
"859 1297 OFFCURVE",
"845 1209 CURVE SMOOTH",
"829 1106 OFFCURVE",
"816 1059 OFFCURVE",
"611 1059 CURVE",
"588 917 LINE",
"772 917 OFFCURVE",
"798 873 OFFCURVE",
"779 753 CURVE SMOOTH",
"763 651 OFFCURVE",
"728 591 OFFCURVE",
"600 591 CURVE SMOOTH",
"463 591 OFFCURVE",
"410 612 OFFCURVE",
"433 773 CURVE",
"248 773 LINE",
"216 537 OFFCURVE",
"294 437 OFFCURVE"
);
},
{
closed = 1;
nodes = (
"1899 0 LINE",
"2058 0 LINE",
"2091 210 LINE",
"2259 210 LINE",
"2285 373 LINE",
"2117 373 LINE",
"2155 615 LINE",
"1996 615 LINE",
"1958 373 LINE",
"1659 373 LINE",
"2039 1074 LINE",
"1848 1074 LINE",
"1456 369 LINE",
"1431 210 LINE",
"1932 210 LINE"
);
},
{
closed = 1;
nodes = (
"770 0 LINE",
"944 0 LINE",
"1823 1505 LINE",
"1649 1505 LINE"
);
}
);
width = 2882;
}
);
unicode = 00BE;
},
{
glyphname = onesuperior;
lastChange = "2014-01-29 21:29:48 -0800";
layers = (
{
layerId = "F85E8FEC-B3CD-4A54-BF30-AB1986ECE904";
name = Regular;
paths = (
{
closed = 1;
nodes = (
"140 694 LINE",
"776 694 LINE",
"792 795 LINE",
"561 795 LINE",
"679 1545 LINE",
"572 1545 LINE",
"275 1512 LINE",
"271 1408 LINE",
"531 1434 LINE",
"430 795 LINE",
"156 795 LINE"
);
}
);
width = 1050;
},
{
layerId = "C6C96970-2BBD-4A47-8C90-C83F37B7F23D";
name = Bold;
paths = (
{
closed = 1;
nodes = (
"139 624 LINE",
"867 624 LINE",
"889 761 LINE",
"640 761 LINE",
"766 1556 LINE",
"631 1556 LINE",
"276 1509 LINE",
"271 1366 LINE",
"546 1401 LINE",
"445 761 LINE",
"161 761 LINE"
);
}
);
width = 1127;
}
);
unicode = 00B9;
},
{
glyphname = twosuperior;
lastChange = "2014-01-29 21:29:48 -0800";
layers = (
{
layerId = "F85E8FEC-B3CD-4A54-BF30-AB1986ECE904";
name = Regular;
paths = (
{
closed = 1;
nodes = (
"173 694 LINE",
"753 694 LINE",
"770 804 LINE",
"352 804 LINE",
"592 974 LINE",
"736 1087 OFFCURVE",
"828 1165 OFFCURVE",
"852 1318 CURVE",
"878 1483 OFFCURVE",
"782 1584 OFFCURVE",
"596 1584 CURVE",
"408 1584 OFFCURVE",
"257 1498 OFFCURVE",
"223 1270 CURVE",
"366 1270 LINE",
"391 1438 OFFCURVE",
"466 1479 OFFCURVE",
"587 1479 CURVE",
"687 1479 OFFCURVE",
"737 1430 OFFCURVE",
"720 1319 CURVE",
"703 1213 OFFCURVE",
"654 1165 OFFCURVE",
"528 1066 CURVE",
"180 808 LINE"
);
}
);
width = 1050;
},
{
layerId = "C6C96970-2BBD-4A47-8C90-C83F37B7F23D";
name = Bold;
paths = (
{
closed = 1;
nodes = (
"113 624 LINE",
"752 624 LINE",
"776 773 LINE",
"348 773 LINE",
"622 971 LINE SMOOTH",
"775 1081 OFFCURVE",
"855 1163 OFFCURVE",
"875 1295 CURVE SMOOTH",
"901 1455 OFFCURVE",
"822 1582 OFFCURVE",
"573 1582 CURVE SMOOTH",
"311 1582 OFFCURVE",
"195 1487 OFFCURVE",
"158 1256 CURVE",
"359 1256 LINE",
"382 1397 OFFCURVE",
"434 1435 OFFCURVE",
"558 1435 CURVE SMOOTH",
"667 1435 OFFCURVE",
"700 1384 OFFCURVE",
"685 1294 CURVE SMOOTH",
"674 1221 OFFCURVE",
"640 1177 OFFCURVE",
"522 1087 CURVE SMOOTH",
"113 772 LINE"
);
}
);
width = 1005;
}
);
unicode = 00B2;
},
{
glyphname = threesuperior;
lastChange = "2014-01-29 21:29:48 -0800";
layers = (
{
layerId = "F85E8FEC-B3CD-4A54-BF30-AB1986ECE904";
name = Regular;
paths = (
{
closed = 1;
nodes = (
"158 729 OFFCURVE",
"281 666 OFFCURVE",
"484 666 CURVE",
"667 666 OFFCURVE",
"808 748 OFFCURVE",
"836 925 CURVE",
"856 1051 OFFCURVE",
"810 1118 OFFCURVE",
"694 1144 CURVE",
"817 1173 OFFCURVE",
"870 1249 OFFCURVE",
"885 1345 CURVE",
"910 1503 OFFCURVE",
"783 1584 OFFCURVE",
"631 1584 CURVE",
"453 1584 OFFCURVE",
"290 1532 OFFCURVE",
"252 1289 CURVE",
"381 1289 LINE",
"401 1443 OFFCURVE",
"481 1475 OFFCURVE",
"610 1475 CURVE",
"733 1475 OFFCURVE",
"769 1410 OFFCURVE",
"759 1343 CURVE",
"745 1257 OFFCURVE",
"729 1193 OFFCURVE",
"483 1194 CURVE",
"466 1089 LINE",
"685 1090 OFFCURVE",
"728 1042 OFFCURVE",
"708 918 CURVE",
"694 826 OFFCURVE",
"608 774 OFFCURVE",
"506 774 CURVE",
"383 774 OFFCURVE",
"295 797 OFFCURVE",
"321 971 CURVE",
"190 971 LINE"
);
}
);
width = 1050;
},
{
layerId = "C6C96970-2BBD-4A47-8C90-C83F37B7F23D";
name = Bold;
paths = (
{
closed = 1;
nodes = (
"391 608 CURVE SMOOTH",
"595 607 OFFCURVE",
"741 688 OFFCURVE",
"770 874 CURVE SMOOTH",
"789 997 OFFCURVE",
"752 1073 OFFCURVE",
"638 1104 CURVE",
"757 1126 OFFCURVE",
"817 1223 OFFCURVE",
"830 1334 CURVE SMOOTH",
"850 1513 OFFCURVE",
"725 1582 OFFCURVE",
"543 1582 CURVE SMOOTH",
"335 1582 OFFCURVE",
"208 1485 OFFCURVE",
"174 1276 CURVE",
"363 1276 LINE",
"380 1386 OFFCURVE",
"416 1432 OFFCURVE",
"519 1432 CURVE SMOOTH",
"625 1432 OFFCURVE",
"643 1378 OFFCURVE",
"632 1310 CURVE SMOOTH",
"617 1212 OFFCURVE",
"576 1174 OFFCURVE",
"401 1174 CURVE",
"378 1034 LINE",
"553 1034 OFFCURVE",
"589 994 OFFCURVE",
"571 879 CURVE SMOOTH",
"558 798 OFFCURVE",
"509 760 OFFCURVE",
"413 760 CURVE SMOOTH",
"313 760 OFFCURVE",
"287 807 OFFCURVE",
"302 918 CURVE",
"112 918 LINE",
"82 708 OFFCURVE",
"189 609 OFFCURVE"
);
}
);
width = 927;
}
);
unicode = 00B3;
},
{
glyphname = foursuperior;
lastChange = "2014-01-29 21:29:48 -0800";
layers = (
{
layerId = "F85E8FEC-B3CD-4A54-BF30-AB1986ECE904";
name = Regular;
paths = (
{
closed = 1;
nodes = (
"526 694 LINE",
"645 694 LINE",
"674 877 LINE",
"802 877 LINE",
"818 979 LINE",
"690 979 LINE",
"723 1186 LINE",
"604 1186 LINE",
"571 979 LINE",
"329 979 LINE",
"756 1545 LINE",
"615 1545 LINE",
"166 972 LINE",
"151 877 LINE",
"555 877 LINE"
);
}
);
width = 1050;
},
{
layerId = "C6C96970-2BBD-4A47-8C90-C83F37B7F23D";
name = Bold;
paths = (
{
closed = 1;
nodes = (
"545 616 LINE",
"700 616 LINE",
"731 813 LINE",
"876 813 LINE",
"901 973 LINE",
"756 973 LINE",
"790 1183 LINE",
"635 1183 LINE",
"601 973 LINE",
"394 973 LINE",
"721 1566 LINE",
"510 1566 LINE",
"162 975 LINE",
"136 813 LINE",
"576 813 LINE"
);
}
);
width = 1116;
}
);
unicode = 2074;
},
{
glyphname = asterisk;
lastChange = "2014-01-29 21:29:48 -0800";
layers = (
{
layerId = "F85E8FEC-B3CD-4A54-BF30-AB1986ECE904";
name = Regular;
paths = (
{
closed = 1;
nodes = (
"356 599 LINE",
"534 599 LINE",
"554 912 LINE",
"771 722 LINE",
"891 875 LINE",
"633 1017 LINE",
"943 1134 LINE",
"887 1295 LINE",
"587 1121 LINE",
"668 1446 LINE",
"490 1446 LINE",
"469 1133 LINE",
"252 1323 LINE",
"132 1170 LINE",
"390 1028 LINE",
"81 911 LINE",
"136 750 LINE",
"436 924 LINE"
);
}
);
width = 1024;
},
{
layerId = "C6C96970-2BBD-4A47-8C90-C83F37B7F23D";
name = Bold;
paths = (
{
closed = 1;
nodes = (
"343 599 LINE",
"521 599 LINE",
"541 912 LINE",
"758 722 LINE",
"878 875 LINE",
"620 1017 LINE",
"930 1134 LINE",
"874 1295 LINE",
"574 1121 LINE",
"655 1446 LINE",
"477 1446 LINE",
"456 1133 LINE",
"239 1323 LINE",
"119 1170 LINE",
"377 1028 LINE",
"68 911 LINE",
"123 750 LINE",
"423 924 LINE"
);
}
);
width = 998;
}
);
unicode = 002A;
},
{
glyphname = backslash;
lastChange = "2014-01-29 21:29:48 -0800";
layers = (
{
layerId = "F85E8FEC-B3CD-4A54-BF30-AB1986ECE904";
name = Regular;
paths = (
{
closed = 1;
nodes = (
"402 0 LINE",
"585 0 LINE",
"370 1506 LINE",
"183 1506 LINE"
);
}
);
width = 768;
},
{
layerId = "C6C96970-2BBD-4A47-8C90-C83F37B7F23D";
name = Bold;
paths = (
{
closed = 1;
nodes = (
"555 0 LINE",
"798 0 LINE",
"469 1516 LINE",
"226 1516 LINE"
);
}
);
width = 1024;
}
);
unicode = 005C;
},
{
glyphname = bullet;
lastChange = "2014-01-29 21:29:48 -0800";
layers = (
{
layerId = "F85E8FEC-B3CD-4A54-BF30-AB1986ECE904";
name = Regular;
paths = (
{
closed = 1;
nodes = (
"438 298 CURVE SMOOTH",
"665 298 OFFCURVE",
"764 405 OFFCURVE",
"795 599 CURVE SMOOTH",
"826 795 OFFCURVE",
"762 901 OFFCURVE",
"535 901 CURVE SMOOTH",
"310 901 OFFCURVE",
"211 795 OFFCURVE",
"180 599 CURVE SMOOTH",
"149 404 OFFCURVE",
"212 298 OFFCURVE"
);
}
);
width = 975;
},
{
layerId = "C6C96970-2BBD-4A47-8C90-C83F37B7F23D";
name = Bold;
paths = (
{
closed = 1;
nodes = (
"461 390 CURVE SMOOTH",
"654 390 OFFCURVE",
"803 524 OFFCURVE",
"832 707 CURVE SMOOTH",
"861 891 OFFCURVE",
"754 1025 OFFCURVE",
"562 1025 CURVE SMOOTH",
"369 1025 OFFCURVE",
"221 891 OFFCURVE",
"192 707 CURVE SMOOTH",
"163 523 OFFCURVE",
"269 390 OFFCURVE"
);
}
);
width = 1024;
}
);
unicode = 2022;
},
{
glyphname = comma;
lastChange = "2014-01-29 21:29:48 -0800";
layers = (
{
layerId = "F85E8FEC-B3CD-4A54-BF30-AB1986ECE904";
name = Regular;
paths = (
{
closed = 1;
nodes = (
"232 -338 LINE",
"298 -284 OFFCURVE",
"435 -141 OFFCURVE",
"465 50 CURVE SMOOTH",
"494 233 LINE",
"237 233 LINE",
"200 0 LINE",
"341 0 LINE",
"320 -132 OFFCURVE",
"213 -239 OFFCURVE",
"158 -294 CURVE"
);
}
);
width = 641;
},
{
layerId = "C6C96970-2BBD-4A47-8C90-C83F37B7F23D";
name = Bold;
paths = (
{
closed = 1;
nodes = (
"296 -389 LINE",
"367 -333 OFFCURVE",
"531 -148 OFFCURVE",
"562 53 CURVE SMOOTH",
"598 276 LINE",
"276 276 LINE",
"232 0 LINE",
"397 0 LINE",
"375 -138 OFFCURVE",
"257 -285 OFFCURVE",
"197 -343 CURVE"
);
}
);
width = 768;
}
);
unicode = 002C;
},
{
glyphname = exclam;
lastChange = "2014-01-29 21:29:48 -0800";
layers = (
{
layerId = "F85E8FEC-B3CD-4A54-BF30-AB1986ECE904";
name = Regular;
paths = (
{
closed = 1;
nodes = (
"165 0 LINE",
"369 0 LINE",
"402 206 LINE",
"198 206 LINE"
);
},
{
closed = 1;
nodes = (
"297 371 CURVE",
"353 371 LINE",
"353 371 OFFCURVE",
"541 1060 OFFCURVE",
"603 1446 CURVE",
"401 1446 LINE",
"339 1060 OFFCURVE",
"297 371 OFFCURVE"
);
}
);
width = 768;
},
{
layerId = "C6C96970-2BBD-4A47-8C90-C83F37B7F23D";
name = Bold;
paths = (
{
closed = 1;
nodes = (
"75 0 LINE",
"325 0 LINE",
"364 245 LINE",
"114 245 LINE"
);
},
{
closed = 1;
nodes = (
"228 410 CURVE",
"304 410 LINE",
"304 410 OFFCURVE",
"554 1359 OFFCURVE",
"573 1477 CURVE",
"314 1477 LINE",
"295 1359 OFFCURVE",
"228 410 OFFCURVE"
);
}
);
width = 648;
}
);
unicode = 0021;
},
{
glyphname = numbersign;
lastChange = "2014-01-29 21:29:48 -0800";
layers = (
{
layerId = "F85E8FEC-B3CD-4A54-BF30-AB1986ECE904";
name = Regular;
paths = (
{
closed = 1;
nodes = (
"65 0 LINE",
"243 0 LINE",
"403 475 LINE",
"701 475 LINE",
"538 0 LINE",
"716 0 LINE",
"876 475 LINE",
"1135 475 LINE",
"1154 594 LINE",
"916 594 LINE",
"1022 910 LINE",
"1228 910 LINE",
"1246 1029 LINE",
"1061 1029 LINE",
"1202 1446 LINE",
"1032 1446 LINE",
"889 1029 LINE",
"588 1029 LINE",
"729 1446 LINE",
"559 1446 LINE",
"416 1029 LINE",
"158 1029 LINE",
"140 910 LINE",
"376 910 LINE",
"269 594 LINE",
"66 594 LINE",
"47 475 LINE",
"228 475 LINE"
);
},
{
closed = 1;
nodes = (
"443 594 LINE",
"549 910 LINE",
"849 910 LINE",
"742 594 LINE"
);
}
);
width = 1284;
},
{
layerId = "C6C96970-2BBD-4A47-8C90-C83F37B7F23D";
name = Bold;
paths = (
{
closed = 1;
nodes = (
"106 0 LINE",
"312 0 LINE",
"471 478 LINE",
"728 478 LINE",
"566 0 LINE",
"772 0 LINE",
"930 478 LINE",
"1203 478 LINE",
"1225 618 LINE",
"977 618 LINE",
"1069 896 LINE",
"1293 896 LINE",
"1315 1036 LINE",
"1116 1036 LINE",
"1262 1477 LINE",
"1064 1477 LINE",
"915 1036 LINE",
"656 1036 LINE",
"802 1477 LINE",
"604 1477 LINE",
"455 1036 LINE",
"175 1036 LINE",
"153 896 LINE",
"409 896 LINE",
"315 618 LINE",
"85 618 LINE",
"63 478 LINE",
"268 478 LINE"
);
},
{
closed = 1;
nodes = (
"517 618 LINE",
"609 896 LINE",
"868 896 LINE",
"774 618 LINE"
);
}
);
width = 1430;
}
);
unicode = 0023;
},
{
glyphname = period;
lastChange = "2014-01-29 21:29:47 -0800";
layers = (
{
layerId = "F85E8FEC-B3CD-4A54-BF30-AB1986ECE904";
name = Regular;
paths = (
{
closed = 1;
nodes = (
"167 0 LINE",
"423 0 LINE",
"461 242 LINE",
"205 242 LINE"
);
}
);
width = 628;
},
{
layerId = "C6C96970-2BBD-4A47-8C90-C83F37B7F23D";
name = Bold;
paths = (
{
closed = 1;
nodes = (
"142 0 LINE",
"440 0 LINE",
"484 284 LINE",
"186 284 LINE"
);
}
);
width = 634;
}
);
unicode = 002E;
},
{
glyphname = periodcentered;
lastChange = "2014-01-29 21:29:47 -0800";
layers = (
{
anchors = (
{
name = _mid;
position = "{103, 714}";
}
);
layerId = "F85E8FEC-B3CD-4A54-BF30-AB1986ECE904";
name = Regular;
paths = (
{
closed = 1;
nodes = (
"413 622 LINE",
"618 622 LINE",
"650 828 LINE",
"445 828 LINE"
);
}
);
width = 734;
},
{
anchors = (
{
name = _mid;
position = "{1, 902}";
}
);
layerId = "C6C96970-2BBD-4A47-8C90-C83F37B7F23D";
name = Bold;
paths = (
{
closed = 1;
nodes = (
"245 780 LINE",
"493 780 LINE",
"531 1025 LINE",
"283 1025 LINE"
);
}
);
width = 512;
}
);
unicode = 00B7;
},
{
glyphname = question;
lastChange = "2014-01-29 21:29:48 -0800";
layers = (
{
layerId = "F85E8FEC-B3CD-4A54-BF30-AB1986ECE904";
name = Regular;
paths = (
{
closed = 1;
nodes = (
"418 431 LINE",
"578 431 LINE",
"821 650 LINE SMOOTH",
"1002 814 OFFCURVE",
"1127 931 OFFCURVE",
"1156 1114 CURVE SMOOTH",
"1182 1277 OFFCURVE",
"1121 1468 OFFCURVE",
"773 1468 CURVE SMOOTH",
"432 1468 OFFCURVE",
"280 1374 OFFCURVE",
"232 1071 CURVE SMOOTH",
"227 1039 LINE",
"424 1039 LINE",
"433 1092 LINE SMOOTH",
"454 1225 OFFCURVE",
"532 1306 OFFCURVE",
"748 1306 CURVE SMOOTH",
"927 1306 OFFCURVE",
"960 1222 OFFCURVE",
"941 1103 CURVE SMOOTH",
"923 986 OFFCURVE",
"853 909 OFFCURVE",
"750 795 CURVE SMOOTH"
);
},
{
closed = 1;
nodes = (
"324 0 LINE",
"528 0 LINE",
"560 206 LINE",
"356 206 LINE"
);
}
);
width = 1240;
},
{
layerId = "C6C96970-2BBD-4A47-8C90-C83F37B7F23D";
name = Bold;
paths = (
{
closed = 1;
nodes = (
"394 431 LINE",
"623 431 LINE",
"829 582 LINE SMOOTH",
"1035 733 OFFCURVE",
"1136 862 OFFCURVE",
"1168 1067 CURVE SMOOTH",
"1203 1289 OFFCURVE",
"1166 1501 OFFCURVE",
"738 1501 CURVE SMOOTH",
"305 1501 OFFCURVE",
"218 1309 OFFCURVE",
"175 1036 CURVE SMOOTH",
"163 962 LINE",
"437 962 LINE",
"451 1047 LINE SMOOTH",
"473 1188 OFFCURVE",
"501 1279 OFFCURVE",
"703 1279 CURVE SMOOTH",
"889 1279 OFFCURVE",
"892 1166 OFFCURVE",
"874 1056 CURVE SMOOTH",
"855 936 OFFCURVE",
"806 860 OFFCURVE",
"691 740 CURVE SMOOTH"
);
},
{
closed = 1;
nodes = (
"310 0 LINE",
"559 0 LINE",
"598 245 LINE",
"349 245 LINE"
);
}
);
width = 1244;
}
);
unicode = 003F;
},
{
glyphname = quotedbl;
lastChange = "2014-01-29 21:29:48 -0800";
layers = (
{
layerId = "F85E8FEC-B3CD-4A54-BF30-AB1986ECE904";
name = Regular;
paths = (
{
closed = 1;
nodes = (
"174 930 LINE",
"286 930 LINE",
"427 1506 LINE",
"222 1506 LINE"
);
},
{
closed = 1;
nodes = (
"507 930 LINE",
"619 930 LINE",
"760 1506 LINE",
"555 1506 LINE"
);
}
);
width = 890;
},
{
layerId = "C6C96970-2BBD-4A47-8C90-C83F37B7F23D";
name = Bold;
paths = (
{
closed = 1;
nodes = (
"226 872 LINE",
"345 872 LINE",
"502 1516 LINE",
"249 1516 LINE"
);
},
{
closed = 1;
nodes = (
"579 872 LINE",
"698 872 LINE",
"877 1516 LINE",
"623 1516 LINE"
);
}
);
width = 1024;
}
);
unicode = 0022;
},
{
glyphname = quotesingle;
lastChange = "2014-01-29 21:29:48 -0800";
layers = (
{
layerId = "F85E8FEC-B3CD-4A54-BF30-AB1986ECE904";
name = Regular;
paths = (
{
closed = 1;
nodes = (
"177 930 LINE",
"289 930 LINE",
"430 1506 LINE",
"225 1506 LINE"
);
}
);
width = 896;
},
{
layerId = "C6C96970-2BBD-4A47-8C90-C83F37B7F23D";
name = Bold;
paths = (
{
closed = 1;
nodes = (
"286 872 LINE",
"405 872 LINE",
"562 1516 LINE",
"309 1516 LINE"
);
}
);
width = 769;
}
);
unicode = 0027;
},
{
glyphname = slash;
lastChange = "2014-01-29 21:29:48 -0800";
layers = (
{
layerId = "F85E8FEC-B3CD-4A54-BF30-AB1986ECE904";
name = Regular;
paths = (
{
closed = 1;
nodes = (
"-55 0 LINE",
"132 0 LINE",
"823 1506 LINE",
"640 1506 LINE"
);
}
);
width = 768;
},
{
layerId = "C6C96970-2BBD-4A47-8C90-C83F37B7F23D";
name = Bold;
paths = (
{
closed = 1;
nodes = (
"-14 0 LINE",
"229 0 LINE",
"1038 1516 LINE",
"795 1516 LINE"
);
}
);
width = 1024;
}
);
unicode = 002F;
},
{
glyphname = underscore;
lastChange = "2014-01-29 21:29:48 -0800";
layers = (
{
layerId = "F85E8FEC-B3CD-4A54-BF30-AB1986ECE904";
name = Regular;
paths = (
{
closed = 1;
nodes = (
"2 -104 LINE",
"903 -104 LINE",
"927 46 LINE",
"26 46 LINE"
);
}
);
width = 929;
},
{
layerId = "C6C96970-2BBD-4A47-8C90-C83F37B7F23D";
name = Bold;
paths = (
{
closed = 1;
nodes = (
"-6 -32 LINE",
"877 -32 LINE",
"905 143 LINE",
"22 143 LINE"
);
}
);
width = 904;
}
);
unicode = 005F;
},
{
glyphname = braceleft;
lastChange = "2014-01-29 21:29:48 -0800";
layers = (
{
layerId = "F85E8FEC-B3CD-4A54-BF30-AB1986ECE904";
name = Regular;
paths = (
{
closed = 1;
nodes = (
"731 -207 CURVE",
"755 -56 LINE",
"473 -56 OFFCURVE",
"476 2 OFFCURVE",
"513 235 CURVE",
"523 297 LINE",
"550 469 OFFCURVE",
"543 613 OFFCURVE",
"475 649 CURVE",
"555 686 OFFCURVE",
"608 830 OFFCURVE",
"635 1002 CURVE",
"645 1064 LINE",
"682 1297 OFFCURVE",
"697 1355 OFFCURVE",
"979 1355 CURVE",
"1003 1506 LINE",
"528 1506 OFFCURVE",
"497 1341 OFFCURVE",
"450 1046 CURVE",
"443 1005 LINE",
"394 691 OFFCURVE",
"327 725 OFFCURVE",
"171 725 CURVE",
"147 574 LINE",
"303 574 OFFCURVE",
"380 608 OFFCURVE",
"331 294 CURVE",
"324 253 LINE",
"277 -42 OFFCURVE",
"256 -207 OFFCURVE"
);
}
);
width = 952;
},
{
layerId = "C6C96970-2BBD-4A47-8C90-C83F37B7F23D";
name = Bold;
paths = (
{
closed = 1;
nodes = (
"713 -128 CURVE",
"713 -128 OFFCURVE",
"741 46 OFFCURVE",
"740 46 CURVE SMOOTH",
"567 46 OFFCURVE",
"562 101 OFFCURVE",
"586 252 CURVE SMOOTH",
"604 369 LINE SMOOTH",
"636 569 OFFCURVE",
"611 680 OFFCURVE",
"499 722 CURVE",
"618 758 OFFCURVE",
"687 896 OFFCURVE",
"716 1080 CURVE SMOOTH",
"737 1210 LINE SMOOTH",
"759 1349 OFFCURVE",
"777 1382 OFFCURVE",
"952 1382 CURVE SMOOTH",
"953 1382 OFFCURVE",
"979 1556 OFFCURVE",
"979 1556 CURVE",
"622 1556 OFFCURVE",
"506 1515 OFFCURVE",
"446 1139 CURVE SMOOTH",
"430 1036 LINE SMOOTH",
"404 873 OFFCURVE",
"354 833 OFFCURVE",
"207 833 CURVE",
"169 595 LINE",
"315 595 OFFCURVE",
"357 572 OFFCURVE",
"331 409 CURVE SMOOTH",
"317 322 LINE SMOOTH",
"264 -11 OFFCURVE",
"338 -128 OFFCURVE"
);
}
);
width = 992;
}
);
unicode = 007B;
},
{
glyphname = braceright;
lastChange = "2014-01-29 21:29:47 -0800";
layers = (
{
layerId = "F85E8FEC-B3CD-4A54-BF30-AB1986ECE904";
name = Regular;
paths = (
{
closed = 1;
nodes = (
"-8 -207 LINE",
"468 -207 OFFCURVE",
"498 -42 OFFCURVE",
"545 253 CURVE",
"552 294 LINE",
"601 608 OFFCURVE",
"668 574 OFFCURVE",
"824 574 CURVE",
"848 725 LINE",
"692 725 OFFCURVE",
"615 691 OFFCURVE",
"664 1005 CURVE",
"671 1046 LINE",
"718 1341 OFFCURVE",
"739 1506 OFFCURVE",
"264 1506 CURVE",
"240 1355 LINE",
"522 1355 OFFCURVE",
"519 1297 OFFCURVE",
"482 1064 CURVE",
"472 1002 LINE",
"445 830 OFFCURVE",
"452 686 OFFCURVE",
"520 649 CURVE",
"440 613 OFFCURVE",
"387 469 OFFCURVE",
"360 297 CURVE",
"350 235 LINE",
"313 2 OFFCURVE",
"299 -56 OFFCURVE",
"16 -56 CURVE"
);
}
);
width = 952;
},
{
layerId = "C6C96970-2BBD-4A47-8C90-C83F37B7F23D";
name = Bold;
paths = (
{
closed = 1;
nodes = (
"44 -128 CURVE",
"419 -128 OFFCURVE",
"529 -11 OFFCURVE",
"582 322 CURVE SMOOTH",
"596 409 LINE SMOOTH",
"622 572 OFFCURVE",
"670 595 OFFCURVE",
"816 595 CURVE",
"854 833 LINE",
"707 833 OFFCURVE",
"669 873 OFFCURVE",
"695 1036 CURVE SMOOTH",
"711 1139 LINE SMOOTH",
"771 1515 OFFCURVE",
"667 1556 OFFCURVE",
"310 1556 CURVE",
"310 1556 OFFCURVE",
"282 1382 OFFCURVE",
"283 1382 CURVE SMOOTH",
"458 1382 OFFCURVE",
"466 1349 OFFCURVE",
"444 1210 CURVE SMOOTH",
"423 1080 LINE SMOOTH",
"394 896 OFFCURVE",
"419 758 OFFCURVE",
"526 722 CURVE",
"402 680 OFFCURVE",
"341 569 OFFCURVE",
"309 369 CURVE SMOOTH",
"291 252 LINE SMOOTH",
"267 101 OFFCURVE",
"244 46 OFFCURVE",
"71 46 CURVE SMOOTH",
"70 46 OFFCURVE",
"44 -128 OFFCURVE"
);
}
);
width = 991;
}
);
unicode = 007D;
},
{
glyphname = bracketleft;
lastChange = "2014-01-29 21:29:48 -0800";
layers = (
{
layerId = "F85E8FEC-B3CD-4A54-BF30-AB1986ECE904";
name = Regular;
paths = (
{
closed = 1;
nodes = (
"129 -76 LINE",
"507 -76 LINE",
"528 58 LINE",
"338 58 LINE",
"550 1396 LINE",
"740 1396 LINE",
"761 1529 LINE",
"383 1529 LINE"
);
}
);
width = 768;
},
{
layerId = "C6C96970-2BBD-4A47-8C90-C83F37B7F23D";
name = Bold;
paths = (
{
closed = 1;
nodes = (
"79 -89 LINE",
"561 -89 LINE",
"586 72 LINE",
"377 72 LINE",
"593 1431 LINE",
"802 1431 LINE",
"827 1592 LINE",
"345 1592 LINE"
);
}
);
width = 842;
}
);
unicode = 005B;
},
{
glyphname = bracketright;
lastChange = "2014-01-29 21:29:48 -0800";
layers = (
{
layerId = "F85E8FEC-B3CD-4A54-BF30-AB1986ECE904";
name = Regular;
paths = (
{
closed = 1;
nodes = (
"68 -76 LINE",
"446 -76 LINE",
"700 1529 LINE",
"322 1529 LINE",
"301 1395 LINE",
"491 1395 LINE",
"279 57 LINE",
"89 57 LINE"
);
}
);
width = 768;
},
{
layerId = "C6C96970-2BBD-4A47-8C90-C83F37B7F23D";
name = Bold;
paths = (
{
closed = 1;
nodes = (
"13 -89 LINE",
"495 -89 LINE",
"761 1592 LINE",
"279 1592 LINE",
"254 1431 LINE",
"464 1431 LINE",
"248 72 LINE",
"38 72 LINE"
);
}
);
width = 842;
}
);
unicode = 005D;
},
{
glyphname = parenleft;
lastChange = "2014-01-29 21:29:48 -0800";
layers = (
{
layerId = "F85E8FEC-B3CD-4A54-BF30-AB1986ECE904";
name = Regular;
paths = (
{
closed = 1;
nodes = (
"508 -150 CURVE",
"532 0 LINE",
"254 0 OFFCURVE",
"276 153 OFFCURVE",
"317 409 CURVE SMOOTH",
"410 996 LINE SMOOTH",
"450 1253 OFFCURVE",
"478 1416 OFFCURVE",
"756 1416 CURVE",
"780 1567 LINE",
"310 1567 OFFCURVE",
"260 1265 OFFCURVE",
"212 959 CURVE SMOOTH",
"129 440 LINE SMOOTH",
"82 139 OFFCURVE",
"38 -150 OFFCURVE"
);
}
);
width = 768;
},
{
layerId = "C6C96970-2BBD-4A47-8C90-C83F37B7F23D";
name = Bold;
paths = (
{
closed = 1;
nodes = (
"645 -159 CURVE",
"679 56 LINE",
"471 56 OFFCURVE",
"394 121 OFFCURVE",
"437 390 CURVE SMOOTH",
"536 1020 LINE SMOOTH",
"579 1291 OFFCURVE",
"679 1359 OFFCURVE",
"885 1359 CURVE",
"919 1575 LINE",
"481 1576 OFFCURVE",
"308 1342 OFFCURVE",
"252 986 CURVE SMOOTH",
"162 420 LINE SMOOTH",
"106 67 OFFCURVE",
"208 -160 OFFCURVE"
);
}
);
width = 946;
}
);
unicode = 0028;
},
{
glyphname = parenright;
lastChange = "2014-01-29 21:29:48 -0800";
layers = (
{
layerId = "F85E8FEC-B3CD-4A54-BF30-AB1986ECE904";
name = Regular;
paths = (
{
closed = 1;
nodes = (
"-12 -150 LINE",
"458 -150 OFFCURVE",
"508 152 OFFCURVE",
"556 458 CURVE SMOOTH",
"639 977 LINE SMOOTH",
"686 1278 OFFCURVE",
"730 1567 OFFCURVE",
"260 1567 CURVE",
"236 1417 LINE",
"514 1417 OFFCURVE",
"492 1264 OFFCURVE",
"451 1008 CURVE SMOOTH",
"358 421 LINE SMOOTH",
"318 164 OFFCURVE",
"290 1 OFFCURVE",
"12 1 CURVE"
);
}
);
width = 768;
},
{
layerId = "C6C96970-2BBD-4A47-8C90-C83F37B7F23D";
name = Bold;
paths = (
{
closed = 1;
nodes = (
"44 -159 LINE",
"482 -160 OFFCURVE",
"654 74 OFFCURVE",
"710 430 CURVE SMOOTH",
"800 996 LINE SMOOTH",
"856 1349 OFFCURVE",
"755 1576 OFFCURVE",
"318 1575 CURVE",
"284 1359 LINE",
"492 1359 OFFCURVE",
"569 1295 OFFCURVE",
"526 1025 CURVE SMOOTH",
"426 395 LINE SMOOTH",
"384 125 OFFCURVE",
"284 57 OFFCURVE",
"78 57 CURVE"
);
}
);
width = 946;
}
);
unicode = 0029;
},
{
glyphname = emdash;
lastChange = "2014-01-29 21:29:48 -0800";
layers = (
{
layerId = "F85E8FEC-B3CD-4A54-BF30-AB1986ECE904";
name = Regular;
paths = (
{
closed = 1;
nodes = (
"-10 402 LINE",
"1086 402 LINE",
"1110 548 LINE",
"14 548 LINE"
);
}
);
width = 1101;
},
{
layerId = "C6C96970-2BBD-4A47-8C90-C83F37B7F23D";
name = Bold;
paths = (
{
closed = 1;
nodes = (
"-11 383 LINE",
"943 383 LINE",
"971 556 LINE",
"17 556 LINE"
);
}
);
width = 961;
}
);
unicode = 2014;
},
{
glyphname = endash;
lastChange = "2014-01-29 21:29:48 -0800";
layers = (
{
layerId = "F85E8FEC-B3CD-4A54-BF30-AB1986ECE904";
name = Regular;
paths = (
{
closed = 1;
nodes = (
"-8 606 LINE",
"525 606 LINE",
"545 732 LINE",
"12 732 LINE"
);
}
);
width = 539;
},
{
layerId = "C6C96970-2BBD-4A47-8C90-C83F37B7F23D";
name = Bold;
paths = (
{
closed = 1;
nodes = (
"115 446 LINE",
"575 446 LINE",
"601 612 LINE",
"141 612 LINE"
);
}
);
width = 716;
}
);
unicode = 2013;
},
{
glyphname = hyphen;
lastChange = "2014-01-29 21:29:48 -0800";
layers = (
{
anchors = (
{
name = _mid;
position = "{507, 567}";
}
);
layerId = "F85E8FEC-B3CD-4A54-BF30-AB1986ECE904";
name = Regular;
paths = (
{
closed = 1;
nodes = (
"161 499 LINE",
"821 499 LINE",
"843 642 LINE",
"183 642 LINE"
);
}
);
width = 1024;
},
{
anchors = (
{
name = _mid;
position = "{476, 569}";
}
);
layerId = "C6C96970-2BBD-4A47-8C90-C83F37B7F23D";
name = Bold;
paths = (
{
closed = 1;
nodes = (
"120 494 LINE",
"824 494 LINE",
"848 642 LINE",
"144 642 LINE"
);
}
);
width = 968;
}
);
unicode = 002D;
},
{
glyphname = guillemetleft;
lastChange = "2014-01-29 21:29:48 -0800";
layers = (
{
layerId = "F85E8FEC-B3CD-4A54-BF30-AB1986ECE904";
name = Regular;
paths = (
{
closed = 1;
nodes = (
"305 80 LINE",
"456 150 LINE",
"309 530 LINE",
"576 910 LINE",
"440 980 LINE",
"96 530 LINE"
);
},
{
closed = 1;
nodes = (
"719 80 LINE",
"868 150 LINE",
"723 530 LINE",
"988 910 LINE",
"854 980 LINE",
"510 530 LINE"
);
}
);
width = 1054;
},
{
layerId = "C6C96970-2BBD-4A47-8C90-C83F37B7F23D";
name = Bold;
paths = (
{
closed = 1;
nodes = (
"276 80 LINE",
"427 150 LINE",
"280 530 LINE",
"547 910 LINE",
"411 980 LINE",
"67 530 LINE"
);
},
{
closed = 1;
nodes = (
"690 80 LINE",
"839 150 LINE",
"694 530 LINE",
"959 910 LINE",
"825 980 LINE",
"481 530 LINE"
);
}
);
width = 1024;
}
);
unicode = 00AB;
},
{
glyphname = guillemetright;
lastChange = "2014-01-29 21:29:48 -0800";
layers = (
{
layerId = "F85E8FEC-B3CD-4A54-BF30-AB1986ECE904";
name = Regular;
paths = (
{
closed = 1;
nodes = (
"200 80 LINE",
"544 530 LINE",
"335 980 LINE",
"186 910 LINE",
"331 530 LINE",
"66 150 LINE"
);
},
{
closed = 1;
nodes = (
"614 80 LINE",
"958 530 LINE",
"749 980 LINE",
"598 910 LINE",
"745 530 LINE",
"478 150 LINE"
);
}
);
width = 1054;
},
{
layerId = "C6C96970-2BBD-4A47-8C90-C83F37B7F23D";
name = Bold;
paths = (
{
closed = 1;
nodes = (
"228 80 LINE",
"572 530 LINE",
"363 980 LINE",
"214 910 LINE",
"359 530 LINE",
"94 150 LINE"
);
},
{
closed = 1;
nodes = (
"642 80 LINE",
"986 530 LINE",
"777 980 LINE",
"626 910 LINE",
"773 530 LINE",
"506 150 LINE"
);
}
);
width = 1024;
}
);
unicode = 00BB;
},
{
glyphname = guilsinglleft;
lastChange = "2014-01-29 21:29:48 -0800";
layers = (
{
layerId = "F85E8FEC-B3CD-4A54-BF30-AB1986ECE904";
name = Regular;
paths = (
{
closed = 1;
nodes = (
"383 80 LINE",
"534 150 LINE",
"387 530 LINE",
"654 910 LINE",
"518 980 LINE",
"174 530 LINE"
);
}
);
width = 768;
},
{
layerId = "C6C96970-2BBD-4A47-8C90-C83F37B7F23D";
name = Bold;
paths = (
{
closed = 1;
nodes = (
"383 80 LINE",
"534 150 LINE",
"387 530 LINE",
"654 910 LINE",
"518 980 LINE",
"174 530 LINE"
);
}
);
width = 768;
}
);
unicode = 2039;
},
{
glyphname = guilsinglright;
lastChange = "2014-01-29 21:29:48 -0800";
layers = (
{
layerId = "F85E8FEC-B3CD-4A54-BF30-AB1986ECE904";
name = Regular;
paths = (
{
closed = 1;
nodes = (
"256 80 LINE",
"600 530 LINE",
"391 980 LINE",
"240 910 LINE",
"387 530 LINE",
"120 150 LINE"
);
}
);
width = 768;
},
{
layerId = "C6C96970-2BBD-4A47-8C90-C83F37B7F23D";
name = Bold;
paths = (
{
closed = 1;
nodes = (
"256 80 LINE",
"600 530 LINE",
"391 980 LINE",
"240 910 LINE",
"387 530 LINE",
"120 150 LINE"
);
}
);
width = 768;
}
);
unicode = 203A;
},
{
glyphname = quotedblbase;
lastChange = "2014-01-29 21:29:48 -0800";
layers = (
{
layerId = "F85E8FEC-B3CD-4A54-BF30-AB1986ECE904";
name = Regular;
paths = (
{
closed = 1;
nodes = (
"644 -338 LINE",
"710 -284 OFFCURVE",
"847 -141 OFFCURVE",
"877 50 CURVE SMOOTH",
"906 233 LINE",
"649 233 LINE",
"612 0 LINE",
"753 0 LINE",
"732 -132 OFFCURVE",
"625 -239 OFFCURVE",
"570 -294 CURVE"
);
},
{
closed = 1;
nodes = (
"232 -338 LINE",
"298 -284 OFFCURVE",
"435 -141 OFFCURVE",
"465 50 CURVE SMOOTH",
"494 233 LINE",
"237 233 LINE",
"200 0 LINE",
"341 0 LINE",
"320 -132 OFFCURVE",
"213 -239 OFFCURVE",
"158 -294 CURVE"
);
}
);
width = 1181;
},
{
layerId = "C6C96970-2BBD-4A47-8C90-C83F37B7F23D";
name = Bold;
paths = (
{
closed = 1;
nodes = (
"868 -389 LINE",
"939 -333 OFFCURVE",
"1103 -148 OFFCURVE",
"1134 53 CURVE SMOOTH",
"1170 276 LINE",
"848 276 LINE",
"804 0 LINE",
"969 0 LINE",
"947 -138 OFFCURVE",
"829 -285 OFFCURVE",
"769 -343 CURVE"
);
},
{
closed = 1;
nodes = (
"369 -389 LINE",
"440 -333 OFFCURVE",
"604 -148 OFFCURVE",
"635 53 CURVE SMOOTH",
"671 276 LINE",
"349 276 LINE",
"305 0 LINE",
"470 0 LINE",
"448 -138 OFFCURVE",
"330 -285 OFFCURVE",
"270 -343 CURVE"
);
}
);
width = 1373;
}
);
unicode = 201E;
},
{
glyphname = quotedblleft;
lastChange = "2014-01-29 21:29:48 -0800";
layers = (
{
layerId = "F85E8FEC-B3CD-4A54-BF30-AB1986ECE904";
name = Regular;
paths = (
{
closed = 1;
nodes = (
"537 1468 LINE",
"471 1414 OFFCURVE",
"334 1271 OFFCURVE",
"304 1080 CURVE SMOOTH",
"275 897 LINE",
"532 897 LINE",
"569 1130 LINE",
"428 1130 LINE",
"449 1262 OFFCURVE",
"556 1369 OFFCURVE",
"611 1424 CURVE"
);
},
{
closed = 1;
nodes = (
"949 1468 LINE",
"883 1414 OFFCURVE",
"746 1271 OFFCURVE",
"716 1080 CURVE SMOOTH",
"687 897 LINE",
"944 897 LINE",
"981 1130 LINE",
"840 1130 LINE",
"861 1262 OFFCURVE",
"968 1369 OFFCURVE",
"1023 1424 CURVE"
);
}
);
width = 1181;
},
{
layerId = "C6C96970-2BBD-4A47-8C90-C83F37B7F23D";
name = Bold;
paths = (
{
closed = 1;
nodes = (
"505 1515 LINE",
"434 1459 OFFCURVE",
"270 1274 OFFCURVE",
"239 1073 CURVE SMOOTH",
"203 850 LINE",
"525 850 LINE",
"569 1126 LINE",
"404 1126 LINE",
"426 1264 OFFCURVE",
"544 1411 OFFCURVE",
"604 1469 CURVE"
);
},
{
closed = 1;
nodes = (
"981 1515 LINE",
"910 1459 OFFCURVE",
"746 1274 OFFCURVE",
"715 1073 CURVE SMOOTH",
"679 850 LINE",
"1001 850 LINE",
"1045 1126 LINE",
"880 1126 LINE",
"902 1264 OFFCURVE",
"1020 1411 OFFCURVE",
"1080 1469 CURVE"
);
}
);
width = 1310;
}
);
unicode = 201C;
},
{
glyphname = quotedblright;
lastChange = "2014-01-29 21:29:48 -0800";
layers = (
{
layerId = "F85E8FEC-B3CD-4A54-BF30-AB1986ECE904";
name = Regular;
paths = (
{
closed = 1;
nodes = (
"232 897 LINE",
"298 951 OFFCURVE",
"435 1094 OFFCURVE",
"465 1285 CURVE SMOOTH",
"494 1468 LINE",
"237 1468 LINE",
"200 1235 LINE",
"341 1235 LINE",
"320 1103 OFFCURVE",
"213 996 OFFCURVE",
"158 941 CURVE"
);
},
{
closed = 1;
nodes = (
"644 897 LINE",
"710 951 OFFCURVE",
"847 1094 OFFCURVE",
"877 1285 CURVE SMOOTH",
"906 1468 LINE",
"649 1468 LINE",
"612 1235 LINE",
"753 1235 LINE",
"732 1103 OFFCURVE",
"625 996 OFFCURVE",
"570 941 CURVE"
);
}
);
width = 1181;
},
{
layerId = "C6C96970-2BBD-4A47-8C90-C83F37B7F23D";
name = Bold;
paths = (
{
closed = 1;
nodes = (
"369 851 LINE",
"440 907 OFFCURVE",
"604 1092 OFFCURVE",
"635 1293 CURVE SMOOTH",
"671 1516 LINE",
"349 1516 LINE",
"305 1240 LINE",
"470 1240 LINE",
"448 1102 OFFCURVE",
"330 955 OFFCURVE",
"270 897 CURVE"
);
},
{
closed = 1;
nodes = (
"845 851 LINE",
"916 907 OFFCURVE",
"1080 1092 OFFCURVE",
"1111 1293 CURVE SMOOTH",
"1147 1516 LINE",
"825 1516 LINE",
"781 1240 LINE",
"946 1240 LINE",
"924 1102 OFFCURVE",
"806 955 OFFCURVE",
"746 897 CURVE"
);
}
);
width = 1350;
}
);
unicode = 201D;
},
{
glyphname = quoteleft;
lastChange = "2014-01-29 21:29:48 -0800";
layers = (
{
layerId = "F85E8FEC-B3CD-4A54-BF30-AB1986ECE904";
name = Regular;
paths = (
{
closed = 1;
nodes = (
"537 1468 LINE",
"471 1414 OFFCURVE",
"334 1271 OFFCURVE",
"304 1080 CURVE SMOOTH",
"275 897 LINE",
"532 897 LINE",
"569 1130 LINE",
"428 1130 LINE",
"449 1262 OFFCURVE",
"556 1369 OFFCURVE",
"611 1424 CURVE"
);
}
);
width = 769;
},
{
layerId = "C6C96970-2BBD-4A47-8C90-C83F37B7F23D";
name = Bold;
paths = (
{
closed = 1;
nodes = (
"545 1503 LINE",
"474 1447 OFFCURVE",
"310 1262 OFFCURVE",
"279 1061 CURVE SMOOTH",
"243 838 LINE",
"565 838 LINE",
"609 1114 LINE",
"444 1114 LINE",
"466 1252 OFFCURVE",
"584 1399 OFFCURVE",
"644 1457 CURVE"
);
}
);
width = 874;
}
);
unicode = 2018;
},
{
glyphname = quoteright;
lastChange = "2014-01-29 21:29:48 -0800";
layers = (
{
layerId = "F85E8FEC-B3CD-4A54-BF30-AB1986ECE904";
name = Regular;
paths = (
{
closed = 1;
nodes = (
"232 897 LINE",
"298 951 OFFCURVE",
"435 1094 OFFCURVE",
"465 1285 CURVE SMOOTH",
"494 1468 LINE",
"237 1468 LINE",
"200 1235 LINE",
"341 1235 LINE",
"320 1103 OFFCURVE",
"213 996 OFFCURVE",
"158 941 CURVE"
);
}
);
width = 769;
},
{
layerId = "C6C96970-2BBD-4A47-8C90-C83F37B7F23D";
name = Bold;
paths = (
{
closed = 1;
nodes = (
"329 839 LINE",
"400 895 OFFCURVE",
"564 1080 OFFCURVE",
"595 1281 CURVE SMOOTH",
"631 1504 LINE",
"309 1504 LINE",
"265 1228 LINE",
"430 1228 LINE",
"408 1090 OFFCURVE",
"290 943 OFFCURVE",
"230 885 CURVE"
);
}
);
width = 834;
}
);
unicode = 2019;
},
{
glyphname = quotesinglbase;
lastChange = "2014-01-29 21:29:48 -0800";
layers = (
{
layerId = "F85E8FEC-B3CD-4A54-BF30-AB1986ECE904";
name = Regular;
paths = (
{
closed = 1;
nodes = (
"232 -338 LINE",
"298 -284 OFFCURVE",
"435 -141 OFFCURVE",
"465 50 CURVE SMOOTH",
"494 233 LINE",
"237 233 LINE",
"200 0 LINE",
"341 0 LINE",
"320 -132 OFFCURVE",
"213 -239 OFFCURVE",
"158 -294 CURVE"
);
}
);
width = 769;
},
{
layerId = "C6C96970-2BBD-4A47-8C90-C83F37B7F23D";
name = Bold;
paths = (
{
closed = 1;
nodes = (
"369 -389 LINE",
"440 -333 OFFCURVE",
"604 -148 OFFCURVE",
"635 53 CURVE SMOOTH",
"671 276 LINE",
"349 276 LINE",
"305 0 LINE",
"470 0 LINE",
"448 -138 OFFCURVE",
"330 -285 OFFCURVE",
"270 -343 CURVE"
);
}
);
width = 874;
}
);
unicode = 201A;
},
{
glyphname = .notdef;
lastChange = "2014-01-29 21:29:48 -0800";
layers = (
{
layerId = "F85E8FEC-B3CD-4A54-BF30-AB1986ECE904";
name = Regular;
width = 600;
},
{
layerId = "C6C96970-2BBD-4A47-8C90-C83F37B7F23D";
name = Bold;
paths = (
{
closed = 1;
nodes = (
"149 102 LINE",
"259 799 LINE",
"875 799 LINE",
"765 102 LINE"
);
},
{
closed = 1;
nodes = (
"31 0 LINE",
"851 0 LINE",
"993 901 LINE",
"173 901 LINE"
);
}
);
width = 1024;
}
);
},
{
glyphname = florin;
lastChange = "2014-01-29 21:29:48 -0800";
layers = (
{
layerId = "F85E8FEC-B3CD-4A54-BF30-AB1986ECE904";
name = Regular;
paths = (
{
closed = 1;
nodes = (
"120 -190 CURVE SMOOTH",
"321 -190 OFFCURVE",
"405 -98 OFFCURVE",
"435 91 CURVE SMOOTH",
"535 727 LINE",
"664 727 LINE",
"685 858 LINE",
"556 858 LINE",
"607 1177 LINE SMOOTH",
"620 1263 OFFCURVE",
"653 1335 OFFCURVE",
"791 1335 CURVE SMOOTH",
"801 1335 OFFCURVE",
"810 1335 OFFCURVE",
"820 1334 CURVE",
"840 1458 LINE",
"803 1462 OFFCURVE",
"768 1464 OFFCURVE",
"737 1464 CURVE SMOOTH",
"529 1464 OFFCURVE",
"449 1372 OFFCURVE",
"415 1155 CURVE SMOOTH",
"368 858 LINE",
"251 858 LINE",
"230 727 LINE",
"347 727 LINE",
"242 63 LINE SMOOTH",
"229 -18 OFFCURVE",
"189 -61 OFFCURVE",
"78 -61 CURVE SMOOTH",
"63 -61 OFFCURVE",
"47 -61 OFFCURVE",
"31 -59 CURVE",
"11 -183 LINE",
"50 -188 OFFCURVE",
"87 -190 OFFCURVE"
);
}
);
width = 890;
},
{
layerId = "C6C96970-2BBD-4A47-8C90-C83F37B7F23D";
name = Bold;
paths = (
{
closed = 1;
nodes = (
"231 -205 CURVE SMOOTH",
"459 -205 OFFCURVE",
"502 -67 OFFCURVE",
"529 101 CURVE SMOOTH",
"646 843 LINE",
"818 843 LINE",
"837 962 LINE",
"665 962 LINE",
"704 1207 LINE SMOOTH",
"716 1281 OFFCURVE",
"738 1347 OFFCURVE",
"836 1347 CURVE SMOOTH",
"850 1347 OFFCURVE",
"872 1342 OFFCURVE",
"893 1341 CURVE",
"916 1488 LINE",
"864 1494 OFFCURVE",
"833 1496 OFFCURVE",
"796 1496 CURVE SMOOTH",
"565 1496 OFFCURVE",
"523 1358 OFFCURVE",
"495 1181 CURVE SMOOTH",
"460 962 LINE",
"313 962 LINE",
"294 843 LINE",
"441 843 LINE",
"319 74 LINE SMOOTH",
"308 1 OFFCURVE",
"285 -56 OFFCURVE",
"195 -56 CURVE SMOOTH",
"180 -56 OFFCURVE",
"154 -53 OFFCURVE",
"131 -49 CURVE",
"108 -196 LINE",
"161 -203 OFFCURVE",
"193 -205 OFFCURVE"
);
}
);
width = 1024;
}
);
unicode = 0192;
},
{
glyphname = cent;
lastChange = "2014-01-29 21:29:48 -0800";
layers = (
{
components = (
{
name = c;
transform = "{1, 0, 0, 1, 0, 0}";
}
);
layerId = "F85E8FEC-B3CD-4A54-BF30-AB1986ECE904";
name = Regular;
paths = (
{
closed = 1;
nodes = (
"616 1013 LINE",
"719 1013 LINE",
"760 1277 LINE",
"657 1277 LINE"
);
},
{
closed = 1;
nodes = (
"423 -205 LINE",
"526 -205 LINE",
"567 59 LINE",
"464 59 LINE"
);
}
);
width = 1110;
},
{
components = (
{
name = c;
transform = "{1, 0, 0, 1, 0, 0}";
}
);
layerId = "C6C96970-2BBD-4A47-8C90-C83F37B7F23D";
name = Bold;
paths = (
{
closed = 1;
nodes = (
"612 1006 LINE",
"705 1006 LINE",
"750 1291 LINE",
"657 1291 LINE"
);
},
{
closed = 1;
nodes = (
"419 -214 LINE",
"512 -214 LINE",
"557 71 LINE",
"464 71 LINE"
);
}
);
width = 1107;
}
);
unicode = 00A2;
},
{
glyphname = currency;
lastChange = "2014-01-29 21:29:47 -0800";
layers = (
{
layerId = "F85E8FEC-B3CD-4A54-BF30-AB1986ECE904";
name = Regular;
paths = (
{
closed = 1;
nodes = (
"507 360 CURVE SMOOTH",
"609 360 OFFCURVE",
"710 406 OFFCURVE",
"780 486 CURVE",
"927 376 LINE",
"992 457 LINE",
"839 571 LINE",
"859 608 OFFCURVE",
"872 648 OFFCURVE",
"878 689 CURVE SMOOTH",
"888 751 OFFCURVE",
"880 809 OFFCURVE",
"862 860 CURVE",
"1067 993 LINE",
"1030 1075 LINE",
"814 935 LINE",
"766 990 OFFCURVE",
"695 1018 OFFCURVE",
"612 1018 CURVE SMOOTH",
"530 1018 OFFCURVE",
"450 991 OFFCURVE",
"385 937 CURVE",
"224 1061 LINE",
"157 979 LINE",
"314 862 LINE",
"276 811 OFFCURVE",
"250 752 OFFCURVE",
"240 689 CURVE SMOOTH",
"233 640 OFFCURVE",
"235 592 OFFCURVE",
"247 549 CURVE",
"83 443 LINE",
"120 360 LINE",
"284 468 LINE",
"333 398 OFFCURVE",
"412 360 OFFCURVE"
);
},
{
closed = 1;
nodes = (
"522 444 CURVE SMOOTH",
"393 444 OFFCURVE",
"314 555 OFFCURVE",
"336 690 CURVE SMOOTH",
"357 826 OFFCURVE",
"471 936 OFFCURVE",
"600 936 CURVE SMOOTH",
"729 936 OFFCURVE",
"807 826 OFFCURVE",
"786 690 CURVE SMOOTH",
"764 555 OFFCURVE",
"651 444 OFFCURVE"
);
}
);
width = 1149;
},
{
layerId = "C6C96970-2BBD-4A47-8C90-C83F37B7F23D";
name = Bold;
paths = (
{
closed = 1;
nodes = (
"506 381 CURVE SMOOTH",
"615 381 OFFCURVE",
"706 423 OFFCURVE",
"773 485 CURVE",
"896 384 LINE",
"961 465 LINE",
"839 563 LINE",
"870 611 OFFCURVE",
"890 667 OFFCURVE",
"899 723 CURVE SMOOTH",
"908 779 OFFCURVE",
"905 836 OFFCURVE",
"888 886 CURVE",
"1040 986 LINE",
"1006 1067 LINE",
"847 964 LINE",
"800 1025 OFFCURVE",
"723 1064 OFFCURVE",
"614 1064 CURVE SMOOTH",
"506 1064 OFFCURVE",
"416 1026 OFFCURVE",
"350 968 CURVE",
"231 1067 LINE",
"166 987 LINE",
"283 892 LINE",
"248 840 OFFCURVE",
"225 782 OFFCURVE",
"216 723 CURVE SMOOTH",
"207 665 OFFCURVE",
"211 608 OFFCURVE",
"228 559 CURVE",
"85 467 LINE",
"120 383 LINE",
"270 480 LINE",
"318 420 OFFCURVE",
"397 381 OFFCURVE"
);
},
{
closed = 1;
nodes = (
"529 528 CURVE SMOOTH",
"398 528 OFFCURVE",
"352 622 OFFCURVE",
"368 723 CURVE SMOOTH",
"384 824 OFFCURVE",
"460 918 OFFCURVE",
"591 918 CURVE SMOOTH",
"720 918 OFFCURVE",
"764 824 OFFCURVE",
"748 723 CURVE SMOOTH",
"732 622 OFFCURVE",
"658 528 OFFCURVE"
);
}
);
width = 1126;
}
);
unicode = 00A4;
},
{
glyphname = dollar;
lastChange = "2014-01-29 21:29:48 -0800";
layers = (
{
components = (
{
name = S;
transform = "{1, 0, 0, 1, 0, 0}";
}
);
layerId = "F85E8FEC-B3CD-4A54-BF30-AB1986ECE904";
name = Regular;
paths = (
{
closed = 1;
nodes = (
"451 -372 LINE",
"561 -372 LINE",
"899 1758 LINE",
"789 1758 LINE"
);
}
);
width = 1303;
},
{
components = (
{
name = S;
transform = "{1, 0, 0, 1, 0, 0}";
}
);
layerId = "C6C96970-2BBD-4A47-8C90-C83F37B7F23D";
name = Bold;
paths = (
{
closed = 1;
nodes = (
"451 -312 LINE",
"561 -312 LINE",
"889 1758 LINE",
"779 1758 LINE"
);
}
);
width = 1281;
}
);
unicode = 0024;
},
{
glyphname = euro;
lastChange = "2014-01-29 21:29:48 -0800";
layers = (
{
components = (
{
name = C;
transform = "{1, 0, 0, 1, 0, 0}";
}
);
layerId = "F85E8FEC-B3CD-4A54-BF30-AB1986ECE904";
name = Regular;
paths = (
{
closed = 1;
nodes = (
"758 819 LINE",
"779 953 LINE",
"37 953 LINE",
"16 819 LINE"
);
},
{
closed = 1;
nodes = (
"708 505 LINE",
"730 639 LINE",
"-12 639 LINE",
"-34 505 LINE"
);
}
);
width = 1460;
},
{
components = (
{
name = C;
transform = "{1, 0, 0, 1, 0, 0}";
}
);
layerId = "C6C96970-2BBD-4A47-8C90-C83F37B7F23D";
name = Bold;
paths = (
{
closed = 1;
nodes = (
"804 838 LINE",
"825 972 LINE",
"83 972 LINE",
"62 838 LINE"
);
},
{
closed = 1;
nodes = (
"756 536 LINE",
"777 670 LINE",
"35 670 LINE",
"14 536 LINE"
);
}
);
width = 1490;
}
);
unicode = 20AC;
},
{
glyphname = sterling;
lastChange = "2014-01-29 21:29:48 -0800";
layers = (
{
layerId = "F85E8FEC-B3CD-4A54-BF30-AB1986ECE904";
name = Regular;
paths = (
{
closed = 1;
nodes = (
"143 0 LINE",
"918 0 LINE",
"944 162 LINE",
"370 162 LINE",
"502 668 LINE",
"1000 668 LINE",
"1023 809 LINE",
"540 809 LINE",
"616 1104 LINE SMOOTH",
"661 1275 OFFCURVE",
"759 1327 OFFCURVE",
"863 1327 CURVE SMOOTH",
"964 1327 OFFCURVE",
"1069 1278 OFFCURVE",
"1105 1259 CURVE",
"1181 1398 LINE",
"1065 1459 OFFCURVE",
"959 1484 OFFCURVE",
"866 1484 CURVE SMOOTH",
"632 1484 OFFCURVE",
"476 1319 OFFCURVE",
"428 1125 CURVE",
"347 809 LINE",
"177 809 LINE",
"154 668 LINE",
"311 668 LINE"
);
}
);
width = 1273;
},
{
layerId = "C6C96970-2BBD-4A47-8C90-C83F37B7F23D";
name = Bold;
paths = (
{
closed = 1;
nodes = (
"86 0 LINE",
"1004 0 LINE",
"1040 226 LINE",
"432 226 LINE",
"528 621 LINE",
"1021 621 LINE",
"1052 812 LINE",
"576 812 LINE",
"631 1044 LINE SMOOTH",
"663 1180 OFFCURVE",
"722 1281 OFFCURVE",
"878 1281 CURVE SMOOTH",
"949 1281 OFFCURVE",
"1033 1261 OFFCURVE",
"1131 1214 CURVE",
"1234 1415 LINE",
"1164 1467 OFFCURVE",
"1034 1515 OFFCURVE",
"891 1515 CURVE SMOOTH",
"560 1515 OFFCURVE",
"400 1344 OFFCURVE",
"339 1061 CURVE SMOOTH",
"280 812 LINE",
"143 812 LINE",
"112 621 LINE",
"234 621 LINE"
);
}
);
width = 1285;
}
);
unicode = 00A3;
},
{
glyphname = yen;
lastChange = "2014-01-29 21:29:48 -0800";
layers = (
{
components = (
{
name = Y;
transform = "{1, 0, 0, 1, 0, 0}";
}
);
layerId = "F85E8FEC-B3CD-4A54-BF30-AB1986ECE904";
name = Regular;
paths = (
{
closed = 1;
nodes = (
"1037 560 LINE",
"1061 708 LINE",
"258 708 LINE",
"234 560 LINE"
);
},
{
closed = 1;
nodes = (
"988 252 LINE",
"1012 400 LINE",
"209 400 LINE",
"185 252 LINE"
);
}
);
width = 1318;
},
{
components = (
{
name = Y;
transform = "{1, 0, 0, 1, 0, 0}";
}
);
layerId = "C6C96970-2BBD-4A47-8C90-C83F37B7F23D";
name = Bold;
paths = (
{
closed = 1;
nodes = (
"988 533 LINE",
"1009 667 LINE",
"267 667 LINE",
"246 533 LINE"
);
},
{
closed = 1;
nodes = (
"940 231 LINE",
"961 365 LINE",
"219 365 LINE",
"198 231 LINE"
);
}
);
width = 1304;
}
);
unicode = 00A5;
},
{
glyphname = Ohm;
lastChange = "2014-01-29 21:29:48 -0800";
layers = (
{
layerId = "F85E8FEC-B3CD-4A54-BF30-AB1986ECE904";
name = Regular;
paths = (
{
closed = 1;
nodes = (
"1501 1372 OFFCURVE",
"1267 1468 OFFCURVE",
"909 1468 CURVE SMOOTH",
"551 1468 OFFCURVE",
"287 1372 OFFCURVE",
"183 716 CURVE SMOOTH",
"128 365 OFFCURVE",
"215 219 OFFCURVE",
"358 141 CURVE",
"113 141 LINE",
"91 0 LINE",
"581 0 LINE",
"603 141 LINE",
"387 225 OFFCURVE",
"327 360 OFFCURVE",
"386 736 CURVE SMOOTH",
"467 1248 OFFCURVE",
"623 1304 OFFCURVE",
"883 1304 CURVE SMOOTH",
"1143 1304 OFFCURVE",
"1281 1248 OFFCURVE",
"1200 736 CURVE SMOOTH",
"1141 360 OFFCURVE",
"1037 225 OFFCURVE",
"795 141 CURVE",
"773 0 LINE",
"1263 0 LINE",
"1285 141 LINE",
"1040 141 LINE",
"1207 219 OFFCURVE",
"1342 365 OFFCURVE",
"1397 716 CURVE SMOOTH"
);
}
);
width = 1586;
},
{
layerId = "C6C96970-2BBD-4A47-8C90-C83F37B7F23D";
name = Bold;
paths = (
{
closed = 1;
nodes = (
"1595 1418 OFFCURVE",
"1329 1489 OFFCURVE",
"935 1489 CURVE",
"551 1489 OFFCURVE",
"253 1418 OFFCURVE",
"146 746 CURVE",
"101 458 OFFCURVE",
"209 296 OFFCURVE",
"336 206 CURVE",
"82 206 LINE",
"49 0 LINE",
"617 0 LINE",
"647 192 LINE",
"442 305 OFFCURVE",
"407 447 OFFCURVE",
"459 779 CURVE",
"531 1231 OFFCURVE",
"667 1271 OFFCURVE",
"900 1271 CURVE",
"1143 1271 OFFCURVE",
"1257 1231 OFFCURVE",
"1185 779 CURVE",
"1133 447 OFFCURVE",
"1052 305 OFFCURVE",
"811 192 CURVE",
"781 0 LINE",
"1349 0 LINE",
"1382 206 LINE",
"1128 206 LINE",
"1283 296 OFFCURVE",
"1443 458 OFFCURVE",
"1488 746 CURVE"
);
}
);
width = 1634;
}
);
unicode = 2126;
},
{
glyphname = approxequal;
lastChange = "2014-01-29 21:29:47 -0800";
layers = (
{
layerId = "F85E8FEC-B3CD-4A54-BF30-AB1986ECE904";
name = Regular;
paths = (
{
closed = 1;
nodes = (
"556 635 CURVE SMOOTH",
"676 635 OFFCURVE",
"785 719 OFFCURVE",
"811 884 CURVE",
"714 884 LINE",
"705 822 OFFCURVE",
"669 781 OFFCURVE",
"588 781 CURVE SMOOTH",
"517 781 OFFCURVE",
"414 898 OFFCURVE",
"277 898 CURVE SMOOTH",
"157 898 OFFCURVE",
"47 814 OFFCURVE",
"21 649 CURVE",
"118 649 LINE",
"128 711 OFFCURVE",
"163 752 OFFCURVE",
"244 752 CURVE SMOOTH",
"315 752 OFFCURVE",
"419 635 OFFCURVE"
);
},
{
closed = 1;
nodes = (
"604 941 CURVE SMOOTH",
"724 941 OFFCURVE",
"834 1025 OFFCURVE",
"860 1190 CURVE",
"763 1190 LINE",
"753 1128 OFFCURVE",
"718 1087 OFFCURVE",
"637 1087 CURVE SMOOTH",
"566 1087 OFFCURVE",
"462 1204 OFFCURVE",
"325 1204 CURVE SMOOTH",
"205 1204 OFFCURVE",
"96 1120 OFFCURVE",
"70 955 CURVE",
"167 955 LINE",
"176 1017 OFFCURVE",
"212 1058 OFFCURVE",
"293 1058 CURVE SMOOTH",
"364 1058 OFFCURVE",
"467 941 OFFCURVE"
);
}
);
width = 881;
},
{
layerId = "C6C96970-2BBD-4A47-8C90-C83F37B7F23D";
name = Bold;
paths = (
{
closed = 1;
nodes = (
"666 738 CURVE SMOOTH",
"801 738 OFFCURVE",
"925 839 OFFCURVE",
"955 1027 CURVE",
"846 1027 LINE",
"834 956 OFFCURVE",
"793 905 OFFCURVE",
"703 905 CURVE SMOOTH",
"623 905 OFFCURVE",
"448 1043 OFFCURVE",
"295 1043 CURVE SMOOTH",
"160 1043 OFFCURVE",
"37 943 OFFCURVE",
"7 754 CURVE",
"115 754 LINE",
"127 825 OFFCURVE",
"168 877 OFFCURVE",
"259 877 CURVE SMOOTH",
"338 877 OFFCURVE",
"512 738 OFFCURVE"
);
},
{
closed = 1;
nodes = (
"728 1131 CURVE SMOOTH",
"863 1131 OFFCURVE",
"987 1232 OFFCURVE",
"1017 1420 CURVE",
"908 1420 LINE",
"896 1349 OFFCURVE",
"855 1298 OFFCURVE",
"765 1298 CURVE SMOOTH",
"685 1298 OFFCURVE",
"510 1436 OFFCURVE",
"357 1436 CURVE SMOOTH",
"222 1436 OFFCURVE",
"99 1336 OFFCURVE",
"69 1147 CURVE",
"177 1147 LINE",
"189 1218 OFFCURVE",
"230 1270 OFFCURVE",
"321 1270 CURVE SMOOTH",
"400 1270 OFFCURVE",
"574 1131 OFFCURVE"
);
}
);
width = 1024;
}
);
unicode = 2248;
},
{
glyphname = asciitilde;
lastChange = "2014-01-29 21:29:48 -0800";
layers = (
{
layerId = "F85E8FEC-B3CD-4A54-BF30-AB1986ECE904";
name = Regular;
paths = (
{
closed = 1;
nodes = (
"578 1173 CURVE SMOOTH",
"698 1173 OFFCURVE",
"812 1287 OFFCURVE",
"838 1452 CURVE",
"741 1452 LINE",
"731 1390 OFFCURVE",
"691 1319 OFFCURVE",
"610 1319 CURVE SMOOTH",
"539 1319 OFFCURVE",
"440 1466 OFFCURVE",
"303 1466 CURVE SMOOTH",
"183 1466 OFFCURVE",
"69 1352 OFFCURVE",
"43 1187 CURVE",
"140 1187 LINE",
"150 1249 OFFCURVE",
"190 1320 OFFCURVE",
"271 1320 CURVE SMOOTH",
"342 1320 OFFCURVE",
"441 1173 OFFCURVE"
);
}
);
width = 881;
},
{
layerId = "C6C96970-2BBD-4A47-8C90-C83F37B7F23D";
name = Bold;
paths = (
{
closed = 1;
nodes = (
"664 1131 CURVE SMOOTH",
"799 1131 OFFCURVE",
"928 1262 OFFCURVE",
"958 1450 CURVE",
"849 1450 LINE",
"838 1379 OFFCURVE",
"792 1298 OFFCURVE",
"702 1298 CURVE SMOOTH",
"622 1298 OFFCURVE",
"512 1466 OFFCURVE",
"359 1466 CURVE SMOOTH",
"224 1466 OFFCURVE",
"96 1336 OFFCURVE",
"66 1147 CURVE",
"174 1147 LINE",
"185 1218 OFFCURVE",
"231 1300 OFFCURVE",
"322 1300 CURVE SMOOTH",
"401 1300 OFFCURVE",
"510 1131 OFFCURVE"
);
}
);
width = 1024;
}
);
unicode = 007E;
},
{
glyphname = bulletoperator;
lastChange = "2014-01-29 21:29:48 -0800";
layers = (
{
layerId = "F85E8FEC-B3CD-4A54-BF30-AB1986ECE904";
name = Regular;
paths = (
{
closed = 1;
nodes = (
"358 325 CURVE SMOOTH",
"227 325 OFFCURVE",
"147 432 OFFCURVE",
"168 563 CURVE SMOOTH",
"189 694 OFFCURVE",
"303 801 OFFCURVE",
"434 801 CURVE SMOOTH",
"565 801 OFFCURVE",
"645 694 OFFCURVE",
"624 563 CURVE SMOOTH",
"603 432 OFFCURVE",
"489 325 OFFCURVE"
);
}
);
width = 792;
},
{
layerId = "C6C96970-2BBD-4A47-8C90-C83F37B7F23D";
name = Bold;
paths = (
{
closed = 1;
nodes = (
"97 1251 LINE",
"345 1251 LINE",
"385 1498 LINE",
"137 1498 LINE"
);
}
);
width = 459;
}
);
unicode = 2219;
},
{
glyphname = divide;
lastChange = "2014-01-29 21:29:48 -0800";
layers = (
{
layerId = "F85E8FEC-B3CD-4A54-BF30-AB1986ECE904";
name = Regular;
paths = (
{
closed = 1;
nodes = (
"341 90 LINE",
"546 90 LINE",
"579 299 LINE",
"374 299 LINE"
);
},
{
closed = 1;
nodes = (
"89 472 LINE",
"914 472 LINE",
"935 609 LINE",
"110 609 LINE"
);
},
{
closed = 1;
nodes = (
"452 787 LINE",
"657 787 LINE",
"690 996 LINE",
"485 996 LINE"
);
}
);
width = 1025;
},
{
layerId = "C6C96970-2BBD-4A47-8C90-C83F37B7F23D";
name = Bold;
paths = (
{
closed = 1;
nodes = (
"316 94 LINE",
"544 94 LINE",
"580 323 LINE",
"352 323 LINE"
);
},
{
closed = 1;
nodes = (
"100 479 LINE",
"880 479 LINE",
"905 642 LINE",
"125 642 LINE"
);
},
{
closed = 1;
nodes = (
"426 792 LINE",
"654 792 LINE",
"690 1021 LINE",
"462 1021 LINE"
);
}
);
width = 1004;
}
);
unicode = 00F7;
},
{
glyphname = emptyset;
lastChange = "2014-01-29 21:29:48 -0800";
layers = (
{
layerId = "F85E8FEC-B3CD-4A54-BF30-AB1986ECE904";
name = Regular;
paths = (
{
closed = 1;
nodes = (
"699 167 CURVE SMOOTH",
"406 167 OFFCURVE",
"227 388 OFFCURVE",
"273 682 CURVE SMOOTH",
"320 974 OFFCURVE",
"569 1196 OFFCURVE",
"862 1196 CURVE SMOOTH",
"1156 1196 OFFCURVE",
"1332 974 OFFCURVE",
"1285 682 CURVE SMOOTH",
"1239 388 OFFCURVE",
"993 167 OFFCURVE"
);
},
{
closed = 1;
nodes = (
"681 66 CURVE SMOOTH",
"1029 66 OFFCURVE",
"1339 331 OFFCURVE",
"1394 682 CURVE SMOOTH",
"1450 1031 OFFCURVE",
"1224 1296 OFFCURVE",
"876 1296 CURVE SMOOTH",
"530 1296 OFFCURVE",
"218 1031 OFFCURVE",
"162 682 CURVE SMOOTH",
"107 331 OFFCURVE",
"335 66 OFFCURVE"
);
},
{
closed = 1;
nodes = (
"110 54 LINE",
"168 -2 LINE",
"1448 1281 LINE",
"1390 1337 LINE"
);
}
);
width = 1552;
},
{
layerId = "C6C96970-2BBD-4A47-8C90-C83F37B7F23D";
name = Bold;
paths = (
{
closed = 1;
nodes = (
"704 206 CURVE SMOOTH",
"433 206 OFFCURVE",
"268 410 OFFCURVE",
"311 682 CURVE SMOOTH",
"354 952 OFFCURVE",
"584 1157 OFFCURVE",
"855 1157 CURVE SMOOTH",
"1127 1157 OFFCURVE",
"1288 952 OFFCURVE",
"1245 682 CURVE SMOOTH",
"1202 410 OFFCURVE",
"976 206 OFFCURVE"
);
},
{
closed = 1;
nodes = (
"680 66 CURVE SMOOTH",
"1028 66 OFFCURVE",
"1338 331 OFFCURVE",
"1393 682 CURVE SMOOTH",
"1449 1031 OFFCURVE",
"1223 1296 OFFCURVE",
"875 1296 CURVE SMOOTH",
"529 1296 OFFCURVE",
"217 1031 OFFCURVE",
"161 682 CURVE SMOOTH",
"106 331 OFFCURVE",
"334 66 OFFCURVE"
);
},
{
closed = 1;
nodes = (
"103 70 LINE",
"178 -6 LINE",
"1459 1277 LINE",
"1384 1353 LINE"
);
}
);
width = 1552;
}
);
unicode = 2205;
},
{
glyphname = equal;
lastChange = "2014-01-29 21:29:48 -0800";
layers = (
{
layerId = "F85E8FEC-B3CD-4A54-BF30-AB1986ECE904";
name = Regular;
paths = (
{
closed = 1;
nodes = (
"186 467 LINE",
"988 467 LINE",
"1011 615 LINE",
"209 615 LINE"
);
},
{
closed = 1;
nodes = (
"239 805 LINE",
"1041 805 LINE",
"1064 953 LINE",
"262 953 LINE"
);
}
);
width = 1250;
},
{
layerId = "C6C96970-2BBD-4A47-8C90-C83F37B7F23D";
name = Bold;
paths = (
{
closed = 1;
nodes = (
"69 371 LINE",
"725 371 LINE",
"752 544 LINE",
"96 544 LINE"
);
},
{
closed = 1;
nodes = (
"128 740 LINE",
"784 740 LINE",
"811 913 LINE",
"155 913 LINE"
);
}
);
width = 880;
}
);
unicode = 003D;
},
{
glyphname = greater;
lastChange = "2014-01-29 21:29:48 -0800";
layers = (
{
layerId = "F85E8FEC-B3CD-4A54-BF30-AB1986ECE904";
name = Regular;
paths = (
{
closed = 1;
nodes = (
"117 0 LINE",
"1078 472 LINE",
"1110 673 LINE",
"299 1144 LINE",
"265 935 LINE",
"939 571 LINE",
"150 203 LINE"
);
}
);
width = 1250;
},
{
layerId = "C6C96970-2BBD-4A47-8C90-C83F37B7F23D";
name = Bold;
paths = (
{
closed = 1;
nodes = (
"69 31 LINE",
"879 446 LINE",
"913 665 LINE",
"235 1081 LINE",
"198 848 LINE",
"715 556 LINE",
"105 260 LINE"
);
}
);
width = 1024;
}
);
unicode = 003E;
},
{
glyphname = greaterequal;
lastChange = "2014-01-29 21:29:47 -0800";
layers = (
{
components = (
{
name = greater;
transform = "{1, 0, 0, 1, 0, 0}";
},
{
name = underscore;
transform = "{1, 0, 0, 1, 158, -138}";
}
);
layerId = "F85E8FEC-B3CD-4A54-BF30-AB1986ECE904";
name = Regular;
width = 1250;
},
{
layerId = "C6C96970-2BBD-4A47-8C90-C83F37B7F23D";
name = Bold;
paths = (
{
closed = 1;
nodes = (
"181 236 LINE",
"989 651 LINE",
"1024 870 LINE",
"347 1286 LINE",
"310 1053 LINE",
"827 761 LINE",
"217 465 LINE"
);
},
{
closed = 1;
nodes = (
"82 0 LINE",
"964 0 LINE",
"992 175 LINE",
"110 175 LINE"
);
}
);
width = 1250;
}
);
unicode = 2265;
},
{
glyphname = infinity;
lastChange = "2014-01-29 21:29:48 -0800";
layers = (
{
layerId = "F85E8FEC-B3CD-4A54-BF30-AB1986ECE904";
name = Regular;
paths = (
{
closed = 1;
nodes = (
"316 485 CURVE SMOOTH",
"494 485 OFFCURVE",
"804 736 OFFCURVE",
"804 736 CURVE",
"804 736 OFFCURVE",
"1050 485 OFFCURVE",
"1228 485 CURVE SMOOTH",
"1431 485 OFFCURVE",
"1559 652 OFFCURVE",
"1586 820 CURVE SMOOTH",
"1613 989 OFFCURVE",
"1536 1158 OFFCURVE",
"1334 1158 CURVE SMOOTH",
"1156 1158 OFFCURVE",
"836 933 OFFCURVE",
"836 933 CURVE",
"836 933 OFFCURVE",
"600 1158 OFFCURVE",
"422 1158 CURVE SMOOTH",
"219 1158 OFFCURVE",
"91 990 OFFCURVE",
"64 822 CURVE SMOOTH",
"37 654 OFFCURVE",
"113 485 OFFCURVE"
);
},
{
closed = 1;
nodes = (
"343 616 CURVE SMOOTH",
"239 616 OFFCURVE",
"204 718 OFFCURVE",
"220 821 CURVE SMOOTH",
"236 924 OFFCURVE",
"305 1027 OFFCURVE",
"409 1027 CURVE SMOOTH",
"483 1027 OFFCURVE",
"718 829 OFFCURVE",
"718 829 CURVE",
"718 829 OFFCURVE",
"417 616 OFFCURVE"
);
},
{
closed = 1;
nodes = (
"1228 616 CURVE SMOOTH",
"1154 616 OFFCURVE",
"920 826 OFFCURVE",
"920 826 CURVE",
"920 826 OFFCURVE",
"1220 1027 OFFCURVE",
"1294 1027 CURVE SMOOTH",
"1398 1027 OFFCURVE",
"1433 924 OFFCURVE",
"1417 821 CURVE SMOOTH",
"1401 718 OFFCURVE",
"1332 616 OFFCURVE"
);
}
);
width = 1650;
},
{
layerId = "C6C96970-2BBD-4A47-8C90-C83F37B7F23D";
name = Bold;
paths = (
{
closed = 1;
nodes = (
"444 360 CURVE SMOOTH",
"627 360 OFFCURVE",
"1001 620 OFFCURVE",
"1001 620 CURVE",
"1001 620 OFFCURVE",
"1293 360 OFFCURVE",
"1476 360 CURVE SMOOTH",
"1638 360 OFFCURVE",
"1788 500 OFFCURVE",
"1830 765 CURVE SMOOTH",
"1872 1030 OFFCURVE",
"1766 1170 OFFCURVE",
"1604 1170 CURVE SMOOTH",
"1421 1170 OFFCURVE",
"1047 910 OFFCURVE",
"1047 910 CURVE",
"1047 910 OFFCURVE",
"755 1170 OFFCURVE",
"572 1170 CURVE SMOOTH",
"410 1170 OFFCURVE",
"260 1030 OFFCURVE",
"218 765 CURVE SMOOTH",
"176 500 OFFCURVE",
"282 360 OFFCURVE"
);
},
{
closed = 1;
nodes = (
"499 593 CURVE SMOOTH",
"390 593 OFFCURVE",
"362 666 OFFCURVE",
"378 765 CURVE SMOOTH",
"394 864 OFFCURVE",
"444 937 OFFCURVE",
"553 937 CURVE SMOOTH",
"627 937 OFFCURVE",
"791 817 OFFCURVE",
"889 765 CURVE",
"775 713 OFFCURVE",
"573 593 OFFCURVE"
);
},
{
closed = 1;
nodes = (
"1495 593 CURVE SMOOTH",
"1421 593 OFFCURVE",
"1257 713 OFFCURVE",
"1159 765 CURVE",
"1273 817 OFFCURVE",
"1475 937 OFFCURVE",
"1549 937 CURVE SMOOTH",
"1658 937 OFFCURVE",
"1686 864 OFFCURVE",
"1670 765 CURVE SMOOTH",
"1654 666 OFFCURVE",
"1604 593 OFFCURVE"
);
}
);
width = 2048;
}
);
unicode = 221E;
},
{
glyphname = integral;
lastChange = "2014-01-29 21:29:48 -0800";
layers = (
{
layerId = "F85E8FEC-B3CD-4A54-BF30-AB1986ECE904";
name = Regular;
paths = (
{
closed = 1;
nodes = (
"105 -380 CURVE SMOOTH",
"306 -380 OFFCURVE",
"389 -288 OFFCURVE",
"419 -99 CURVE SMOOTH",
"622 1181 LINE SMOOTH",
"636 1267 OFFCURVE",
"668 1339 OFFCURVE",
"806 1339 CURVE SMOOTH",
"816 1339 OFFCURVE",
"825 1339 OFFCURVE",
"836 1338 CURVE",
"855 1462 LINE",
"818 1466 OFFCURVE",
"783 1468 OFFCURVE",
"752 1468 CURVE SMOOTH",
"544 1468 OFFCURVE",
"465 1376 OFFCURVE",
"430 1159 CURVE SMOOTH",
"227 -127 LINE SMOOTH",
"214 -208 OFFCURVE",
"174 -251 OFFCURVE",
"63 -251 CURVE SMOOTH",
"48 -251 OFFCURVE",
"32 -251 OFFCURVE",
"15 -249 CURVE",
"-4 -373 LINE",
"35 -378 OFFCURVE",
"72 -380 OFFCURVE"
);
}
);
width = 890;
},
{
layerId = "C6C96970-2BBD-4A47-8C90-C83F37B7F23D";
name = Bold;
paths = (
{
closed = 1;
nodes = (
"41 -263 CURVE SMOOTH",
"269 -263 OFFCURVE",
"312 -125 OFFCURVE",
"338 43 CURVE SMOOTH",
"514 1152 LINE SMOOTH",
"526 1227 OFFCURVE",
"548 1292 OFFCURVE",
"646 1292 CURVE SMOOTH",
"660 1292 OFFCURVE",
"683 1288 OFFCURVE",
"703 1286 CURVE",
"727 1433 LINE",
"675 1439 OFFCURVE",
"643 1442 OFFCURVE",
"606 1442 CURVE SMOOTH",
"375 1442 OFFCURVE",
"333 1303 OFFCURVE",
"305 1126 CURVE SMOOTH",
"129 16 LINE SMOOTH",
"118 -57 OFFCURVE",
"95 -114 OFFCURVE",
"5 -114 CURVE SMOOTH",
"-10 -114 OFFCURVE",
"-36 -111 OFFCURVE",
"-59 -107 CURVE",
"-83 -254 LINE",
"-30 -261 OFFCURVE",
"3 -263 OFFCURVE"
);
}
);
width = 693;
}
);
unicode = 222B;
},
{
glyphname = less;
lastChange = "2014-01-29 21:29:48 -0800";
layers = (
{
layerId = "F85E8FEC-B3CD-4A54-BF30-AB1986ECE904";
name = Regular;
paths = (
{
closed = 1;
nodes = (
"951 0 LINE",
"985 209 LINE",
"311 573 LINE",
"1100 941 LINE",
"1133 1144 LINE",
"172 672 LINE",
"140 471 LINE"
);
}
);
width = 1250;
},
{
layerId = "C6C96970-2BBD-4A47-8C90-C83F37B7F23D";
name = Bold;
paths = (
{
closed = 1;
nodes = (
"773 31 LINE",
"809 262 LINE",
"293 556 LINE",
"903 850 LINE",
"939 1081 LINE",
"129 664 LINE",
"94 445 LINE"
);
}
);
width = 1024;
}
);
unicode = 003C;
},
{
glyphname = lessequal;
lastChange = "2014-01-29 21:29:48 -0800";
layers = (
{
components = (
{
name = less;
transform = "{1, 0, 0, 1, 0, 0}";
},
{
name = underscore;
transform = "{1, 0, 0, 1, 128, -148}";
}
);
layerId = "F85E8FEC-B3CD-4A54-BF30-AB1986ECE904";
name = Regular;
width = 1250;
},
{
layerId = "C6C96970-2BBD-4A47-8C90-C83F37B7F23D";
name = Bold;
paths = (
{
closed = 1;
nodes = (
"959 239 LINE",
"995 470 LINE",
"439 764 LINE",
"1088 1058 LINE",
"1125 1289 LINE",
"275 872 LINE",
"240 653 LINE"
);
},
{
closed = 1;
nodes = (
"127 0 LINE",
"919 0 LINE",
"947 175 LINE",
"155 175 LINE"
);
}
);
width = 1252;
}
);
unicode = 2264;
},
{
glyphname = logicalnot;
lastChange = "2014-01-29 21:29:48 -0800";
layers = (
{
layerId = "F85E8FEC-B3CD-4A54-BF30-AB1986ECE904";
name = Regular;
paths = (
{
closed = 1;
nodes = (
"561 333 LINE",
"693 333 LINE",
"749 692 LINE",
"126 692 LINE",
"105 556 LINE",
"596 556 LINE"
);
}
);
width = 864;
},
{
layerId = "C6C96970-2BBD-4A47-8C90-C83F37B7F23D";
name = Bold;
paths = (
{
closed = 1;
nodes = (
"663 226 LINE",
"811 226 LINE",
"895 757 LINE",
"171 757 LINE",
"144 587 LINE",
"720 587 LINE"
);
}
);
width = 1024;
}
);
unicode = 00AC;
},
{
glyphname = minus;
lastChange = "2014-01-29 21:29:48 -0800";
layers = (
{
layerId = "F85E8FEC-B3CD-4A54-BF30-AB1986ECE904";
name = Regular;
paths = (
{
closed = 1;
nodes = (
"129 439 LINE",
"756 439 LINE",
"782 609 LINE",
"155 609 LINE"
);
}
);
width = 911;
},
{
layerId = "C6C96970-2BBD-4A47-8C90-C83F37B7F23D";
name = Bold;
paths = (
{
closed = 1;
nodes = (
"108 439 LINE",
"650 439 LINE",
"678 619 LINE",
"136 619 LINE"
);
}
);
width = 792;
}
);
unicode = 2212;
},
{
glyphname = multiply;
lastChange = "2014-01-29 21:29:48 -0800";
layers = (
{
layerId = "F85E8FEC-B3CD-4A54-BF30-AB1986ECE904";
name = Regular;
paths = (
{
closed = 1;
nodes = (
"182 216 LINE",
"468 458 LINE",
"678 216 LINE",
"807 344 LINE",
"608 576 LINE",
"880 806 LINE",
"792 937 LINE",
"506 694 LINE",
"296 937 LINE",
"165 806 LINE",
"366 576 LINE",
"92 344 LINE"
);
}
);
width = 973;
},
{
layerId = "C6C96970-2BBD-4A47-8C90-C83F37B7F23D";
name = Bold;
paths = (
{
closed = 1;
nodes = (
"208 216 LINE",
"494 458 LINE",
"704 216 LINE",
"834 344 LINE",
"634 576 LINE",
"907 806 LINE",
"818 937 LINE",
"532 694 LINE",
"322 937 LINE",
"190 806 LINE",
"392 576 LINE",
"117 344 LINE"
);
}
);
width = 1025;
}
);
unicode = 00D7;
},
{
glyphname = notequal;
lastChange = "2014-01-29 21:29:48 -0800";
layers = (
{
components = (
{
name = equal;
transform = "{1, 0, 0, 1, -241, 0}";
}
);
layerId = "F85E8FEC-B3CD-4A54-BF30-AB1986ECE904";
name = Regular;
paths = (
{
closed = 1;
nodes = (
"50 205 LINE",
"197 205 LINE",
"730 1186 LINE",
"587 1186 LINE"
);
}
);
width = 768;
},
{
components = (
{
name = equal;
transform = "{1, 0, 0, 1, 0, 0}";
}
);
layerId = "C6C96970-2BBD-4A47-8C90-C83F37B7F23D";
name = Bold;
paths = (
{
closed = 1;
nodes = (
"51 150 LINE",
"224 150 LINE",
"813 1094 LINE",
"640 1094 LINE"
);
}
);
width = 919;
}
);
unicode = 2260;
},
{
glyphname = partialdiff;
lastChange = "2014-01-29 21:29:48 -0800";
layers = (
{
layerId = "F85E8FEC-B3CD-4A54-BF30-AB1986ECE904";
name = Regular;
paths = (
{
closed = 1;
nodes = (
"348 -20 CURVE SMOOTH",
"700 -20 OFFCURVE",
"999 385 OFFCURVE",
"1083 913 CURVE SMOOTH",
"1148 1325 OFFCURVE",
"959 1507 OFFCURVE",
"701 1507 CURVE SMOOTH",
"592 1507 OFFCURVE",
"472 1475 OFFCURVE",
"352 1415 CURVE",
"368 1354 LINE",
"447 1389 OFFCURVE",
"527 1407 OFFCURVE",
"601 1407 CURVE SMOOTH",
"799 1407 OFFCURVE",
"947 1273 OFFCURVE",
"899 969 CURVE SMOOTH",
"897 957 OFFCURVE",
"895 944 OFFCURVE",
"892 931 CURVE",
"435 924 OFFCURVE",
"124 568 OFFCURVE",
"81 294 CURVE SMOOTH",
"53 121 OFFCURVE",
"133 -20 OFFCURVE"
);
},
{
closed = 1;
nodes = (
"381 98 CURVE SMOOTH",
"307 98 OFFCURVE",
"281 169 OFFCURVE",
"296 266 CURVE SMOOTH",
"329 475 OFFCURVE",
"550 808 OFFCURVE",
"869 828 CURVE",
"804 542 OFFCURVE",
"623 98 OFFCURVE"
);
}
);
width = 1202;
},
{
layerId = "C6C96970-2BBD-4A47-8C90-C83F37B7F23D";
name = Bold;
paths = (
{
closed = 1;
nodes = (
"354 -20 CURVE",
"747 -20 OFFCURVE",
"1051 387 OFFCURVE",
"1133 902 CURVE",
"1196 1303 OFFCURVE",
"994 1496 OFFCURVE",
"705 1496 CURVE",
"577 1496 OFFCURVE",
"427 1454 OFFCURVE",
"309 1389 CURVE",
"334 1288 LINE",
"446 1343 OFFCURVE",
"522 1364 OFFCURVE",
"600 1364 CURVE",
"768 1364 OFFCURVE",
"902 1241 OFFCURVE",
"857 958 CURVE",
"856 950 OFFCURVE",
"854 942 OFFCURVE",
"853 934 CURVE",
"389 906 OFFCURVE",
"85 573 OFFCURVE",
"43 310 CURVE",
"16 136 OFFCURVE",
"103 -20 OFFCURVE"
);
},
{
closed = 1;
nodes = (
"392 130 CURVE",
"358 130 OFFCURVE",
"336 186 OFFCURVE",
"351 282 CURVE",
"382 477 OFFCURVE",
"568 744 OFFCURVE",
"822 794 CURVE",
"756 529 OFFCURVE",
"579 130 OFFCURVE"
);
}
);
width = 1216;
}
);
unicode = 2202;
},
{
glyphname = percent;
lastChange = "2014-01-29 21:29:48 -0800";
layers = (
{
layerId = "F85E8FEC-B3CD-4A54-BF30-AB1986ECE904";
name = Regular;
paths = (
{
closed = 1;
nodes = (
"480 794 CURVE SMOOTH",
"342 794 OFFCURVE",
"342 899 OFFCURVE",
"364 1040 CURVE SMOOTH",
"379 1135 LINE SMOOTH",
"401 1271 OFFCURVE",
"427 1365 OFFCURVE",
"570 1365 CURVE SMOOTH",
"714 1365 OFFCURVE",
"713 1271 OFFCURVE",
"691 1133 CURVE SMOOTH",
"676 1040 LINE SMOOTH",
"654 899 OFFCURVE",
"618 794 OFFCURVE"
);
},
{
closed = 1;
nodes = (
"462 678 CURVE SMOOTH",
"692 678 OFFCURVE",
"787 828 OFFCURVE",
"824 1057 CURVE SMOOTH",
"832 1111 LINE",
"867 1344 OFFCURVE",
"819 1481 OFFCURVE",
"589 1481 CURVE SMOOTH",
"358 1481 OFFCURVE",
"269 1343 OFFCURVE",
"232 1110 CURVE SMOOTH",
"224 1057 LINE SMOOTH",
"188 829 OFFCURVE",
"232 678 OFFCURVE"
);
},
{
closed = 1;
nodes = (
"1474 97 CURVE SMOOTH",
"1336 97 OFFCURVE",
"1335 202 OFFCURVE",
"1358 343 CURVE SMOOTH",
"1373 438 LINE SMOOTH",
"1394 574 OFFCURVE",
"1421 668 OFFCURVE",
"1564 668 CURVE SMOOTH",
"1708 668 OFFCURVE",
"1706 574 OFFCURVE",
"1684 436 CURVE SMOOTH",
"1670 343 LINE SMOOTH",
"1647 202 OFFCURVE",
"1612 97 OFFCURVE"
);
},
{
closed = 1;
nodes = (
"1455 -19 CURVE SMOOTH",
"1685 -19 OFFCURVE",
"1781 131 OFFCURVE",
"1817 360 CURVE SMOOTH",
"1826 414 LINE",
"1861 647 OFFCURVE",
"1812 784 OFFCURVE",
"1582 784 CURVE SMOOTH",
"1351 784 OFFCURVE",
"1263 646 OFFCURVE",
"1226 413 CURVE SMOOTH",
"1217 360 LINE SMOOTH",
"1181 132 OFFCURVE",
"1225 -19 OFFCURVE"
);
},
{
closed = 1;
nodes = (
"552 0 LINE",
"706 0 LINE",
"1473 1446 LINE",
"1324 1446 LINE"
);
}
);
width = 2048;
},
{
layerId = "C6C96970-2BBD-4A47-8C90-C83F37B7F23D";
name = Bold;
paths = (
{
closed = 1;
nodes = (
"507 794 CURVE SMOOTH",
"380 794 OFFCURVE",
"383 894 OFFCURVE",
"404 1029 CURVE SMOOTH",
"418 1118 LINE SMOOTH",
"439 1248 OFFCURVE",
"462 1337 OFFCURVE",
"593 1337 CURVE SMOOTH",
"726 1337 OFFCURVE",
"721 1248 OFFCURVE",
"700 1116 CURVE SMOOTH",
"686 1029 LINE SMOOTH",
"665 894 OFFCURVE",
"634 794 OFFCURVE"
);
},
{
closed = 1;
nodes = (
"486 664 CURVE SMOOTH",
"716 664 OFFCURVE",
"815 814 OFFCURVE",
"852 1043 CURVE SMOOTH",
"860 1097 LINE SMOOTH",
"895 1330 OFFCURVE",
"844 1467 OFFCURVE",
"614 1467 CURVE SMOOTH",
"383 1467 OFFCURVE",
"292 1329 OFFCURVE",
"255 1096 CURVE SMOOTH",
"247 1043 LINE SMOOTH",
"210 815 OFFCURVE",
"256 664 OFFCURVE"
);
},
{
closed = 1;
nodes = (
"1517 111 CURVE SMOOTH",
"1389 111 OFFCURVE",
"1392 211 OFFCURVE",
"1413 346 CURVE SMOOTH",
"1427 435 LINE SMOOTH",
"1448 565 OFFCURVE",
"1471 654 OFFCURVE",
"1603 654 CURVE SMOOTH",
"1735 654 OFFCURVE",
"1730 565 OFFCURVE",
"1709 433 CURVE SMOOTH",
"1695 346 LINE SMOOTH",
"1674 211 OFFCURVE",
"1643 111 OFFCURVE"
);
},
{
closed = 1;
nodes = (
"1496 -19 CURVE SMOOTH",
"1726 -19 OFFCURVE",
"1824 131 OFFCURVE",
"1860 360 CURVE SMOOTH",
"1869 414 LINE SMOOTH",
"1904 647 OFFCURVE",
"1854 784 OFFCURVE",
"1624 784 CURVE SMOOTH",
"1393 784 OFFCURVE",
"1301 646 OFFCURVE",
"1264 413 CURVE SMOOTH",
"1255 360 LINE SMOOTH",
"1219 132 OFFCURVE",
"1266 -19 OFFCURVE"
);
},
{
closed = 1;
nodes = (
"579 0 LINE",
"757 0 LINE",
"1524 1446 LINE",
"1351 1446 LINE"
);
}
);
width = 2114;
}
);
unicode = 0025;
},
{
glyphname = perthousand;
lastChange = "2014-01-29 21:29:47 -0800";
layers = (
{
layerId = "F85E8FEC-B3CD-4A54-BF30-AB1986ECE904";
name = Regular;
paths = (
{
closed = 1;
nodes = (
"515 774 CURVE SMOOTH",
"377 774 OFFCURVE",
"377 879 OFFCURVE",
"399 1020 CURVE SMOOTH",
"414 1115 LINE SMOOTH",
"436 1251 OFFCURVE",
"463 1345 OFFCURVE",
"606 1345 CURVE SMOOTH",
"750 1345 OFFCURVE",
"748 1251 OFFCURVE",
"726 1113 CURVE SMOOTH",
"711 1020 LINE SMOOTH",
"689 879 OFFCURVE",
"653 774 OFFCURVE"
);
},
{
closed = 1;
nodes = (
"497 658 CURVE SMOOTH",
"727 658 OFFCURVE",
"823 808 OFFCURVE",
"859 1037 CURVE SMOOTH",
"868 1091 LINE",
"903 1324 OFFCURVE",
"854 1461 OFFCURVE",
"624 1461 CURVE SMOOTH",
"393 1461 OFFCURVE",
"304 1323 OFFCURVE",
"267 1090 CURVE SMOOTH",
"259 1037 LINE SMOOTH",
"223 809 OFFCURVE",
"267 658 OFFCURVE"
);
},
{
closed = 1;
nodes = (
"1512 97 CURVE SMOOTH",
"1374 97 OFFCURVE",
"1374 202 OFFCURVE",
"1396 343 CURVE SMOOTH",
"1411 438 LINE SMOOTH",
"1433 574 OFFCURVE",
"1460 668 OFFCURVE",
"1603 668 CURVE SMOOTH",
"1747 668 OFFCURVE",
"1745 574 OFFCURVE",
"1723 436 CURVE SMOOTH",
"1708 343 LINE SMOOTH",
"1686 202 OFFCURVE",
"1650 97 OFFCURVE"
);
},
{
closed = 1;
nodes = (
"1494 -19 CURVE SMOOTH",
"1724 -19 OFFCURVE",
"1820 131 OFFCURVE",
"1856 360 CURVE SMOOTH",
"1864 414 LINE",
"1899 647 OFFCURVE",
"1851 784 OFFCURVE",
"1621 784 CURVE SMOOTH",
"1390 784 OFFCURVE",
"1301 646 OFFCURVE",
"1264 413 CURVE SMOOTH",
"1256 360 LINE SMOOTH",
"1220 132 OFFCURVE",
"1264 -19 OFFCURVE"
);
},
{
closed = 1;
nodes = (
"2291 97 CURVE SMOOTH",
"2153 97 OFFCURVE",
"2153 202 OFFCURVE",
"2175 343 CURVE SMOOTH",
"2190 438 LINE SMOOTH",
"2212 574 OFFCURVE",
"2239 668 OFFCURVE",
"2382 668 CURVE SMOOTH",
"2526 668 OFFCURVE",
"2524 574 OFFCURVE",
"2502 436 CURVE SMOOTH",
"2487 343 LINE SMOOTH",
"2465 202 OFFCURVE",
"2429 97 OFFCURVE"
);
},
{
closed = 1;
nodes = (
"2273 -19 CURVE SMOOTH",
"2503 -19 OFFCURVE",
"2599 131 OFFCURVE",
"2635 360 CURVE SMOOTH",
"2643 414 LINE",
"2678 647 OFFCURVE",
"2630 784 OFFCURVE",
"2400 784 CURVE SMOOTH",
"2169 784 OFFCURVE",
"2080 646 OFFCURVE",
"2043 413 CURVE SMOOTH",
"2035 360 LINE SMOOTH",
"1999 132 OFFCURVE",
"2043 -19 OFFCURVE"
);
},
{
closed = 1;
nodes = (
"591 0 LINE",
"745 0 LINE",
"1512 1446 LINE",
"1363 1446 LINE"
);
}
);
width = 2886;
},
{
layerId = "C6C96970-2BBD-4A47-8C90-C83F37B7F23D";
name = Bold;
paths = (
{
closed = 1;
nodes = (
"440 788 CURVE SMOOTH",
"312 788 OFFCURVE",
"314 888 OFFCURVE",
"336 1023 CURVE SMOOTH",
"350 1112 LINE SMOOTH",
"371 1242 OFFCURVE",
"394 1331 OFFCURVE",
"526 1331 CURVE SMOOTH",
"658 1331 OFFCURVE",
"653 1242 OFFCURVE",
"632 1110 CURVE SMOOTH",
"618 1023 LINE SMOOTH",
"596 888 OFFCURVE",
"567 788 OFFCURVE"
);
},
{
closed = 1;
nodes = (
"419 658 CURVE SMOOTH",
"649 658 OFFCURVE",
"747 808 OFFCURVE",
"783 1037 CURVE SMOOTH",
"792 1091 LINE SMOOTH",
"827 1324 OFFCURVE",
"776 1461 OFFCURVE",
"546 1461 CURVE SMOOTH",
"315 1461 OFFCURVE",
"223 1323 OFFCURVE",
"186 1090 CURVE SMOOTH",
"178 1037 LINE SMOOTH",
"142 809 OFFCURVE",
"189 658 OFFCURVE"
);
},
{
closed = 1;
nodes = (
"1449 111 CURVE SMOOTH",
"1321 111 OFFCURVE",
"1324 211 OFFCURVE",
"1346 346 CURVE SMOOTH",
"1360 435 LINE SMOOTH",
"1380 565 OFFCURVE",
"1403 654 OFFCURVE",
"1535 654 CURVE SMOOTH",
"1667 654 OFFCURVE",
"1663 565 OFFCURVE",
"1642 433 CURVE SMOOTH",
"1629 346 LINE SMOOTH",
"1607 211 OFFCURVE",
"1576 111 OFFCURVE"
);
},
{
closed = 1;
nodes = (
"1429 -19 CURVE SMOOTH",
"1659 -19 OFFCURVE",
"1758 131 OFFCURVE",
"1794 360 CURVE SMOOTH",
"1802 414 LINE SMOOTH",
"1837 647 OFFCURVE",
"1786 784 OFFCURVE",
"1556 784 CURVE SMOOTH",
"1325 784 OFFCURVE",
"1233 646 OFFCURVE",
"1196 413 CURVE SMOOTH",
"1188 360 LINE SMOOTH",
"1152 132 OFFCURVE",
"1199 -19 OFFCURVE"
);
},
{
closed = 1;
nodes = (
"2203 111 CURVE SMOOTH",
"2075 111 OFFCURVE",
"2078 211 OFFCURVE",
"2100 346 CURVE SMOOTH",
"2114 435 LINE SMOOTH",
"2134 565 OFFCURVE",
"2157 654 OFFCURVE",
"2289 654 CURVE SMOOTH",
"2421 654 OFFCURVE",
"2417 565 OFFCURVE",
"2396 433 CURVE SMOOTH",
"2383 346 LINE SMOOTH",
"2361 211 OFFCURVE",
"2330 111 OFFCURVE"
);
},
{
closed = 1;
nodes = (
"2183 -19 CURVE SMOOTH",
"2413 -19 OFFCURVE",
"2512 131 OFFCURVE",
"2548 360 CURVE SMOOTH",
"2556 414 LINE SMOOTH",
"2591 647 OFFCURVE",
"2540 784 OFFCURVE",
"2310 784 CURVE SMOOTH",
"2079 784 OFFCURVE",
"1987 646 OFFCURVE",
"1950 413 CURVE SMOOTH",
"1942 360 LINE SMOOTH",
"1906 132 OFFCURVE",
"1953 -19 OFFCURVE"
);
},
{
closed = 1;
nodes = (
"512 0 LINE",
"690 0 LINE",
"1457 1446 LINE",
"1284 1446 LINE"
);
}
);
width = 2769;
}
);
unicode = 2030;
},
{
glyphname = plus;
lastChange = "2014-01-29 21:29:48 -0800";
layers = (
{
layerId = "F85E8FEC-B3CD-4A54-BF30-AB1986ECE904";
name = Regular;
paths = (
{
closed = 1;
nodes = (
"373 156 LINE",
"524 156 LINE",
"577 494 LINE",
"851 494 LINE",
"875 642 LINE",
"601 642 LINE",
"652 968 LINE",
"501 968 LINE",
"450 642 LINE",
"175 642 LINE",
"151 494 LINE",
"426 494 LINE"
);
}
);
width = 1024;
},
{
layerId = "C6C96970-2BBD-4A47-8C90-C83F37B7F23D";
name = Bold;
paths = (
{
closed = 1;
nodes = (
"337 156 LINE",
"501 156 LINE",
"553 487 LINE",
"822 487 LINE",
"848 649 LINE",
"579 649 LINE",
"629 968 LINE",
"465 968 LINE",
"415 649 LINE",
"146 649 LINE",
"120 487 LINE",
"389 487 LINE"
);
}
);
width = 966;
}
);
unicode = 002B;
},
{
glyphname = plusminus;
lastChange = "2014-01-29 21:29:48 -0800";
layers = (
{
layerId = "F85E8FEC-B3CD-4A54-BF30-AB1986ECE904";
name = Regular;
paths = (
{
closed = 1;
nodes = (
"434 334 LINE",
"555 334 LINE",
"599 611 LINE",
"852 611 LINE",
"870 726 LINE",
"617 726 LINE",
"660 992 LINE",
"539 992 LINE",
"496 726 LINE",
"243 726 LINE",
"225 611 LINE",
"478 611 LINE"
);
},
{
closed = 1;
nodes = (
"128 0 LINE",
"755 0 LINE",
"774 120 LINE",
"147 120 LINE"
);
}
);
width = 1041;
},
{
layerId = "C6C96970-2BBD-4A47-8C90-C83F37B7F23D";
name = Bold;
paths = (
{
closed = 1;
nodes = (
"400 326 LINE",
"566 326 LINE",
"608 591 LINE",
"866 591 LINE",
"892 755 LINE",
"634 755 LINE",
"676 1018 LINE",
"510 1018 LINE",
"468 755 LINE",
"210 755 LINE",
"184 591 LINE",
"442 591 LINE"
);
},
{
closed = 1;
nodes = (
"90 0 LINE",
"772 0 LINE",
"799 165 LINE",
"117 165 LINE"
);
}
);
width = 1024;
}
);
unicode = 00B1;
},
{
glyphname = product;
lastChange = "2014-01-29 21:29:48 -0800";
layers = (
{
layerId = "F85E8FEC-B3CD-4A54-BF30-AB1986ECE904";
name = Regular;
paths = (
{
closed = 1;
nodes = (
"596 319 LINE",
"727 319 LINE",
"780 652 LINE",
"958 652 LINE SMOOTH",
"1178 652 OFFCURVE",
"1251 760 OFFCURVE",
"1272 894 CURVE SMOOTH",
"1275 908 LINE",
"1298 1082 OFFCURVE",
"1207 1153 OFFCURVE",
"1050 1153 CURVE SMOOTH",
"728 1153 LINE"
);
},
{
closed = 1;
nodes = (
"794 742 LINE",
"845 1062 LINE",
"1040 1062 LINE SMOOTH",
"1158 1062 OFFCURVE",
"1151 960 OFFCURVE",
"1142 901 CURVE SMOOTH",
"1138 877 LINE",
"1127 814 OFFCURVE",
"1094 742 OFFCURVE",
"980 742 CURVE SMOOTH"
);
},
{
closed = 1;
nodes = (
"797 82 CURVE SMOOTH",
"433 82 OFFCURVE",
"211 357 OFFCURVE",
"269 722 CURVE SMOOTH",
"327 1086 OFFCURVE",
"635 1361 OFFCURVE",
"999 1361 CURVE SMOOTH",
"1365 1361 OFFCURVE",
"1584 1086 OFFCURVE",
"1526 722 CURVE SMOOTH",
"1468 357 OFFCURVE",
"1163 82 OFFCURVE"
);
},
{
closed = 1;
nodes = (
"780 -14 CURVE SMOOTH",
"1196 -14 OFFCURVE",
"1566 303 OFFCURVE",
"1632 722 CURVE SMOOTH",
"1698 1139 OFFCURVE",
"1428 1456 OFFCURVE",
"1012 1456 CURVE SMOOTH",
"599 1456 OFFCURVE",
"226 1139 OFFCURVE",
"160 722 CURVE SMOOTH",
"94 303 OFFCURVE",
"367 -14 OFFCURVE"
);
}
);
width = 1792;
},
{
layerId = "C6C96970-2BBD-4A47-8C90-C83F37B7F23D";
name = Bold;
paths = (
{
closed = 1;
nodes = (
"588 319 LINE",
"719 319 LINE",
"772 652 LINE",
"950 652 LINE SMOOTH",
"1170 652 OFFCURVE",
"1243 760 OFFCURVE",
"1264 894 CURVE SMOOTH",
"1267 908 LINE SMOOTH",
"1290 1082 OFFCURVE",
"1199 1153 OFFCURVE",
"1042 1153 CURVE SMOOTH",
"720 1153 LINE"
);
},
{
closed = 1;
nodes = (
"786 742 LINE",
"837 1062 LINE",
"1032 1062 LINE SMOOTH",
"1150 1062 OFFCURVE",
"1143 960 OFFCURVE",
"1134 901 CURVE SMOOTH",
"1130 877 LINE",
"1119 814 OFFCURVE",
"1086 742 OFFCURVE",
"972 742 CURVE SMOOTH"
);
},
{
closed = 1;
nodes = (
"789 82 CURVE SMOOTH",
"425 82 OFFCURVE",
"203 357 OFFCURVE",
"261 722 CURVE SMOOTH",
"319 1086 OFFCURVE",
"627 1361 OFFCURVE",
"991 1361 CURVE SMOOTH",
"1357 1361 OFFCURVE",
"1576 1086 OFFCURVE",
"1518 722 CURVE SMOOTH",
"1460 357 OFFCURVE",
"1155 82 OFFCURVE"
);
},
{
closed = 1;
nodes = (
"772 -14 CURVE SMOOTH",
"1188 -14 OFFCURVE",
"1558 303 OFFCURVE",
"1624 722 CURVE SMOOTH",
"1690 1139 OFFCURVE",
"1420 1456 OFFCURVE",
"1004 1456 CURVE SMOOTH",
"591 1456 OFFCURVE",
"218 1139 OFFCURVE",
"152 722 CURVE SMOOTH",
"86 303 OFFCURVE",
"359 -14 OFFCURVE"
);
}
);
width = 1776;
}
);
unicode = 220F;
},
{
glyphname = radical;
lastChange = "2014-01-29 21:29:48 -0800";
layers = (
{
layerId = "F85E8FEC-B3CD-4A54-BF30-AB1986ECE904";
name = Regular;
paths = (
{
closed = 1;
nodes = (
"49 442 LINE",
"168 442 LINE",
"328 0 LINE",
"505 0 LINE",
"1357 1506 LINE",
"1221 1506 LINE",
"450 159 LINE",
"327 553 LINE",
"66 553 LINE"
);
}
);
width = 1249;
},
{
layerId = "C6C96970-2BBD-4A47-8C90-C83F37B7F23D";
name = Bold;
paths = (
{
closed = 1;
nodes = (
"-40 512 LINE",
"79 512 LINE",
"308 0 LINE",
"555 0 LINE",
"1386 1506 LINE",
"1191 1506 LINE",
"471 229 LINE",
"318 623 LINE",
"-23 623 LINE"
);
}
);
width = 1298;
}
);
unicode = 221A;
},
{
glyphname = summation;
lastChange = "2014-01-29 21:29:48 -0800";
layers = (
{
layerId = "F85E8FEC-B3CD-4A54-BF30-AB1986ECE904";
name = Regular;
paths = (
{
closed = 1;
nodes = (
"961 0 LINE",
"987 162 LINE",
"232 162 LINE",
"779 738 LINE",
"790 807 LINE",
"406 1286 LINE",
"1165 1286 LINE",
"1191 1446 LINE",
"227 1446 LINE",
"203 1298 LINE",
"603 762 LINE",
"22 155 LINE",
"-3 0 LINE"
);
}
);
width = 1123;
},
{
layerId = "C6C96970-2BBD-4A47-8C90-C83F37B7F23D";
name = Bold;
paths = (
{
closed = 1;
nodes = (
"966 0 LINE",
"1003 232 LINE",
"376 232 LINE",
"900 718 LINE",
"916 817 LINE",
"548 1246 LINE",
"1163 1246 LINE",
"1200 1476 LINE",
"246 1476 LINE",
"209 1243 LINE",
"599 762 LINE",
"49 235 LINE",
"12 0 LINE"
);
}
);
width = 1196;
}
);
unicode = 2211;
},
{
glyphname = lozenge;
lastChange = "2014-01-29 21:29:48 -0800";
layers = (
{
layerId = "F85E8FEC-B3CD-4A54-BF30-AB1986ECE904";
name = Regular;
paths = (
{
closed = 1;
nodes = (
"365 0 LINE",
"535 0 LINE",
"988 725 LINE",
"765 1446 LINE",
"595 1446 LINE",
"116 725 LINE"
);
},
{
closed = 1;
nodes = (
"478 160 LINE",
"295 725 LINE",
"655 1276 LINE",
"814 725 LINE"
);
}
);
width = 1104;
},
{
layerId = "C6C96970-2BBD-4A47-8C90-C83F37B7F23D";
name = Bold;
paths = (
{
closed = 1;
nodes = (
"347 0 LINE",
"545 0 LINE",
"1002 754 LINE",
"783 1505 LINE",
"585 1505 LINE",
"102 754 LINE"
);
},
{
closed = 1;
nodes = (
"478 188 LINE",
"316 754 LINE",
"655 1307 LINE",
"793 754 LINE"
);
}
);
width = 1104;
}
);
unicode = 25CA;
},
{
glyphname = ampersand;
lastChange = "2014-01-29 21:29:48 -0800";
layers = (
{
layerId = "F85E8FEC-B3CD-4A54-BF30-AB1986ECE904";
name = Regular;
paths = (
{
closed = 1;
nodes = (
"601 -24 CURVE SMOOTH",
"854 -24 OFFCURVE",
"1000 28 OFFCURVE",
"1089 114 CURVE",
"1209 -19 LINE",
"1331 94 LINE",
"1183 261 LINE",
"1211 332 OFFCURVE",
"1226 413 OFFCURVE",
"1240 500 CURVE SMOOTH",
"1284 778 LINE",
"1109 778 LINE",
"1058 455 LINE SMOOTH",
"1055 439 OFFCURVE",
"1053 424 OFFCURVE",
"1049 410 CURVE",
"606 907 LINE",
"530 1002 OFFCURVE",
"504 1048 OFFCURVE",
"517 1126 CURVE SMOOTH",
"535 1242 OFFCURVE",
"589 1331 OFFCURVE",
"799 1331 CURVE SMOOTH",
"987 1331 OFFCURVE",
"1049 1302 OFFCURVE",
"1027 1164 CURVE SMOOTH",
"1017 1104 LINE",
"1183 1104 LINE",
"1199 1205 LINE SMOOTH",
"1237 1441 OFFCURVE",
"1095 1483 OFFCURVE",
"808 1483 CURVE SMOOTH",
"474 1483 OFFCURVE",
"358 1323 OFFCURVE",
"329 1142 CURVE SMOOTH",
"305 988 OFFCURVE",
"363 913 OFFCURVE",
"453 816 CURVE",
"250 759 OFFCURVE",
"162 640 OFFCURVE",
"130 439 CURVE SMOOTH",
"92 198 OFFCURVE",
"158 -24 OFFCURVE"
);
},
{
closed = 1;
nodes = (
"624 126 CURVE SMOOTH",
"368 126 OFFCURVE",
"300 239 OFFCURVE",
"333 445 CURVE SMOOTH",
"352 567 OFFCURVE",
"380 680 OFFCURVE",
"537 723 CURVE",
"984 230 LINE",
"918 136 OFFCURVE",
"810 126 OFFCURVE"
);
}
);
width = 1500;
},
{
layerId = "C6C96970-2BBD-4A47-8C90-C83F37B7F23D";
name = Bold;
paths = (
{
closed = 1;
nodes = (
"613 -27 CURVE SMOOTH",
"866 -27 OFFCURVE",
"997 17 OFFCURVE",
"1085 103 CURVE",
"1193 -23 LINE",
"1381 150 LINE",
"1237 309 LINE",
"1264 367 OFFCURVE",
"1287 462 OFFCURVE",
"1301 549 CURVE SMOOTH",
"1344 822 LINE",
"1109 822 LINE",
"1063 531 LINE SMOOTH",
"1060 515 OFFCURVE",
"1060 514 OFFCURVE",
"1057 500 CURVE",
"671 951 LINE SMOOTH",
"596 1046 OFFCURVE",
"574 1071 OFFCURVE",
"586 1149 CURVE SMOOTH",
"601 1244 OFFCURVE",
"646 1305 OFFCURVE",
"849 1305 CURVE SMOOTH",
"1037 1305 OFFCURVE",
"1087 1290 OFFCURVE",
"1065 1152 CURVE SMOOTH",
"1059 1110 LINE",
"1297 1110 LINE",
"1310 1193 LINE SMOOTH",
"1347 1429 OFFCURVE",
"1222 1506 OFFCURVE",
"872 1506 CURVE SMOOTH",
"511 1506 OFFCURVE",
"361 1395 OFFCURVE",
"324 1165 CURVE SMOOTH",
"300 1011 OFFCURVE",
"356 922 OFFCURVE",
"446 825 CURVE",
"241 767 OFFCURVE",
"136 661 OFFCURVE",
"104 460 CURVE SMOOTH",
"48 108 OFFCURVE",
"170 -27 OFFCURVE"
);
},
{
closed = 1;
nodes = (
"648 195 CURVE SMOOTH",
"392 195 OFFCURVE",
"344 260 OFFCURVE",
"377 466 CURVE SMOOTH",
"396 588 OFFCURVE",
"412 668 OFFCURVE",
"553 704 CURVE",
"920 279 LINE",
"871 198 OFFCURVE",
"757 195 OFFCURVE"
);
}
);
width = 1526;
}
);
unicode = 0026;
},
{
glyphname = asciicircum;
lastChange = "2014-01-29 21:29:48 -0800";
layers = (
{
layerId = "F85E8FEC-B3CD-4A54-BF30-AB1986ECE904";
name = Regular;
paths = (
{
closed = 1;
nodes = (
"102 626 LINE",
"296 626 LINE",
"661 1161 LINE",
"858 626 LINE",
"1051 626 LINE",
"787 1283 LINE",
"565 1283 LINE"
);
}
);
width = 1257;
},
{
layerId = "C6C96970-2BBD-4A47-8C90-C83F37B7F23D";
name = Bold;
paths = (
{
closed = 1;
nodes = (
"19 511 LINE",
"256 511 LINE",
"656 1112 LINE",
"865 511 LINE",
"1092 511 LINE",
"806 1283 LINE",
"547 1283 LINE"
);
}
);
width = 1257;
}
);
unicode = 005E;
},
